G04 #@! TF.GenerationSoftware,KiCad,Pcbnew,(5.1.12)-1*
G04 #@! TF.CreationDate,2022-10-20T21:35:18-07:00*
G04 #@! TF.ProjectId,Fuente_de_poder,4675656e-7465-45f6-9465-5f706f646572,rev?*
G04 #@! TF.SameCoordinates,Original*
G04 #@! TF.FileFunction,Soldermask,Top*
G04 #@! TF.FilePolarity,Negative*
%FSLAX46Y46*%
G04 Gerber Fmt 4.6, Leading zero omitted, Abs format (unit mm)*
G04 Created by KiCad (PCBNEW (5.1.12)-1) date 2022-10-20 21:35:18*
%MOMM*%
%LPD*%
G01*
G04 APERTURE LIST*
%ADD10C,2.600000*%
%ADD11R,2.600000X2.600000*%
%ADD12R,2.400000X2.900000*%
%ADD13R,1.100000X1.100000*%
%ADD14C,7.500000*%
%ADD15R,2.400000X1.500000*%
%ADD16R,1.500000X2.400000*%
%ADD17R,1.000000X1.400000*%
%ADD18R,1.550000X0.600000*%
%ADD19R,2.600000X3.100000*%
%ADD20R,2.550000X2.550000*%
%ADD21R,0.300000X0.850000*%
%ADD22R,0.850000X0.300000*%
G04 APERTURE END LIST*
D10*
X152518120Y-107734100D03*
D11*
X147518120Y-107734100D03*
G36*
G01*
X165453000Y-96446060D02*
X165763000Y-96446060D01*
G75*
G02*
X165918000Y-96601060I0J-155000D01*
G01*
X165918000Y-97026060D01*
G75*
G02*
X165763000Y-97181060I-155000J0D01*
G01*
X165453000Y-97181060D01*
G75*
G02*
X165298000Y-97026060I0J155000D01*
G01*
X165298000Y-96601060D01*
G75*
G02*
X165453000Y-96446060I155000J0D01*
G01*
G37*
G36*
G01*
X165453000Y-97581060D02*
X165763000Y-97581060D01*
G75*
G02*
X165918000Y-97736060I0J-155000D01*
G01*
X165918000Y-98161060D01*
G75*
G02*
X165763000Y-98316060I-155000J0D01*
G01*
X165453000Y-98316060D01*
G75*
G02*
X165298000Y-98161060I0J155000D01*
G01*
X165298000Y-97736060D01*
G75*
G02*
X165453000Y-97581060I155000J0D01*
G01*
G37*
D12*
X144906460Y-99941380D03*
X138806460Y-99941380D03*
G36*
G01*
X155631720Y-95905081D02*
X155631720Y-94605079D01*
G75*
G02*
X155881719Y-94355080I249999J0D01*
G01*
X156706721Y-94355080D01*
G75*
G02*
X156956720Y-94605079I0J-249999D01*
G01*
X156956720Y-95905081D01*
G75*
G02*
X156706721Y-96155080I-249999J0D01*
G01*
X155881719Y-96155080D01*
G75*
G02*
X155631720Y-95905081I0J249999D01*
G01*
G37*
G36*
G01*
X152506720Y-95905081D02*
X152506720Y-94605079D01*
G75*
G02*
X152756719Y-94355080I249999J0D01*
G01*
X153581721Y-94355080D01*
G75*
G02*
X153831720Y-94605079I0J-249999D01*
G01*
X153831720Y-95905081D01*
G75*
G02*
X153581721Y-96155080I-249999J0D01*
G01*
X152756719Y-96155080D01*
G75*
G02*
X152506720Y-95905081I0J249999D01*
G01*
G37*
G36*
G01*
X151845840Y-97711499D02*
X151845840Y-99011501D01*
G75*
G02*
X151595841Y-99261500I-249999J0D01*
G01*
X150770839Y-99261500D01*
G75*
G02*
X150520840Y-99011501I0J249999D01*
G01*
X150520840Y-97711499D01*
G75*
G02*
X150770839Y-97461500I249999J0D01*
G01*
X151595841Y-97461500D01*
G75*
G02*
X151845840Y-97711499I0J-249999D01*
G01*
G37*
G36*
G01*
X148720840Y-97711499D02*
X148720840Y-99011501D01*
G75*
G02*
X148470841Y-99261500I-249999J0D01*
G01*
X147645839Y-99261500D01*
G75*
G02*
X147395840Y-99011501I0J249999D01*
G01*
X147395840Y-97711499D01*
G75*
G02*
X147645839Y-97461500I249999J0D01*
G01*
X148470841Y-97461500D01*
G75*
G02*
X148720840Y-97711499I0J-249999D01*
G01*
G37*
G36*
G01*
X123650780Y-99744440D02*
X123650780Y-100844440D01*
G75*
G02*
X123400780Y-101094440I-250000J0D01*
G01*
X120900780Y-101094440D01*
G75*
G02*
X120650780Y-100844440I0J250000D01*
G01*
X120650780Y-99744440D01*
G75*
G02*
X120900780Y-99494440I250000J0D01*
G01*
X123400780Y-99494440D01*
G75*
G02*
X123650780Y-99744440I0J-250000D01*
G01*
G37*
G36*
G01*
X128050780Y-99744440D02*
X128050780Y-100844440D01*
G75*
G02*
X127800780Y-101094440I-250000J0D01*
G01*
X125300780Y-101094440D01*
G75*
G02*
X125050780Y-100844440I0J250000D01*
G01*
X125050780Y-99744440D01*
G75*
G02*
X125300780Y-99494440I250000J0D01*
G01*
X127800780Y-99494440D01*
G75*
G02*
X128050780Y-99744440I0J-250000D01*
G01*
G37*
G36*
G01*
X129882440Y-104395280D02*
X129882440Y-103920280D01*
G75*
G02*
X130119940Y-103682780I237500J0D01*
G01*
X130719940Y-103682780D01*
G75*
G02*
X130957440Y-103920280I0J-237500D01*
G01*
X130957440Y-104395280D01*
G75*
G02*
X130719940Y-104632780I-237500J0D01*
G01*
X130119940Y-104632780D01*
G75*
G02*
X129882440Y-104395280I0J237500D01*
G01*
G37*
G36*
G01*
X131607440Y-104395280D02*
X131607440Y-103920280D01*
G75*
G02*
X131844940Y-103682780I237500J0D01*
G01*
X132444940Y-103682780D01*
G75*
G02*
X132682440Y-103920280I0J-237500D01*
G01*
X132682440Y-104395280D01*
G75*
G02*
X132444940Y-104632780I-237500J0D01*
G01*
X131844940Y-104632780D01*
G75*
G02*
X131607440Y-104395280I0J237500D01*
G01*
G37*
G36*
G01*
X130926960Y-105858300D02*
X130926960Y-106333300D01*
G75*
G02*
X130689460Y-106570800I-237500J0D01*
G01*
X130089460Y-106570800D01*
G75*
G02*
X129851960Y-106333300I0J237500D01*
G01*
X129851960Y-105858300D01*
G75*
G02*
X130089460Y-105620800I237500J0D01*
G01*
X130689460Y-105620800D01*
G75*
G02*
X130926960Y-105858300I0J-237500D01*
G01*
G37*
G36*
G01*
X132651960Y-105858300D02*
X132651960Y-106333300D01*
G75*
G02*
X132414460Y-106570800I-237500J0D01*
G01*
X131814460Y-106570800D01*
G75*
G02*
X131576960Y-106333300I0J237500D01*
G01*
X131576960Y-105858300D01*
G75*
G02*
X131814460Y-105620800I237500J0D01*
G01*
X132414460Y-105620800D01*
G75*
G02*
X132651960Y-105858300I0J-237500D01*
G01*
G37*
G36*
G01*
X159079440Y-89997300D02*
X159079440Y-89047300D01*
G75*
G02*
X159329440Y-88797300I250000J0D01*
G01*
X160004440Y-88797300D01*
G75*
G02*
X160254440Y-89047300I0J-250000D01*
G01*
X160254440Y-89997300D01*
G75*
G02*
X160004440Y-90247300I-250000J0D01*
G01*
X159329440Y-90247300D01*
G75*
G02*
X159079440Y-89997300I0J250000D01*
G01*
G37*
G36*
G01*
X157004440Y-89997300D02*
X157004440Y-89047300D01*
G75*
G02*
X157254440Y-88797300I250000J0D01*
G01*
X157929440Y-88797300D01*
G75*
G02*
X158179440Y-89047300I0J-250000D01*
G01*
X158179440Y-89997300D01*
G75*
G02*
X157929440Y-90247300I-250000J0D01*
G01*
X157254440Y-90247300D01*
G75*
G02*
X157004440Y-89997300I0J250000D01*
G01*
G37*
G36*
G01*
X165737080Y-95434160D02*
X165737080Y-94959160D01*
G75*
G02*
X165974580Y-94721660I237500J0D01*
G01*
X166574580Y-94721660D01*
G75*
G02*
X166812080Y-94959160I0J-237500D01*
G01*
X166812080Y-95434160D01*
G75*
G02*
X166574580Y-95671660I-237500J0D01*
G01*
X165974580Y-95671660D01*
G75*
G02*
X165737080Y-95434160I0J237500D01*
G01*
G37*
G36*
G01*
X167462080Y-95434160D02*
X167462080Y-94959160D01*
G75*
G02*
X167699580Y-94721660I237500J0D01*
G01*
X168299580Y-94721660D01*
G75*
G02*
X168537080Y-94959160I0J-237500D01*
G01*
X168537080Y-95434160D01*
G75*
G02*
X168299580Y-95671660I-237500J0D01*
G01*
X167699580Y-95671660D01*
G75*
G02*
X167462080Y-95434160I0J237500D01*
G01*
G37*
G36*
G01*
X166844140Y-103682619D02*
X166844140Y-105882621D01*
G75*
G02*
X166594141Y-106132620I-249999J0D01*
G01*
X165769139Y-106132620D01*
G75*
G02*
X165519140Y-105882621I0J249999D01*
G01*
X165519140Y-103682619D01*
G75*
G02*
X165769139Y-103432620I249999J0D01*
G01*
X166594141Y-103432620D01*
G75*
G02*
X166844140Y-103682619I0J-249999D01*
G01*
G37*
G36*
G01*
X169969140Y-103682619D02*
X169969140Y-105882621D01*
G75*
G02*
X169719141Y-106132620I-249999J0D01*
G01*
X168894139Y-106132620D01*
G75*
G02*
X168644140Y-105882621I0J249999D01*
G01*
X168644140Y-103682619D01*
G75*
G02*
X168894139Y-103432620I249999J0D01*
G01*
X169719141Y-103432620D01*
G75*
G02*
X169969140Y-103682619I0J-249999D01*
G01*
G37*
G36*
G01*
X154863981Y-89067600D02*
X152663979Y-89067600D01*
G75*
G02*
X152413980Y-88817601I0J249999D01*
G01*
X152413980Y-87992599D01*
G75*
G02*
X152663979Y-87742600I249999J0D01*
G01*
X154863981Y-87742600D01*
G75*
G02*
X155113980Y-87992599I0J-249999D01*
G01*
X155113980Y-88817601D01*
G75*
G02*
X154863981Y-89067600I-249999J0D01*
G01*
G37*
G36*
G01*
X154863981Y-85942600D02*
X152663979Y-85942600D01*
G75*
G02*
X152413980Y-85692601I0J249999D01*
G01*
X152413980Y-84867599D01*
G75*
G02*
X152663979Y-84617600I249999J0D01*
G01*
X154863981Y-84617600D01*
G75*
G02*
X155113980Y-84867599I0J-249999D01*
G01*
X155113980Y-85692601D01*
G75*
G02*
X154863981Y-85942600I-249999J0D01*
G01*
G37*
G36*
G01*
X170346640Y-93587742D02*
X170346640Y-88687738D01*
G75*
G02*
X170596638Y-88437740I249998J0D01*
G01*
X172071642Y-88437740D01*
G75*
G02*
X172321640Y-88687738I0J-249998D01*
G01*
X172321640Y-93587742D01*
G75*
G02*
X172071642Y-93837740I-249998J0D01*
G01*
X170596638Y-93837740D01*
G75*
G02*
X170346640Y-93587742I0J249998D01*
G01*
G37*
G36*
G01*
X165071640Y-93587742D02*
X165071640Y-88687738D01*
G75*
G02*
X165321638Y-88437740I249998J0D01*
G01*
X166796642Y-88437740D01*
G75*
G02*
X167046640Y-88687738I0J-249998D01*
G01*
X167046640Y-93587742D01*
G75*
G02*
X166796642Y-93837740I-249998J0D01*
G01*
X165321638Y-93837740D01*
G75*
G02*
X165071640Y-93587742I0J249998D01*
G01*
G37*
D13*
X148193300Y-87475060D03*
X150993300Y-87475060D03*
X140515800Y-105016300D03*
X137715800Y-105016300D03*
X166074900Y-101635560D03*
X168874900Y-101635560D03*
G36*
G01*
X142895741Y-86161460D02*
X141995739Y-86161460D01*
G75*
G02*
X141745740Y-85911461I0J249999D01*
G01*
X141745740Y-85261459D01*
G75*
G02*
X141995739Y-85011460I249999J0D01*
G01*
X142895741Y-85011460D01*
G75*
G02*
X143145740Y-85261459I0J-249999D01*
G01*
X143145740Y-85911461D01*
G75*
G02*
X142895741Y-86161460I-249999J0D01*
G01*
G37*
G36*
G01*
X142895741Y-88211460D02*
X141995739Y-88211460D01*
G75*
G02*
X141745740Y-87961461I0J249999D01*
G01*
X141745740Y-87311459D01*
G75*
G02*
X141995739Y-87061460I249999J0D01*
G01*
X142895741Y-87061460D01*
G75*
G02*
X143145740Y-87311459I0J-249999D01*
G01*
X143145740Y-87961461D01*
G75*
G02*
X142895741Y-88211460I-249999J0D01*
G01*
G37*
G36*
G01*
X141427620Y-109418541D02*
X141427620Y-108518539D01*
G75*
G02*
X141677619Y-108268540I249999J0D01*
G01*
X142327621Y-108268540D01*
G75*
G02*
X142577620Y-108518539I0J-249999D01*
G01*
X142577620Y-109418541D01*
G75*
G02*
X142327621Y-109668540I-249999J0D01*
G01*
X141677619Y-109668540D01*
G75*
G02*
X141427620Y-109418541I0J249999D01*
G01*
G37*
G36*
G01*
X139377620Y-109418541D02*
X139377620Y-108518539D01*
G75*
G02*
X139627619Y-108268540I249999J0D01*
G01*
X140277621Y-108268540D01*
G75*
G02*
X140527620Y-108518539I0J-249999D01*
G01*
X140527620Y-109418541D01*
G75*
G02*
X140277621Y-109668540I-249999J0D01*
G01*
X139627619Y-109668540D01*
G75*
G02*
X139377620Y-109418541I0J249999D01*
G01*
G37*
G36*
G01*
X172311481Y-100472040D02*
X171411479Y-100472040D01*
G75*
G02*
X171161480Y-100222041I0J249999D01*
G01*
X171161480Y-99572039D01*
G75*
G02*
X171411479Y-99322040I249999J0D01*
G01*
X172311481Y-99322040D01*
G75*
G02*
X172561480Y-99572039I0J-249999D01*
G01*
X172561480Y-100222041D01*
G75*
G02*
X172311481Y-100472040I-249999J0D01*
G01*
G37*
G36*
G01*
X172311481Y-98422040D02*
X171411479Y-98422040D01*
G75*
G02*
X171161480Y-98172041I0J249999D01*
G01*
X171161480Y-97522039D01*
G75*
G02*
X171411479Y-97272040I249999J0D01*
G01*
X172311481Y-97272040D01*
G75*
G02*
X172561480Y-97522039I0J-249999D01*
G01*
X172561480Y-98172041D01*
G75*
G02*
X172311481Y-98422040I-249999J0D01*
G01*
G37*
G36*
G01*
X121782420Y-94932079D02*
X121782420Y-95832081D01*
G75*
G02*
X121532421Y-96082080I-249999J0D01*
G01*
X120882419Y-96082080D01*
G75*
G02*
X120632420Y-95832081I0J249999D01*
G01*
X120632420Y-94932079D01*
G75*
G02*
X120882419Y-94682080I249999J0D01*
G01*
X121532421Y-94682080D01*
G75*
G02*
X121782420Y-94932079I0J-249999D01*
G01*
G37*
G36*
G01*
X123832420Y-94932079D02*
X123832420Y-95832081D01*
G75*
G02*
X123582421Y-96082080I-249999J0D01*
G01*
X122932419Y-96082080D01*
G75*
G02*
X122682420Y-95832081I0J249999D01*
G01*
X122682420Y-94932079D01*
G75*
G02*
X122932419Y-94682080I249999J0D01*
G01*
X123582421Y-94682080D01*
G75*
G02*
X123832420Y-94932079I0J-249999D01*
G01*
G37*
D14*
X113360200Y-86485141D03*
X113635201Y-110403640D03*
X179788139Y-110403640D03*
X179908200Y-86485141D03*
D11*
X115503960Y-95379540D03*
D10*
X115503960Y-100379540D03*
D11*
X135542020Y-89806780D03*
D10*
X130542020Y-89806780D03*
D11*
X177982880Y-101043740D03*
D10*
X177982880Y-96043740D03*
D15*
X148389340Y-95426980D03*
X148389340Y-89926980D03*
D16*
X163900300Y-102966520D03*
X158400300Y-102966520D03*
G36*
G01*
X134977719Y-105589600D02*
X135877721Y-105589600D01*
G75*
G02*
X136127720Y-105839599I0J-249999D01*
G01*
X136127720Y-106489601D01*
G75*
G02*
X135877721Y-106739600I-249999J0D01*
G01*
X134977719Y-106739600D01*
G75*
G02*
X134727720Y-106489601I0J249999D01*
G01*
X134727720Y-105839599D01*
G75*
G02*
X134977719Y-105589600I249999J0D01*
G01*
G37*
G36*
G01*
X134977719Y-103539600D02*
X135877721Y-103539600D01*
G75*
G02*
X136127720Y-103789599I0J-249999D01*
G01*
X136127720Y-104439601D01*
G75*
G02*
X135877721Y-104689600I-249999J0D01*
G01*
X134977719Y-104689600D01*
G75*
G02*
X134727720Y-104439601I0J249999D01*
G01*
X134727720Y-103789599D01*
G75*
G02*
X134977719Y-103539600I249999J0D01*
G01*
G37*
D17*
X154861260Y-102120880D03*
X153911260Y-99920880D03*
X155811260Y-99920880D03*
X125018760Y-95661660D03*
X126918760Y-95661660D03*
X125968760Y-93461660D03*
G36*
G01*
X155685440Y-98316201D02*
X155685440Y-97416199D01*
G75*
G02*
X155935439Y-97166200I249999J0D01*
G01*
X156635441Y-97166200D01*
G75*
G02*
X156885440Y-97416199I0J-249999D01*
G01*
X156885440Y-98316201D01*
G75*
G02*
X156635441Y-98566200I-249999J0D01*
G01*
X155935439Y-98566200D01*
G75*
G02*
X155685440Y-98316201I0J249999D01*
G01*
G37*
G36*
G01*
X153685440Y-98316201D02*
X153685440Y-97416199D01*
G75*
G02*
X153935439Y-97166200I249999J0D01*
G01*
X154635441Y-97166200D01*
G75*
G02*
X154885440Y-97416199I0J-249999D01*
G01*
X154885440Y-98316201D01*
G75*
G02*
X154635441Y-98566200I-249999J0D01*
G01*
X153935439Y-98566200D01*
G75*
G02*
X153685440Y-98316201I0J249999D01*
G01*
G37*
G36*
G01*
X126003100Y-104578999D02*
X126003100Y-105479001D01*
G75*
G02*
X125753101Y-105729000I-249999J0D01*
G01*
X125053099Y-105729000D01*
G75*
G02*
X124803100Y-105479001I0J249999D01*
G01*
X124803100Y-104578999D01*
G75*
G02*
X125053099Y-104329000I249999J0D01*
G01*
X125753101Y-104329000D01*
G75*
G02*
X126003100Y-104578999I0J-249999D01*
G01*
G37*
G36*
G01*
X128003100Y-104578999D02*
X128003100Y-105479001D01*
G75*
G02*
X127753101Y-105729000I-249999J0D01*
G01*
X127053099Y-105729000D01*
G75*
G02*
X126803100Y-105479001I0J249999D01*
G01*
X126803100Y-104578999D01*
G75*
G02*
X127053099Y-104329000I249999J0D01*
G01*
X127753101Y-104329000D01*
G75*
G02*
X128003100Y-104578999I0J-249999D01*
G01*
G37*
G36*
G01*
X123918780Y-104581539D02*
X123918780Y-105481541D01*
G75*
G02*
X123668781Y-105731540I-249999J0D01*
G01*
X122968779Y-105731540D01*
G75*
G02*
X122718780Y-105481541I0J249999D01*
G01*
X122718780Y-104581539D01*
G75*
G02*
X122968779Y-104331540I249999J0D01*
G01*
X123668781Y-104331540D01*
G75*
G02*
X123918780Y-104581539I0J-249999D01*
G01*
G37*
G36*
G01*
X121918780Y-104581539D02*
X121918780Y-105481541D01*
G75*
G02*
X121668781Y-105731540I-249999J0D01*
G01*
X120968779Y-105731540D01*
G75*
G02*
X120718780Y-105481541I0J249999D01*
G01*
X120718780Y-104581539D01*
G75*
G02*
X120968779Y-104331540I249999J0D01*
G01*
X121668781Y-104331540D01*
G75*
G02*
X121918780Y-104581539I0J-249999D01*
G01*
G37*
G36*
G01*
X169125479Y-96484640D02*
X170025481Y-96484640D01*
G75*
G02*
X170275480Y-96734639I0J-249999D01*
G01*
X170275480Y-97434641D01*
G75*
G02*
X170025481Y-97684640I-249999J0D01*
G01*
X169125479Y-97684640D01*
G75*
G02*
X168875480Y-97434641I0J249999D01*
G01*
X168875480Y-96734639D01*
G75*
G02*
X169125479Y-96484640I249999J0D01*
G01*
G37*
G36*
G01*
X169125479Y-98484640D02*
X170025481Y-98484640D01*
G75*
G02*
X170275480Y-98734639I0J-249999D01*
G01*
X170275480Y-99434641D01*
G75*
G02*
X170025481Y-99684640I-249999J0D01*
G01*
X169125479Y-99684640D01*
G75*
G02*
X168875480Y-99434641I0J249999D01*
G01*
X168875480Y-98734639D01*
G75*
G02*
X169125479Y-98484640I249999J0D01*
G01*
G37*
G36*
G01*
X166910599Y-98487180D02*
X167810601Y-98487180D01*
G75*
G02*
X168060600Y-98737179I0J-249999D01*
G01*
X168060600Y-99437181D01*
G75*
G02*
X167810601Y-99687180I-249999J0D01*
G01*
X166910599Y-99687180D01*
G75*
G02*
X166660600Y-99437181I0J249999D01*
G01*
X166660600Y-98737179D01*
G75*
G02*
X166910599Y-98487180I249999J0D01*
G01*
G37*
G36*
G01*
X166910599Y-96487180D02*
X167810601Y-96487180D01*
G75*
G02*
X168060600Y-96737179I0J-249999D01*
G01*
X168060600Y-97437181D01*
G75*
G02*
X167810601Y-97687180I-249999J0D01*
G01*
X166910599Y-97687180D01*
G75*
G02*
X166660600Y-97437181I0J249999D01*
G01*
X166660600Y-96737179D01*
G75*
G02*
X166910599Y-96487180I249999J0D01*
G01*
G37*
G36*
G01*
X159026300Y-92278621D02*
X159026300Y-91378619D01*
G75*
G02*
X159276299Y-91128620I249999J0D01*
G01*
X159976301Y-91128620D01*
G75*
G02*
X160226300Y-91378619I0J-249999D01*
G01*
X160226300Y-92278621D01*
G75*
G02*
X159976301Y-92528620I-249999J0D01*
G01*
X159276299Y-92528620D01*
G75*
G02*
X159026300Y-92278621I0J249999D01*
G01*
G37*
G36*
G01*
X157026300Y-92278621D02*
X157026300Y-91378619D01*
G75*
G02*
X157276299Y-91128620I249999J0D01*
G01*
X157976301Y-91128620D01*
G75*
G02*
X158226300Y-91378619I0J-249999D01*
G01*
X158226300Y-92278621D01*
G75*
G02*
X157976301Y-92528620I-249999J0D01*
G01*
X157276299Y-92528620D01*
G75*
G02*
X157026300Y-92278621I0J249999D01*
G01*
G37*
G36*
G01*
X160276340Y-86765979D02*
X160276340Y-87665981D01*
G75*
G02*
X160026341Y-87915980I-249999J0D01*
G01*
X159326339Y-87915980D01*
G75*
G02*
X159076340Y-87665981I0J249999D01*
G01*
X159076340Y-86765979D01*
G75*
G02*
X159326339Y-86515980I249999J0D01*
G01*
X160026341Y-86515980D01*
G75*
G02*
X160276340Y-86765979I0J-249999D01*
G01*
G37*
G36*
G01*
X158276340Y-86765979D02*
X158276340Y-87665981D01*
G75*
G02*
X158026341Y-87915980I-249999J0D01*
G01*
X157326339Y-87915980D01*
G75*
G02*
X157076340Y-87665981I0J249999D01*
G01*
X157076340Y-86765979D01*
G75*
G02*
X157326339Y-86515980I249999J0D01*
G01*
X158026341Y-86515980D01*
G75*
G02*
X158276340Y-86765979I0J-249999D01*
G01*
G37*
G36*
G01*
X167349220Y-107261239D02*
X167349220Y-108161241D01*
G75*
G02*
X167099221Y-108411240I-249999J0D01*
G01*
X166399219Y-108411240D01*
G75*
G02*
X166149220Y-108161241I0J249999D01*
G01*
X166149220Y-107261239D01*
G75*
G02*
X166399219Y-107011240I249999J0D01*
G01*
X167099221Y-107011240D01*
G75*
G02*
X167349220Y-107261239I0J-249999D01*
G01*
G37*
G36*
G01*
X169349220Y-107261239D02*
X169349220Y-108161241D01*
G75*
G02*
X169099221Y-108411240I-249999J0D01*
G01*
X168399219Y-108411240D01*
G75*
G02*
X168149220Y-108161241I0J249999D01*
G01*
X168149220Y-107261239D01*
G75*
G02*
X168399219Y-107011240I249999J0D01*
G01*
X169099221Y-107011240D01*
G75*
G02*
X169349220Y-107261239I0J-249999D01*
G01*
G37*
G36*
G01*
X135006739Y-95429878D02*
X135006739Y-96329880D01*
G75*
G02*
X134756740Y-96579879I-249999J0D01*
G01*
X134056738Y-96579879D01*
G75*
G02*
X133806739Y-96329880I0J249999D01*
G01*
X133806739Y-95429878D01*
G75*
G02*
X134056738Y-95179879I249999J0D01*
G01*
X134756740Y-95179879D01*
G75*
G02*
X135006739Y-95429878I0J-249999D01*
G01*
G37*
G36*
G01*
X137006739Y-95429878D02*
X137006739Y-96329880D01*
G75*
G02*
X136756740Y-96579879I-249999J0D01*
G01*
X136056738Y-96579879D01*
G75*
G02*
X135806739Y-96329880I0J249999D01*
G01*
X135806739Y-95429878D01*
G75*
G02*
X136056738Y-95179879I249999J0D01*
G01*
X136756740Y-95179879D01*
G75*
G02*
X137006739Y-95429878I0J-249999D01*
G01*
G37*
G36*
G01*
X132256739Y-95429878D02*
X132256739Y-96329880D01*
G75*
G02*
X132006740Y-96579879I-249999J0D01*
G01*
X131306738Y-96579879D01*
G75*
G02*
X131056739Y-96329880I0J249999D01*
G01*
X131056739Y-95429878D01*
G75*
G02*
X131306738Y-95179879I249999J0D01*
G01*
X132006740Y-95179879D01*
G75*
G02*
X132256739Y-95429878I0J-249999D01*
G01*
G37*
G36*
G01*
X130256739Y-95429878D02*
X130256739Y-96329880D01*
G75*
G02*
X130006740Y-96579879I-249999J0D01*
G01*
X129306738Y-96579879D01*
G75*
G02*
X129056739Y-96329880I0J249999D01*
G01*
X129056739Y-95429878D01*
G75*
G02*
X129306738Y-95179879I249999J0D01*
G01*
X130006740Y-95179879D01*
G75*
G02*
X130256739Y-95429878I0J-249999D01*
G01*
G37*
G36*
G01*
X151612400Y-84083739D02*
X151612400Y-84983741D01*
G75*
G02*
X151362401Y-85233740I-249999J0D01*
G01*
X150662399Y-85233740D01*
G75*
G02*
X150412400Y-84983741I0J249999D01*
G01*
X150412400Y-84083739D01*
G75*
G02*
X150662399Y-83833740I249999J0D01*
G01*
X151362401Y-83833740D01*
G75*
G02*
X151612400Y-84083739I0J-249999D01*
G01*
G37*
G36*
G01*
X149612400Y-84083739D02*
X149612400Y-84983741D01*
G75*
G02*
X149362401Y-85233740I-249999J0D01*
G01*
X148662399Y-85233740D01*
G75*
G02*
X148412400Y-84983741I0J249999D01*
G01*
X148412400Y-84083739D01*
G75*
G02*
X148662399Y-83833740I249999J0D01*
G01*
X149362401Y-83833740D01*
G75*
G02*
X149612400Y-84083739I0J-249999D01*
G01*
G37*
G36*
G01*
X142051619Y-91599460D02*
X142951621Y-91599460D01*
G75*
G02*
X143201620Y-91849459I0J-249999D01*
G01*
X143201620Y-92549461D01*
G75*
G02*
X142951621Y-92799460I-249999J0D01*
G01*
X142051619Y-92799460D01*
G75*
G02*
X141801620Y-92549461I0J249999D01*
G01*
X141801620Y-91849459D01*
G75*
G02*
X142051619Y-91599460I249999J0D01*
G01*
G37*
G36*
G01*
X142051619Y-89599460D02*
X142951621Y-89599460D01*
G75*
G02*
X143201620Y-89849459I0J-249999D01*
G01*
X143201620Y-90549461D01*
G75*
G02*
X142951621Y-90799460I-249999J0D01*
G01*
X142051619Y-90799460D01*
G75*
G02*
X141801620Y-90549461I0J249999D01*
G01*
X141801620Y-89849459D01*
G75*
G02*
X142051619Y-89599460I249999J0D01*
G01*
G37*
G36*
G01*
X137977680Y-108500759D02*
X137977680Y-109400761D01*
G75*
G02*
X137727681Y-109650760I-249999J0D01*
G01*
X137027679Y-109650760D01*
G75*
G02*
X136777680Y-109400761I0J249999D01*
G01*
X136777680Y-108500759D01*
G75*
G02*
X137027679Y-108250760I249999J0D01*
G01*
X137727681Y-108250760D01*
G75*
G02*
X137977680Y-108500759I0J-249999D01*
G01*
G37*
G36*
G01*
X135977680Y-108500759D02*
X135977680Y-109400761D01*
G75*
G02*
X135727681Y-109650760I-249999J0D01*
G01*
X135027679Y-109650760D01*
G75*
G02*
X134777680Y-109400761I0J249999D01*
G01*
X134777680Y-108500759D01*
G75*
G02*
X135027679Y-108250760I249999J0D01*
G01*
X135727681Y-108250760D01*
G75*
G02*
X135977680Y-108500759I0J-249999D01*
G01*
G37*
G36*
G01*
X171492759Y-102176780D02*
X172392761Y-102176780D01*
G75*
G02*
X172642760Y-102426779I0J-249999D01*
G01*
X172642760Y-103126781D01*
G75*
G02*
X172392761Y-103376780I-249999J0D01*
G01*
X171492759Y-103376780D01*
G75*
G02*
X171242760Y-103126781I0J249999D01*
G01*
X171242760Y-102426779D01*
G75*
G02*
X171492759Y-102176780I249999J0D01*
G01*
G37*
G36*
G01*
X171492759Y-104176780D02*
X172392761Y-104176780D01*
G75*
G02*
X172642760Y-104426779I0J-249999D01*
G01*
X172642760Y-105126781D01*
G75*
G02*
X172392761Y-105376780I-249999J0D01*
G01*
X171492759Y-105376780D01*
G75*
G02*
X171242760Y-105126781I0J249999D01*
G01*
X171242760Y-104426779D01*
G75*
G02*
X171492759Y-104176780I249999J0D01*
G01*
G37*
D18*
X130431560Y-102008940D03*
X130431560Y-100738940D03*
X130431560Y-99468940D03*
X130431560Y-98198940D03*
X135831560Y-98198940D03*
X135831560Y-99468940D03*
X135831560Y-100738940D03*
X135831560Y-102008940D03*
D19*
X133131560Y-100103940D03*
D20*
X161960560Y-95971360D03*
D21*
X160710560Y-94021360D03*
X161210560Y-94021360D03*
X161710560Y-94021360D03*
X162210560Y-94021360D03*
X162710560Y-94021360D03*
X163210560Y-94021360D03*
D22*
X163910560Y-94721360D03*
X163910560Y-95221360D03*
X163910560Y-95721360D03*
X163910560Y-96221360D03*
X163910560Y-96721360D03*
X163910560Y-97221360D03*
D21*
X163210560Y-97921360D03*
X162710560Y-97921360D03*
X162210560Y-97921360D03*
X161710560Y-97921360D03*
X161210560Y-97921360D03*
X160710560Y-97921360D03*
D22*
X160010560Y-97221360D03*
X160010560Y-96721360D03*
X160010560Y-96221360D03*
X160010560Y-95721360D03*
X160010560Y-95221360D03*
X160010560Y-94721360D03*
G36*
G01*
X163124300Y-91534000D02*
X163124300Y-90584000D01*
G75*
G02*
X163374300Y-90334000I250000J0D01*
G01*
X164049300Y-90334000D01*
G75*
G02*
X164299300Y-90584000I0J-250000D01*
G01*
X164299300Y-91534000D01*
G75*
G02*
X164049300Y-91784000I-250000J0D01*
G01*
X163374300Y-91784000D01*
G75*
G02*
X163124300Y-91534000I0J250000D01*
G01*
G37*
G36*
G01*
X161049300Y-91534000D02*
X161049300Y-90584000D01*
G75*
G02*
X161299300Y-90334000I250000J0D01*
G01*
X161974300Y-90334000D01*
G75*
G02*
X162224300Y-90584000I0J-250000D01*
G01*
X162224300Y-91534000D01*
G75*
G02*
X161974300Y-91784000I-250000J0D01*
G01*
X161299300Y-91784000D01*
G75*
G02*
X161049300Y-91534000I0J250000D01*
G01*
G37*
G36*
G01*
X155296060Y-92370900D02*
X155296060Y-92845900D01*
G75*
G02*
X155058560Y-93083400I-237500J0D01*
G01*
X154458560Y-93083400D01*
G75*
G02*
X154221060Y-92845900I0J237500D01*
G01*
X154221060Y-92370900D01*
G75*
G02*
X154458560Y-92133400I237500J0D01*
G01*
X155058560Y-92133400D01*
G75*
G02*
X155296060Y-92370900I0J-237500D01*
G01*
G37*
G36*
G01*
X153571060Y-92370900D02*
X153571060Y-92845900D01*
G75*
G02*
X153333560Y-93083400I-237500J0D01*
G01*
X152733560Y-93083400D01*
G75*
G02*
X152496060Y-92845900I0J237500D01*
G01*
X152496060Y-92370900D01*
G75*
G02*
X152733560Y-92133400I237500J0D01*
G01*
X153333560Y-92133400D01*
G75*
G02*
X153571060Y-92370900I0J-237500D01*
G01*
G37*
M02*
