G04 #@! TF.GenerationSoftware,KiCad,Pcbnew,(5.1.12)-1*
G04 #@! TF.CreationDate,2022-10-20T21:35:18-07:00*
G04 #@! TF.ProjectId,Fuente_de_poder,4675656e-7465-45f6-9465-5f706f646572,rev?*
G04 #@! TF.SameCoordinates,Original*
G04 #@! TF.FileFunction,Copper,L2,Bot*
G04 #@! TF.FilePolarity,Positive*
%FSLAX46Y46*%
G04 Gerber Fmt 4.6, Leading zero omitted, Abs format (unit mm)*
G04 Created by KiCad (PCBNEW (5.1.12)-1) date 2022-10-20 21:35:18*
%MOMM*%
%LPD*%
G01*
G04 APERTURE LIST*
G04 #@! TA.AperFunction,ComponentPad*
%ADD10C,2.600000*%
G04 #@! TD*
G04 #@! TA.AperFunction,ComponentPad*
%ADD11R,2.600000X2.600000*%
G04 #@! TD*
G04 #@! TA.AperFunction,ComponentPad*
%ADD12C,7.500000*%
G04 #@! TD*
G04 #@! TA.AperFunction,ComponentPad*
%ADD13C,0.600000*%
G04 #@! TD*
G04 #@! TA.AperFunction,SMDPad,CuDef*
%ADD14R,2.950000X4.500000*%
G04 #@! TD*
G04 #@! TA.AperFunction,ViaPad*
%ADD15C,0.800000*%
G04 #@! TD*
G04 #@! TA.AperFunction,Conductor*
%ADD16C,0.250000*%
G04 #@! TD*
G04 #@! TA.AperFunction,Conductor*
%ADD17C,0.254000*%
G04 #@! TD*
G04 #@! TA.AperFunction,Conductor*
%ADD18C,0.150000*%
G04 #@! TD*
G04 APERTURE END LIST*
D10*
X152518120Y-107734100D03*
D11*
X147518120Y-107734100D03*
D12*
X113360200Y-86485141D03*
X113635201Y-110403640D03*
X179788139Y-110403640D03*
X179908200Y-86485141D03*
D11*
X115503960Y-95379540D03*
D10*
X115503960Y-100379540D03*
D11*
X135542020Y-89806780D03*
D10*
X130542020Y-89806780D03*
D11*
X177982880Y-101043740D03*
D10*
X177982880Y-96043740D03*
D13*
X132531560Y-98303940D03*
X132531560Y-99403940D03*
X133731560Y-99403940D03*
X133731560Y-98303940D03*
X132531560Y-101903940D03*
X132531560Y-100703940D03*
X133731560Y-100703940D03*
X133731560Y-101903940D03*
D14*
X133131560Y-100103940D03*
D15*
X158668720Y-97038160D03*
X156512260Y-102440740D03*
X152024080Y-101681280D03*
X144531080Y-96723200D03*
X142557500Y-96774000D03*
X139654280Y-88419940D03*
X138770360Y-103068120D03*
X138696700Y-107035600D03*
X163723320Y-89590880D03*
X163634420Y-92748100D03*
X158724600Y-95486220D03*
X128816100Y-98876340D03*
X162560000Y-88900000D03*
X162560000Y-86360000D03*
X162560000Y-83820000D03*
X165100000Y-83820000D03*
X165100000Y-86360000D03*
X167640000Y-86360000D03*
X167640000Y-83820000D03*
X170180000Y-83820000D03*
X170180000Y-86360000D03*
X172720000Y-86360000D03*
X172720000Y-83820000D03*
X175260000Y-83820000D03*
X175260000Y-86360000D03*
X175260000Y-88900000D03*
X175260000Y-91440000D03*
X175260000Y-106680000D03*
X175260000Y-109220000D03*
X175260000Y-111760000D03*
X175260000Y-114300000D03*
X172720000Y-106680000D03*
X172720000Y-109220000D03*
X172720000Y-111760000D03*
X172720000Y-114300000D03*
X170180000Y-114300000D03*
X170180000Y-111760000D03*
X170180000Y-109220000D03*
X167640000Y-111760000D03*
X167640000Y-114300000D03*
X165100000Y-114300000D03*
X165100000Y-111760000D03*
X165100000Y-109220000D03*
X162560000Y-109220000D03*
X162560000Y-111760000D03*
X162560000Y-114300000D03*
X160020000Y-114300000D03*
X160020000Y-111760000D03*
X160020000Y-109220000D03*
X157480000Y-109220000D03*
X157480000Y-111760000D03*
X157480000Y-114300000D03*
X154940000Y-114300000D03*
X152400000Y-114300000D03*
X149860000Y-114300000D03*
X147320000Y-114300000D03*
X144780000Y-114300000D03*
X182880000Y-114300000D03*
X182880000Y-106680000D03*
X160020000Y-83820000D03*
X157480000Y-83820000D03*
X147320000Y-83820000D03*
X144780000Y-83820000D03*
X144780000Y-86360000D03*
X139700000Y-83820000D03*
X142240000Y-83820000D03*
X139700000Y-96520000D03*
X127000000Y-83820000D03*
X127000000Y-86360000D03*
X127000000Y-88900000D03*
X124460000Y-88900000D03*
X124460000Y-86360000D03*
X124460000Y-83820000D03*
X121920000Y-83820000D03*
X121920000Y-86360000D03*
X119380000Y-86360000D03*
X119380000Y-83820000D03*
X119380000Y-88900000D03*
X121920000Y-88900000D03*
X121920000Y-91440000D03*
X119380000Y-91440000D03*
X124460000Y-91440000D03*
X127000000Y-91440000D03*
X116840000Y-91440000D03*
X114300000Y-91440000D03*
X111760000Y-91440000D03*
X111760000Y-104140000D03*
X114300000Y-104140000D03*
X116840000Y-104140000D03*
X119380000Y-104140000D03*
X119380000Y-106680000D03*
X116840000Y-106680000D03*
X119380000Y-109220000D03*
X119380000Y-111760000D03*
X119380000Y-114300000D03*
X121920000Y-114300000D03*
X121920000Y-111760000D03*
X121920000Y-109220000D03*
X124460000Y-109220000D03*
X127000000Y-109220000D03*
X129540000Y-109220000D03*
X132080000Y-109220000D03*
X132080000Y-111760000D03*
X137160000Y-111760000D03*
X134620000Y-111760000D03*
X139700000Y-111760000D03*
X142240000Y-111760000D03*
X142240000Y-114300000D03*
X139700000Y-114300000D03*
X137160000Y-114300000D03*
X134620000Y-114300000D03*
X132080000Y-114300000D03*
X129540000Y-114300000D03*
X127000000Y-114300000D03*
X124460000Y-114300000D03*
X124460000Y-111760000D03*
X127000000Y-111760000D03*
X129540000Y-111760000D03*
X154940000Y-83820000D03*
X152400000Y-83820000D03*
X142240000Y-104140000D03*
X142240000Y-106680000D03*
X147320000Y-101600000D03*
X149860000Y-101600000D03*
X142240000Y-93980000D03*
X157642560Y-97652840D03*
X162115500Y-99070160D03*
X151015700Y-82649060D03*
X143583660Y-107741720D03*
X128069340Y-97683320D03*
X124355860Y-107096560D03*
D16*
X156512260Y-97710138D02*
X156512260Y-102440740D01*
X157584237Y-96638161D02*
X156512260Y-97710138D01*
X147066000Y-96723200D02*
X144531080Y-96723200D01*
X152024080Y-101681280D02*
X147066000Y-96723200D01*
X139654280Y-93870780D02*
X139654280Y-88419940D01*
X142557500Y-96774000D02*
X139654280Y-93870780D01*
X158268721Y-96638161D02*
X157584237Y-96638161D01*
X158668720Y-97038160D02*
X158268721Y-96638161D01*
X138770360Y-106961940D02*
X138696700Y-107035600D01*
X138770360Y-103068120D02*
X138770360Y-106961940D01*
X159059880Y-99070160D02*
X157642560Y-97652840D01*
X162115500Y-99070160D02*
X159059880Y-99070160D01*
X143583660Y-90081100D02*
X143583660Y-107741720D01*
X151015700Y-82649060D02*
X143583660Y-90081100D01*
X124355860Y-101396800D02*
X124355860Y-107096560D01*
X128069340Y-97683320D02*
X124355860Y-101396800D01*
D17*
X111716617Y-82396942D02*
X110950630Y-82796142D01*
X110874112Y-82847269D01*
X110447933Y-83393269D01*
X113360200Y-86305536D01*
X116272467Y-83393269D01*
X115846288Y-82847269D01*
X115088805Y-82432158D01*
X114332234Y-82194000D01*
X150083916Y-82194000D01*
X150020474Y-82347162D01*
X149980700Y-82547121D01*
X149980700Y-82609258D01*
X143072663Y-89517296D01*
X143043659Y-89541099D01*
X142988531Y-89608274D01*
X142948686Y-89656824D01*
X142895648Y-89756051D01*
X142878114Y-89788854D01*
X142834657Y-89932115D01*
X142823660Y-90043768D01*
X142823660Y-90043778D01*
X142819984Y-90081100D01*
X142823660Y-90118422D01*
X142823660Y-95771665D01*
X142659439Y-95739000D01*
X142597302Y-95739000D01*
X140414280Y-93555979D01*
X140414280Y-89123651D01*
X140458217Y-89079714D01*
X140571485Y-88910196D01*
X140649506Y-88721838D01*
X140689280Y-88521879D01*
X140689280Y-88318001D01*
X140649506Y-88118042D01*
X140571485Y-87929684D01*
X140458217Y-87760166D01*
X140314054Y-87616003D01*
X140144536Y-87502735D01*
X139956178Y-87424714D01*
X139756219Y-87384940D01*
X139552341Y-87384940D01*
X139352382Y-87424714D01*
X139164024Y-87502735D01*
X138994506Y-87616003D01*
X138850343Y-87760166D01*
X138737075Y-87929684D01*
X138659054Y-88118042D01*
X138619280Y-88318001D01*
X138619280Y-88521879D01*
X138659054Y-88721838D01*
X138737075Y-88910196D01*
X138850343Y-89079714D01*
X138894281Y-89123652D01*
X138894280Y-93833457D01*
X138890604Y-93870780D01*
X138894280Y-93908102D01*
X138894280Y-93908112D01*
X138905277Y-94019765D01*
X138948734Y-94163026D01*
X139019306Y-94295056D01*
X139059151Y-94343606D01*
X139114279Y-94410781D01*
X139143283Y-94434584D01*
X141522500Y-96813802D01*
X141522500Y-96875939D01*
X141562274Y-97075898D01*
X141640295Y-97264256D01*
X141753563Y-97433774D01*
X141897726Y-97577937D01*
X142067244Y-97691205D01*
X142255602Y-97769226D01*
X142455561Y-97809000D01*
X142659439Y-97809000D01*
X142823660Y-97776335D01*
X142823661Y-107038008D01*
X142779723Y-107081946D01*
X142666455Y-107251464D01*
X142588434Y-107439822D01*
X142548660Y-107639781D01*
X142548660Y-107843659D01*
X142588434Y-108043618D01*
X142666455Y-108231976D01*
X142779723Y-108401494D01*
X142923886Y-108545657D01*
X143093404Y-108658925D01*
X143281762Y-108736946D01*
X143481721Y-108776720D01*
X143685599Y-108776720D01*
X143885558Y-108736946D01*
X144073916Y-108658925D01*
X144243434Y-108545657D01*
X144387597Y-108401494D01*
X144500865Y-108231976D01*
X144578886Y-108043618D01*
X144618660Y-107843659D01*
X144618660Y-107639781D01*
X144578886Y-107439822D01*
X144500865Y-107251464D01*
X144387597Y-107081946D01*
X144343660Y-107038009D01*
X144343660Y-106434100D01*
X145580048Y-106434100D01*
X145580048Y-109034100D01*
X145592308Y-109158582D01*
X145628618Y-109278280D01*
X145687583Y-109388594D01*
X145766935Y-109485285D01*
X145863626Y-109564637D01*
X145973940Y-109623602D01*
X146093638Y-109659912D01*
X146218120Y-109672172D01*
X148818120Y-109672172D01*
X148942602Y-109659912D01*
X149062300Y-109623602D01*
X149172614Y-109564637D01*
X149269305Y-109485285D01*
X149348657Y-109388594D01*
X149407622Y-109278280D01*
X149443932Y-109158582D01*
X149451344Y-109083324D01*
X151348501Y-109083324D01*
X151480437Y-109378412D01*
X151821165Y-109549259D01*
X152188677Y-109650350D01*
X152568849Y-109677801D01*
X152947071Y-109630557D01*
X153308810Y-109510433D01*
X153555803Y-109378412D01*
X153687739Y-109083324D01*
X152518120Y-107913705D01*
X151348501Y-109083324D01*
X149451344Y-109083324D01*
X149456192Y-109034100D01*
X149456192Y-107784829D01*
X150574419Y-107784829D01*
X150621663Y-108163051D01*
X150741787Y-108524790D01*
X150873808Y-108771783D01*
X151168896Y-108903719D01*
X152338515Y-107734100D01*
X152697725Y-107734100D01*
X153867344Y-108903719D01*
X154162432Y-108771783D01*
X154333279Y-108431055D01*
X154434370Y-108063543D01*
X154461821Y-107683371D01*
X154415404Y-107311768D01*
X176875872Y-107311768D01*
X179788139Y-110224035D01*
X182700406Y-107311768D01*
X182274227Y-106765768D01*
X181516744Y-106350657D01*
X180692832Y-106091301D01*
X179834153Y-105997664D01*
X178973705Y-106073347D01*
X178144556Y-106315441D01*
X177378569Y-106714641D01*
X177302051Y-106765768D01*
X176875872Y-107311768D01*
X154415404Y-107311768D01*
X154414577Y-107305149D01*
X154294453Y-106943410D01*
X154162432Y-106696417D01*
X153867344Y-106564481D01*
X152697725Y-107734100D01*
X152338515Y-107734100D01*
X151168896Y-106564481D01*
X150873808Y-106696417D01*
X150702961Y-107037145D01*
X150601870Y-107404657D01*
X150574419Y-107784829D01*
X149456192Y-107784829D01*
X149456192Y-106434100D01*
X149451345Y-106384876D01*
X151348501Y-106384876D01*
X152518120Y-107554495D01*
X153687739Y-106384876D01*
X153555803Y-106089788D01*
X153215075Y-105918941D01*
X152847563Y-105817850D01*
X152467391Y-105790399D01*
X152089169Y-105837643D01*
X151727430Y-105957767D01*
X151480437Y-106089788D01*
X151348501Y-106384876D01*
X149451345Y-106384876D01*
X149443932Y-106309618D01*
X149407622Y-106189920D01*
X149348657Y-106079606D01*
X149269305Y-105982915D01*
X149172614Y-105903563D01*
X149062300Y-105844598D01*
X148942602Y-105808288D01*
X148818120Y-105796028D01*
X146218120Y-105796028D01*
X146093638Y-105808288D01*
X145973940Y-105844598D01*
X145863626Y-105903563D01*
X145766935Y-105982915D01*
X145687583Y-106079606D01*
X145628618Y-106189920D01*
X145592308Y-106309618D01*
X145580048Y-106434100D01*
X144343660Y-106434100D01*
X144343660Y-97741197D01*
X144429141Y-97758200D01*
X144633019Y-97758200D01*
X144832978Y-97718426D01*
X145021336Y-97640405D01*
X145190854Y-97527137D01*
X145234791Y-97483200D01*
X146751199Y-97483200D01*
X150989080Y-101721082D01*
X150989080Y-101783219D01*
X151028854Y-101983178D01*
X151106875Y-102171536D01*
X151220143Y-102341054D01*
X151364306Y-102485217D01*
X151533824Y-102598485D01*
X151722182Y-102676506D01*
X151922141Y-102716280D01*
X152126019Y-102716280D01*
X152325978Y-102676506D01*
X152514336Y-102598485D01*
X152683854Y-102485217D01*
X152828017Y-102341054D01*
X152829522Y-102338801D01*
X155477260Y-102338801D01*
X155477260Y-102542679D01*
X155517034Y-102742638D01*
X155595055Y-102930996D01*
X155708323Y-103100514D01*
X155852486Y-103244677D01*
X156022004Y-103357945D01*
X156210362Y-103435966D01*
X156410321Y-103475740D01*
X156614199Y-103475740D01*
X156814158Y-103435966D01*
X157002516Y-103357945D01*
X157172034Y-103244677D01*
X157316197Y-103100514D01*
X157429465Y-102930996D01*
X157507486Y-102742638D01*
X157547260Y-102542679D01*
X157547260Y-102338801D01*
X157507486Y-102138842D01*
X157429465Y-101950484D01*
X157316197Y-101780966D01*
X157272260Y-101737029D01*
X157272260Y-98619733D01*
X157340662Y-98648066D01*
X157540621Y-98687840D01*
X157602759Y-98687840D01*
X158496081Y-99581163D01*
X158519879Y-99610161D01*
X158635604Y-99705134D01*
X158767633Y-99775706D01*
X158910894Y-99819163D01*
X159022547Y-99830160D01*
X159022556Y-99830160D01*
X159059879Y-99833836D01*
X159097202Y-99830160D01*
X161411789Y-99830160D01*
X161455726Y-99874097D01*
X161625244Y-99987365D01*
X161813602Y-100065386D01*
X162013561Y-100105160D01*
X162217439Y-100105160D01*
X162417398Y-100065386D01*
X162605756Y-99987365D01*
X162775274Y-99874097D01*
X162905631Y-99743740D01*
X176044808Y-99743740D01*
X176044808Y-102343740D01*
X176057068Y-102468222D01*
X176093378Y-102587920D01*
X176152343Y-102698234D01*
X176231695Y-102794925D01*
X176328386Y-102874277D01*
X176438700Y-102933242D01*
X176558398Y-102969552D01*
X176682880Y-102981812D01*
X179282880Y-102981812D01*
X179407362Y-102969552D01*
X179527060Y-102933242D01*
X179637374Y-102874277D01*
X179734065Y-102794925D01*
X179813417Y-102698234D01*
X179872382Y-102587920D01*
X179908692Y-102468222D01*
X179920952Y-102343740D01*
X179920952Y-99743740D01*
X179908692Y-99619258D01*
X179872382Y-99499560D01*
X179813417Y-99389246D01*
X179734065Y-99292555D01*
X179637374Y-99213203D01*
X179527060Y-99154238D01*
X179407362Y-99117928D01*
X179282880Y-99105668D01*
X176682880Y-99105668D01*
X176558398Y-99117928D01*
X176438700Y-99154238D01*
X176328386Y-99213203D01*
X176231695Y-99292555D01*
X176152343Y-99389246D01*
X176093378Y-99499560D01*
X176057068Y-99619258D01*
X176044808Y-99743740D01*
X162905631Y-99743740D01*
X162919437Y-99729934D01*
X163032705Y-99560416D01*
X163110726Y-99372058D01*
X163150500Y-99172099D01*
X163150500Y-98968221D01*
X163110726Y-98768262D01*
X163032705Y-98579904D01*
X162919437Y-98410386D01*
X162775274Y-98266223D01*
X162605756Y-98152955D01*
X162417398Y-98074934D01*
X162217439Y-98035160D01*
X162013561Y-98035160D01*
X161813602Y-98074934D01*
X161625244Y-98152955D01*
X161455726Y-98266223D01*
X161411789Y-98310160D01*
X159374682Y-98310160D01*
X159060625Y-97996104D01*
X159158976Y-97955365D01*
X159328494Y-97842097D01*
X159472657Y-97697934D01*
X159585925Y-97528416D01*
X159642031Y-97392964D01*
X176813261Y-97392964D01*
X176945197Y-97688052D01*
X177285925Y-97858899D01*
X177653437Y-97959990D01*
X178033609Y-97987441D01*
X178411831Y-97940197D01*
X178773570Y-97820073D01*
X179020563Y-97688052D01*
X179152499Y-97392964D01*
X177982880Y-96223345D01*
X176813261Y-97392964D01*
X159642031Y-97392964D01*
X159663946Y-97340058D01*
X159703720Y-97140099D01*
X159703720Y-96936221D01*
X159663946Y-96736262D01*
X159585925Y-96547904D01*
X159472657Y-96378386D01*
X159328494Y-96234223D01*
X159158976Y-96120955D01*
X159095034Y-96094469D01*
X176039179Y-96094469D01*
X176086423Y-96472691D01*
X176206547Y-96834430D01*
X176338568Y-97081423D01*
X176633656Y-97213359D01*
X177803275Y-96043740D01*
X178162485Y-96043740D01*
X179332104Y-97213359D01*
X179627192Y-97081423D01*
X179798039Y-96740695D01*
X179899130Y-96373183D01*
X179926581Y-95993011D01*
X179879337Y-95614789D01*
X179759213Y-95253050D01*
X179627192Y-95006057D01*
X179332104Y-94874121D01*
X178162485Y-96043740D01*
X177803275Y-96043740D01*
X176633656Y-94874121D01*
X176338568Y-95006057D01*
X176167721Y-95346785D01*
X176066630Y-95714297D01*
X176039179Y-96094469D01*
X159095034Y-96094469D01*
X158970618Y-96042934D01*
X158770659Y-96003160D01*
X158692946Y-96003160D01*
X158560968Y-95932615D01*
X158417707Y-95889158D01*
X158306054Y-95878161D01*
X158306043Y-95878161D01*
X158268721Y-95874485D01*
X158231399Y-95878161D01*
X157621559Y-95878161D01*
X157584236Y-95874485D01*
X157546913Y-95878161D01*
X157546904Y-95878161D01*
X157435251Y-95889158D01*
X157291990Y-95932615D01*
X157159961Y-96003187D01*
X157159959Y-96003188D01*
X157159960Y-96003188D01*
X157073233Y-96074362D01*
X157073229Y-96074366D01*
X157044236Y-96098160D01*
X157020442Y-96127153D01*
X156001262Y-97146335D01*
X155972259Y-97170137D01*
X155924310Y-97228564D01*
X155877286Y-97285862D01*
X155846367Y-97343707D01*
X155806714Y-97417892D01*
X155763257Y-97561153D01*
X155752260Y-97672806D01*
X155752260Y-97672816D01*
X155748584Y-97710138D01*
X155752260Y-97747461D01*
X155752261Y-101737028D01*
X155708323Y-101780966D01*
X155595055Y-101950484D01*
X155517034Y-102138842D01*
X155477260Y-102338801D01*
X152829522Y-102338801D01*
X152941285Y-102171536D01*
X153019306Y-101983178D01*
X153059080Y-101783219D01*
X153059080Y-101579341D01*
X153019306Y-101379382D01*
X152941285Y-101191024D01*
X152828017Y-101021506D01*
X152683854Y-100877343D01*
X152514336Y-100764075D01*
X152325978Y-100686054D01*
X152126019Y-100646280D01*
X152063882Y-100646280D01*
X147629804Y-96212203D01*
X147606001Y-96183199D01*
X147490276Y-96088226D01*
X147358247Y-96017654D01*
X147214986Y-95974197D01*
X147103333Y-95963200D01*
X147103322Y-95963200D01*
X147066000Y-95959524D01*
X147028678Y-95963200D01*
X145234791Y-95963200D01*
X145190854Y-95919263D01*
X145021336Y-95805995D01*
X144832978Y-95727974D01*
X144633019Y-95688200D01*
X144429141Y-95688200D01*
X144343660Y-95705203D01*
X144343660Y-94694516D01*
X176813261Y-94694516D01*
X177982880Y-95864135D01*
X179152499Y-94694516D01*
X179020563Y-94399428D01*
X178679835Y-94228581D01*
X178312323Y-94127490D01*
X177932151Y-94100039D01*
X177553929Y-94147283D01*
X177192190Y-94267407D01*
X176945197Y-94399428D01*
X176813261Y-94694516D01*
X144343660Y-94694516D01*
X144343660Y-90395901D01*
X145162548Y-89577013D01*
X176995933Y-89577013D01*
X177422112Y-90123013D01*
X178179595Y-90538124D01*
X179003507Y-90797480D01*
X179862186Y-90891117D01*
X180722634Y-90815434D01*
X181551783Y-90573340D01*
X182317770Y-90174140D01*
X182394288Y-90123013D01*
X182820467Y-89577013D01*
X179908200Y-86664746D01*
X176995933Y-89577013D01*
X145162548Y-89577013D01*
X148300434Y-86439127D01*
X175502224Y-86439127D01*
X175577907Y-87299575D01*
X175820001Y-88128724D01*
X176219201Y-88894711D01*
X176270328Y-88971229D01*
X176816328Y-89397408D01*
X179728595Y-86485141D01*
X176816328Y-83572874D01*
X176270328Y-83999053D01*
X175855217Y-84756536D01*
X175595861Y-85580448D01*
X175502224Y-86439127D01*
X148300434Y-86439127D01*
X151055502Y-83684060D01*
X151117639Y-83684060D01*
X151317598Y-83644286D01*
X151505956Y-83566265D01*
X151675474Y-83452997D01*
X151819637Y-83308834D01*
X151932905Y-83139316D01*
X152010926Y-82950958D01*
X152050700Y-82750999D01*
X152050700Y-82547121D01*
X152010926Y-82347162D01*
X151947484Y-82194000D01*
X178959674Y-82194000D01*
X178264617Y-82396942D01*
X177498630Y-82796142D01*
X177422112Y-82847269D01*
X176995933Y-83393269D01*
X179908200Y-86305536D01*
X182820467Y-83393269D01*
X182394288Y-82847269D01*
X181636805Y-82432158D01*
X180880234Y-82194000D01*
X183998001Y-82194000D01*
X183998001Y-84847044D01*
X183996399Y-84841558D01*
X183597199Y-84075571D01*
X183546072Y-83999053D01*
X183000072Y-83572874D01*
X180087805Y-86485141D01*
X183000072Y-89397408D01*
X183546072Y-88971229D01*
X183961183Y-88213746D01*
X183998001Y-88096785D01*
X183998000Y-109176738D01*
X183876338Y-108760057D01*
X183477138Y-107994070D01*
X183426011Y-107917552D01*
X182880011Y-107491373D01*
X179967744Y-110403640D01*
X182880011Y-113315907D01*
X183426011Y-112889728D01*
X183841122Y-112132245D01*
X183998000Y-111633881D01*
X183998000Y-114910000D01*
X109626000Y-114910000D01*
X109626000Y-113495512D01*
X110722934Y-113495512D01*
X111149113Y-114041512D01*
X111906596Y-114456623D01*
X112730508Y-114715979D01*
X113589187Y-114809616D01*
X114449635Y-114733933D01*
X115278784Y-114491839D01*
X116044771Y-114092639D01*
X116121289Y-114041512D01*
X116547468Y-113495512D01*
X176875872Y-113495512D01*
X177302051Y-114041512D01*
X178059534Y-114456623D01*
X178883446Y-114715979D01*
X179742125Y-114809616D01*
X180602573Y-114733933D01*
X181431722Y-114491839D01*
X182197709Y-114092639D01*
X182274227Y-114041512D01*
X182700406Y-113495512D01*
X179788139Y-110583245D01*
X176875872Y-113495512D01*
X116547468Y-113495512D01*
X113635201Y-110583245D01*
X110722934Y-113495512D01*
X109626000Y-113495512D01*
X109626000Y-112198805D01*
X109946202Y-112813210D01*
X109997329Y-112889728D01*
X110543329Y-113315907D01*
X113455596Y-110403640D01*
X113814806Y-110403640D01*
X116727073Y-113315907D01*
X117273073Y-112889728D01*
X117688184Y-112132245D01*
X117947540Y-111308333D01*
X118041177Y-110449654D01*
X118033083Y-110357626D01*
X175382163Y-110357626D01*
X175457846Y-111218074D01*
X175699940Y-112047223D01*
X176099140Y-112813210D01*
X176150267Y-112889728D01*
X176696267Y-113315907D01*
X179608534Y-110403640D01*
X176696267Y-107491373D01*
X176150267Y-107917552D01*
X175735156Y-108675035D01*
X175475800Y-109498947D01*
X175382163Y-110357626D01*
X118033083Y-110357626D01*
X117965494Y-109589206D01*
X117723400Y-108760057D01*
X117324200Y-107994070D01*
X117273073Y-107917552D01*
X116727073Y-107491373D01*
X113814806Y-110403640D01*
X113455596Y-110403640D01*
X110543329Y-107491373D01*
X109997329Y-107917552D01*
X109626000Y-108595143D01*
X109626000Y-107311768D01*
X110722934Y-107311768D01*
X113635201Y-110224035D01*
X116547468Y-107311768D01*
X116299920Y-106994621D01*
X123320860Y-106994621D01*
X123320860Y-107198499D01*
X123360634Y-107398458D01*
X123438655Y-107586816D01*
X123551923Y-107756334D01*
X123696086Y-107900497D01*
X123865604Y-108013765D01*
X124053962Y-108091786D01*
X124253921Y-108131560D01*
X124457799Y-108131560D01*
X124657758Y-108091786D01*
X124846116Y-108013765D01*
X125015634Y-107900497D01*
X125159797Y-107756334D01*
X125273065Y-107586816D01*
X125351086Y-107398458D01*
X125390860Y-107198499D01*
X125390860Y-106994621D01*
X125378735Y-106933661D01*
X137661700Y-106933661D01*
X137661700Y-107137539D01*
X137701474Y-107337498D01*
X137779495Y-107525856D01*
X137892763Y-107695374D01*
X138036926Y-107839537D01*
X138206444Y-107952805D01*
X138394802Y-108030826D01*
X138594761Y-108070600D01*
X138798639Y-108070600D01*
X138998598Y-108030826D01*
X139186956Y-107952805D01*
X139356474Y-107839537D01*
X139500637Y-107695374D01*
X139613905Y-107525856D01*
X139691926Y-107337498D01*
X139731700Y-107137539D01*
X139731700Y-106933661D01*
X139691926Y-106733702D01*
X139613905Y-106545344D01*
X139530360Y-106420310D01*
X139530360Y-103771831D01*
X139574297Y-103727894D01*
X139687565Y-103558376D01*
X139765586Y-103370018D01*
X139805360Y-103170059D01*
X139805360Y-102966181D01*
X139765586Y-102766222D01*
X139687565Y-102577864D01*
X139574297Y-102408346D01*
X139430134Y-102264183D01*
X139260616Y-102150915D01*
X139072258Y-102072894D01*
X138872299Y-102033120D01*
X138668421Y-102033120D01*
X138468462Y-102072894D01*
X138280104Y-102150915D01*
X138110586Y-102264183D01*
X137966423Y-102408346D01*
X137853155Y-102577864D01*
X137775134Y-102766222D01*
X137735360Y-102966181D01*
X137735360Y-103170059D01*
X137775134Y-103370018D01*
X137853155Y-103558376D01*
X137966423Y-103727894D01*
X138010360Y-103771831D01*
X138010361Y-106258228D01*
X137892763Y-106375826D01*
X137779495Y-106545344D01*
X137701474Y-106733702D01*
X137661700Y-106933661D01*
X125378735Y-106933661D01*
X125351086Y-106794662D01*
X125273065Y-106606304D01*
X125159797Y-106436786D01*
X125115860Y-106392849D01*
X125115860Y-101711601D01*
X128109142Y-98718320D01*
X128171279Y-98718320D01*
X128371238Y-98678546D01*
X128559596Y-98600525D01*
X128729114Y-98487257D01*
X128873277Y-98343094D01*
X128986545Y-98173576D01*
X129064566Y-97985218D01*
X129090678Y-97853940D01*
X131018488Y-97853940D01*
X131021560Y-99818190D01*
X131180310Y-99976940D01*
X132081654Y-99976940D01*
X132078403Y-100036702D01*
X132076624Y-100038481D01*
X132077465Y-100053940D01*
X132076624Y-100069399D01*
X132078403Y-100071178D01*
X132087093Y-100230940D01*
X131180310Y-100230940D01*
X131021560Y-100389690D01*
X131018488Y-102353940D01*
X131030748Y-102478422D01*
X131067058Y-102598120D01*
X131126023Y-102708434D01*
X131205375Y-102805125D01*
X131302066Y-102884477D01*
X131412380Y-102943442D01*
X131532078Y-102979752D01*
X131656560Y-102992012D01*
X132845810Y-102988940D01*
X133004560Y-102830190D01*
X133004560Y-102353846D01*
X133097019Y-102358876D01*
X133131560Y-102324335D01*
X133166101Y-102358876D01*
X133258560Y-102353846D01*
X133258560Y-102830190D01*
X133417310Y-102988940D01*
X134606560Y-102992012D01*
X134731042Y-102979752D01*
X134850740Y-102943442D01*
X134961054Y-102884477D01*
X135057745Y-102805125D01*
X135137097Y-102708434D01*
X135196062Y-102598120D01*
X135232372Y-102478422D01*
X135244632Y-102353940D01*
X135241560Y-100389690D01*
X135082810Y-100230940D01*
X134176027Y-100230940D01*
X134184717Y-100071178D01*
X134186496Y-100069399D01*
X134185655Y-100053940D01*
X134186496Y-100038481D01*
X134184717Y-100036702D01*
X134181466Y-99976940D01*
X135082810Y-99976940D01*
X135241560Y-99818190D01*
X135244632Y-97853940D01*
X135232372Y-97729458D01*
X135196062Y-97609760D01*
X135137097Y-97499446D01*
X135057745Y-97402755D01*
X134961054Y-97323403D01*
X134850740Y-97264438D01*
X134731042Y-97228128D01*
X134606560Y-97215868D01*
X133417310Y-97218940D01*
X133258560Y-97377690D01*
X133258560Y-97854034D01*
X133166101Y-97849004D01*
X133131560Y-97883545D01*
X133097019Y-97849004D01*
X133004560Y-97854034D01*
X133004560Y-97377690D01*
X132845810Y-97218940D01*
X131656560Y-97215868D01*
X131532078Y-97228128D01*
X131412380Y-97264438D01*
X131302066Y-97323403D01*
X131205375Y-97402755D01*
X131126023Y-97499446D01*
X131067058Y-97609760D01*
X131030748Y-97729458D01*
X131018488Y-97853940D01*
X129090678Y-97853940D01*
X129104340Y-97785259D01*
X129104340Y-97581381D01*
X129064566Y-97381422D01*
X128986545Y-97193064D01*
X128873277Y-97023546D01*
X128729114Y-96879383D01*
X128559596Y-96766115D01*
X128371238Y-96688094D01*
X128171279Y-96648320D01*
X127967401Y-96648320D01*
X127767442Y-96688094D01*
X127579084Y-96766115D01*
X127409566Y-96879383D01*
X127265403Y-97023546D01*
X127152135Y-97193064D01*
X127074114Y-97381422D01*
X127034340Y-97581381D01*
X127034340Y-97643518D01*
X123844863Y-100832996D01*
X123815859Y-100856799D01*
X123760731Y-100923974D01*
X123720886Y-100972524D01*
X123666361Y-101074532D01*
X123650314Y-101104554D01*
X123606857Y-101247815D01*
X123595860Y-101359468D01*
X123595860Y-101359478D01*
X123592184Y-101396800D01*
X123595860Y-101434123D01*
X123595861Y-106392848D01*
X123551923Y-106436786D01*
X123438655Y-106606304D01*
X123360634Y-106794662D01*
X123320860Y-106994621D01*
X116299920Y-106994621D01*
X116121289Y-106765768D01*
X115363806Y-106350657D01*
X114539894Y-106091301D01*
X113681215Y-105997664D01*
X112820767Y-106073347D01*
X111991618Y-106315441D01*
X111225631Y-106714641D01*
X111149113Y-106765768D01*
X110722934Y-107311768D01*
X109626000Y-107311768D01*
X109626000Y-101728764D01*
X114334341Y-101728764D01*
X114466277Y-102023852D01*
X114807005Y-102194699D01*
X115174517Y-102295790D01*
X115554689Y-102323241D01*
X115932911Y-102275997D01*
X116294650Y-102155873D01*
X116541643Y-102023852D01*
X116673579Y-101728764D01*
X115503960Y-100559145D01*
X114334341Y-101728764D01*
X109626000Y-101728764D01*
X109626000Y-100430269D01*
X113560259Y-100430269D01*
X113607503Y-100808491D01*
X113727627Y-101170230D01*
X113859648Y-101417223D01*
X114154736Y-101549159D01*
X115324355Y-100379540D01*
X115683565Y-100379540D01*
X116853184Y-101549159D01*
X117148272Y-101417223D01*
X117319119Y-101076495D01*
X117420210Y-100708983D01*
X117447661Y-100328811D01*
X117400417Y-99950589D01*
X117280293Y-99588850D01*
X117148272Y-99341857D01*
X116853184Y-99209921D01*
X115683565Y-100379540D01*
X115324355Y-100379540D01*
X114154736Y-99209921D01*
X113859648Y-99341857D01*
X113688801Y-99682585D01*
X113587710Y-100050097D01*
X113560259Y-100430269D01*
X109626000Y-100430269D01*
X109626000Y-99030316D01*
X114334341Y-99030316D01*
X115503960Y-100199935D01*
X116673579Y-99030316D01*
X116541643Y-98735228D01*
X116200915Y-98564381D01*
X115833403Y-98463290D01*
X115453231Y-98435839D01*
X115075009Y-98483083D01*
X114713270Y-98603207D01*
X114466277Y-98735228D01*
X114334341Y-99030316D01*
X109626000Y-99030316D01*
X109626000Y-94079540D01*
X113565888Y-94079540D01*
X113565888Y-96679540D01*
X113578148Y-96804022D01*
X113614458Y-96923720D01*
X113673423Y-97034034D01*
X113752775Y-97130725D01*
X113849466Y-97210077D01*
X113959780Y-97269042D01*
X114079478Y-97305352D01*
X114203960Y-97317612D01*
X116803960Y-97317612D01*
X116928442Y-97305352D01*
X117048140Y-97269042D01*
X117158454Y-97210077D01*
X117255145Y-97130725D01*
X117334497Y-97034034D01*
X117393462Y-96923720D01*
X117429772Y-96804022D01*
X117442032Y-96679540D01*
X117442032Y-94079540D01*
X117429772Y-93955058D01*
X117393462Y-93835360D01*
X117334497Y-93725046D01*
X117255145Y-93628355D01*
X117158454Y-93549003D01*
X117048140Y-93490038D01*
X116928442Y-93453728D01*
X116803960Y-93441468D01*
X114203960Y-93441468D01*
X114079478Y-93453728D01*
X113959780Y-93490038D01*
X113849466Y-93549003D01*
X113752775Y-93628355D01*
X113673423Y-93725046D01*
X113614458Y-93835360D01*
X113578148Y-93955058D01*
X113565888Y-94079540D01*
X109626000Y-94079540D01*
X109626000Y-91156004D01*
X129372401Y-91156004D01*
X129504337Y-91451092D01*
X129845065Y-91621939D01*
X130212577Y-91723030D01*
X130592749Y-91750481D01*
X130970971Y-91703237D01*
X131332710Y-91583113D01*
X131579703Y-91451092D01*
X131711639Y-91156004D01*
X130542020Y-89986385D01*
X129372401Y-91156004D01*
X109626000Y-91156004D01*
X109626000Y-89577013D01*
X110447933Y-89577013D01*
X110874112Y-90123013D01*
X111631595Y-90538124D01*
X112455507Y-90797480D01*
X113314186Y-90891117D01*
X114174634Y-90815434D01*
X115003783Y-90573340D01*
X115769770Y-90174140D01*
X115846288Y-90123013D01*
X116053526Y-89857509D01*
X128598319Y-89857509D01*
X128645563Y-90235731D01*
X128765687Y-90597470D01*
X128897708Y-90844463D01*
X129192796Y-90976399D01*
X130362415Y-89806780D01*
X130721625Y-89806780D01*
X131891244Y-90976399D01*
X132186332Y-90844463D01*
X132357179Y-90503735D01*
X132458270Y-90136223D01*
X132485721Y-89756051D01*
X132438477Y-89377829D01*
X132318353Y-89016090D01*
X132186332Y-88769097D01*
X131891244Y-88637161D01*
X130721625Y-89806780D01*
X130362415Y-89806780D01*
X129192796Y-88637161D01*
X128897708Y-88769097D01*
X128726861Y-89109825D01*
X128625770Y-89477337D01*
X128598319Y-89857509D01*
X116053526Y-89857509D01*
X116272467Y-89577013D01*
X113360200Y-86664746D01*
X110447933Y-89577013D01*
X109626000Y-89577013D01*
X109626000Y-88807979D01*
X109671201Y-88894711D01*
X109722328Y-88971229D01*
X110268328Y-89397408D01*
X113180595Y-86485141D01*
X113539805Y-86485141D01*
X116452072Y-89397408D01*
X116998072Y-88971229D01*
X117279571Y-88457556D01*
X129372401Y-88457556D01*
X130542020Y-89627175D01*
X131662415Y-88506780D01*
X133603948Y-88506780D01*
X133603948Y-91106780D01*
X133616208Y-91231262D01*
X133652518Y-91350960D01*
X133711483Y-91461274D01*
X133790835Y-91557965D01*
X133887526Y-91637317D01*
X133997840Y-91696282D01*
X134117538Y-91732592D01*
X134242020Y-91744852D01*
X136842020Y-91744852D01*
X136966502Y-91732592D01*
X137086200Y-91696282D01*
X137196514Y-91637317D01*
X137293205Y-91557965D01*
X137372557Y-91461274D01*
X137431522Y-91350960D01*
X137467832Y-91231262D01*
X137480092Y-91106780D01*
X137480092Y-88506780D01*
X137467832Y-88382298D01*
X137431522Y-88262600D01*
X137372557Y-88152286D01*
X137293205Y-88055595D01*
X137196514Y-87976243D01*
X137086200Y-87917278D01*
X136966502Y-87880968D01*
X136842020Y-87868708D01*
X134242020Y-87868708D01*
X134117538Y-87880968D01*
X133997840Y-87917278D01*
X133887526Y-87976243D01*
X133790835Y-88055595D01*
X133711483Y-88152286D01*
X133652518Y-88262600D01*
X133616208Y-88382298D01*
X133603948Y-88506780D01*
X131662415Y-88506780D01*
X131711639Y-88457556D01*
X131579703Y-88162468D01*
X131238975Y-87991621D01*
X130871463Y-87890530D01*
X130491291Y-87863079D01*
X130113069Y-87910323D01*
X129751330Y-88030447D01*
X129504337Y-88162468D01*
X129372401Y-88457556D01*
X117279571Y-88457556D01*
X117413183Y-88213746D01*
X117672539Y-87389834D01*
X117766176Y-86531155D01*
X117690493Y-85670707D01*
X117448399Y-84841558D01*
X117049199Y-84075571D01*
X116998072Y-83999053D01*
X116452072Y-83572874D01*
X113539805Y-86485141D01*
X113180595Y-86485141D01*
X110268328Y-83572874D01*
X109722328Y-83999053D01*
X109626000Y-84174830D01*
X109626000Y-82194000D01*
X112411674Y-82194000D01*
X111716617Y-82396942D01*
G04 #@! TA.AperFunction,Conductor*
D18*
G36*
X111716617Y-82396942D02*
G01*
X110950630Y-82796142D01*
X110874112Y-82847269D01*
X110447933Y-83393269D01*
X113360200Y-86305536D01*
X116272467Y-83393269D01*
X115846288Y-82847269D01*
X115088805Y-82432158D01*
X114332234Y-82194000D01*
X150083916Y-82194000D01*
X150020474Y-82347162D01*
X149980700Y-82547121D01*
X149980700Y-82609258D01*
X143072663Y-89517296D01*
X143043659Y-89541099D01*
X142988531Y-89608274D01*
X142948686Y-89656824D01*
X142895648Y-89756051D01*
X142878114Y-89788854D01*
X142834657Y-89932115D01*
X142823660Y-90043768D01*
X142823660Y-90043778D01*
X142819984Y-90081100D01*
X142823660Y-90118422D01*
X142823660Y-95771665D01*
X142659439Y-95739000D01*
X142597302Y-95739000D01*
X140414280Y-93555979D01*
X140414280Y-89123651D01*
X140458217Y-89079714D01*
X140571485Y-88910196D01*
X140649506Y-88721838D01*
X140689280Y-88521879D01*
X140689280Y-88318001D01*
X140649506Y-88118042D01*
X140571485Y-87929684D01*
X140458217Y-87760166D01*
X140314054Y-87616003D01*
X140144536Y-87502735D01*
X139956178Y-87424714D01*
X139756219Y-87384940D01*
X139552341Y-87384940D01*
X139352382Y-87424714D01*
X139164024Y-87502735D01*
X138994506Y-87616003D01*
X138850343Y-87760166D01*
X138737075Y-87929684D01*
X138659054Y-88118042D01*
X138619280Y-88318001D01*
X138619280Y-88521879D01*
X138659054Y-88721838D01*
X138737075Y-88910196D01*
X138850343Y-89079714D01*
X138894281Y-89123652D01*
X138894280Y-93833457D01*
X138890604Y-93870780D01*
X138894280Y-93908102D01*
X138894280Y-93908112D01*
X138905277Y-94019765D01*
X138948734Y-94163026D01*
X139019306Y-94295056D01*
X139059151Y-94343606D01*
X139114279Y-94410781D01*
X139143283Y-94434584D01*
X141522500Y-96813802D01*
X141522500Y-96875939D01*
X141562274Y-97075898D01*
X141640295Y-97264256D01*
X141753563Y-97433774D01*
X141897726Y-97577937D01*
X142067244Y-97691205D01*
X142255602Y-97769226D01*
X142455561Y-97809000D01*
X142659439Y-97809000D01*
X142823660Y-97776335D01*
X142823661Y-107038008D01*
X142779723Y-107081946D01*
X142666455Y-107251464D01*
X142588434Y-107439822D01*
X142548660Y-107639781D01*
X142548660Y-107843659D01*
X142588434Y-108043618D01*
X142666455Y-108231976D01*
X142779723Y-108401494D01*
X142923886Y-108545657D01*
X143093404Y-108658925D01*
X143281762Y-108736946D01*
X143481721Y-108776720D01*
X143685599Y-108776720D01*
X143885558Y-108736946D01*
X144073916Y-108658925D01*
X144243434Y-108545657D01*
X144387597Y-108401494D01*
X144500865Y-108231976D01*
X144578886Y-108043618D01*
X144618660Y-107843659D01*
X144618660Y-107639781D01*
X144578886Y-107439822D01*
X144500865Y-107251464D01*
X144387597Y-107081946D01*
X144343660Y-107038009D01*
X144343660Y-106434100D01*
X145580048Y-106434100D01*
X145580048Y-109034100D01*
X145592308Y-109158582D01*
X145628618Y-109278280D01*
X145687583Y-109388594D01*
X145766935Y-109485285D01*
X145863626Y-109564637D01*
X145973940Y-109623602D01*
X146093638Y-109659912D01*
X146218120Y-109672172D01*
X148818120Y-109672172D01*
X148942602Y-109659912D01*
X149062300Y-109623602D01*
X149172614Y-109564637D01*
X149269305Y-109485285D01*
X149348657Y-109388594D01*
X149407622Y-109278280D01*
X149443932Y-109158582D01*
X149451344Y-109083324D01*
X151348501Y-109083324D01*
X151480437Y-109378412D01*
X151821165Y-109549259D01*
X152188677Y-109650350D01*
X152568849Y-109677801D01*
X152947071Y-109630557D01*
X153308810Y-109510433D01*
X153555803Y-109378412D01*
X153687739Y-109083324D01*
X152518120Y-107913705D01*
X151348501Y-109083324D01*
X149451344Y-109083324D01*
X149456192Y-109034100D01*
X149456192Y-107784829D01*
X150574419Y-107784829D01*
X150621663Y-108163051D01*
X150741787Y-108524790D01*
X150873808Y-108771783D01*
X151168896Y-108903719D01*
X152338515Y-107734100D01*
X152697725Y-107734100D01*
X153867344Y-108903719D01*
X154162432Y-108771783D01*
X154333279Y-108431055D01*
X154434370Y-108063543D01*
X154461821Y-107683371D01*
X154415404Y-107311768D01*
X176875872Y-107311768D01*
X179788139Y-110224035D01*
X182700406Y-107311768D01*
X182274227Y-106765768D01*
X181516744Y-106350657D01*
X180692832Y-106091301D01*
X179834153Y-105997664D01*
X178973705Y-106073347D01*
X178144556Y-106315441D01*
X177378569Y-106714641D01*
X177302051Y-106765768D01*
X176875872Y-107311768D01*
X154415404Y-107311768D01*
X154414577Y-107305149D01*
X154294453Y-106943410D01*
X154162432Y-106696417D01*
X153867344Y-106564481D01*
X152697725Y-107734100D01*
X152338515Y-107734100D01*
X151168896Y-106564481D01*
X150873808Y-106696417D01*
X150702961Y-107037145D01*
X150601870Y-107404657D01*
X150574419Y-107784829D01*
X149456192Y-107784829D01*
X149456192Y-106434100D01*
X149451345Y-106384876D01*
X151348501Y-106384876D01*
X152518120Y-107554495D01*
X153687739Y-106384876D01*
X153555803Y-106089788D01*
X153215075Y-105918941D01*
X152847563Y-105817850D01*
X152467391Y-105790399D01*
X152089169Y-105837643D01*
X151727430Y-105957767D01*
X151480437Y-106089788D01*
X151348501Y-106384876D01*
X149451345Y-106384876D01*
X149443932Y-106309618D01*
X149407622Y-106189920D01*
X149348657Y-106079606D01*
X149269305Y-105982915D01*
X149172614Y-105903563D01*
X149062300Y-105844598D01*
X148942602Y-105808288D01*
X148818120Y-105796028D01*
X146218120Y-105796028D01*
X146093638Y-105808288D01*
X145973940Y-105844598D01*
X145863626Y-105903563D01*
X145766935Y-105982915D01*
X145687583Y-106079606D01*
X145628618Y-106189920D01*
X145592308Y-106309618D01*
X145580048Y-106434100D01*
X144343660Y-106434100D01*
X144343660Y-97741197D01*
X144429141Y-97758200D01*
X144633019Y-97758200D01*
X144832978Y-97718426D01*
X145021336Y-97640405D01*
X145190854Y-97527137D01*
X145234791Y-97483200D01*
X146751199Y-97483200D01*
X150989080Y-101721082D01*
X150989080Y-101783219D01*
X151028854Y-101983178D01*
X151106875Y-102171536D01*
X151220143Y-102341054D01*
X151364306Y-102485217D01*
X151533824Y-102598485D01*
X151722182Y-102676506D01*
X151922141Y-102716280D01*
X152126019Y-102716280D01*
X152325978Y-102676506D01*
X152514336Y-102598485D01*
X152683854Y-102485217D01*
X152828017Y-102341054D01*
X152829522Y-102338801D01*
X155477260Y-102338801D01*
X155477260Y-102542679D01*
X155517034Y-102742638D01*
X155595055Y-102930996D01*
X155708323Y-103100514D01*
X155852486Y-103244677D01*
X156022004Y-103357945D01*
X156210362Y-103435966D01*
X156410321Y-103475740D01*
X156614199Y-103475740D01*
X156814158Y-103435966D01*
X157002516Y-103357945D01*
X157172034Y-103244677D01*
X157316197Y-103100514D01*
X157429465Y-102930996D01*
X157507486Y-102742638D01*
X157547260Y-102542679D01*
X157547260Y-102338801D01*
X157507486Y-102138842D01*
X157429465Y-101950484D01*
X157316197Y-101780966D01*
X157272260Y-101737029D01*
X157272260Y-98619733D01*
X157340662Y-98648066D01*
X157540621Y-98687840D01*
X157602759Y-98687840D01*
X158496081Y-99581163D01*
X158519879Y-99610161D01*
X158635604Y-99705134D01*
X158767633Y-99775706D01*
X158910894Y-99819163D01*
X159022547Y-99830160D01*
X159022556Y-99830160D01*
X159059879Y-99833836D01*
X159097202Y-99830160D01*
X161411789Y-99830160D01*
X161455726Y-99874097D01*
X161625244Y-99987365D01*
X161813602Y-100065386D01*
X162013561Y-100105160D01*
X162217439Y-100105160D01*
X162417398Y-100065386D01*
X162605756Y-99987365D01*
X162775274Y-99874097D01*
X162905631Y-99743740D01*
X176044808Y-99743740D01*
X176044808Y-102343740D01*
X176057068Y-102468222D01*
X176093378Y-102587920D01*
X176152343Y-102698234D01*
X176231695Y-102794925D01*
X176328386Y-102874277D01*
X176438700Y-102933242D01*
X176558398Y-102969552D01*
X176682880Y-102981812D01*
X179282880Y-102981812D01*
X179407362Y-102969552D01*
X179527060Y-102933242D01*
X179637374Y-102874277D01*
X179734065Y-102794925D01*
X179813417Y-102698234D01*
X179872382Y-102587920D01*
X179908692Y-102468222D01*
X179920952Y-102343740D01*
X179920952Y-99743740D01*
X179908692Y-99619258D01*
X179872382Y-99499560D01*
X179813417Y-99389246D01*
X179734065Y-99292555D01*
X179637374Y-99213203D01*
X179527060Y-99154238D01*
X179407362Y-99117928D01*
X179282880Y-99105668D01*
X176682880Y-99105668D01*
X176558398Y-99117928D01*
X176438700Y-99154238D01*
X176328386Y-99213203D01*
X176231695Y-99292555D01*
X176152343Y-99389246D01*
X176093378Y-99499560D01*
X176057068Y-99619258D01*
X176044808Y-99743740D01*
X162905631Y-99743740D01*
X162919437Y-99729934D01*
X163032705Y-99560416D01*
X163110726Y-99372058D01*
X163150500Y-99172099D01*
X163150500Y-98968221D01*
X163110726Y-98768262D01*
X163032705Y-98579904D01*
X162919437Y-98410386D01*
X162775274Y-98266223D01*
X162605756Y-98152955D01*
X162417398Y-98074934D01*
X162217439Y-98035160D01*
X162013561Y-98035160D01*
X161813602Y-98074934D01*
X161625244Y-98152955D01*
X161455726Y-98266223D01*
X161411789Y-98310160D01*
X159374682Y-98310160D01*
X159060625Y-97996104D01*
X159158976Y-97955365D01*
X159328494Y-97842097D01*
X159472657Y-97697934D01*
X159585925Y-97528416D01*
X159642031Y-97392964D01*
X176813261Y-97392964D01*
X176945197Y-97688052D01*
X177285925Y-97858899D01*
X177653437Y-97959990D01*
X178033609Y-97987441D01*
X178411831Y-97940197D01*
X178773570Y-97820073D01*
X179020563Y-97688052D01*
X179152499Y-97392964D01*
X177982880Y-96223345D01*
X176813261Y-97392964D01*
X159642031Y-97392964D01*
X159663946Y-97340058D01*
X159703720Y-97140099D01*
X159703720Y-96936221D01*
X159663946Y-96736262D01*
X159585925Y-96547904D01*
X159472657Y-96378386D01*
X159328494Y-96234223D01*
X159158976Y-96120955D01*
X159095034Y-96094469D01*
X176039179Y-96094469D01*
X176086423Y-96472691D01*
X176206547Y-96834430D01*
X176338568Y-97081423D01*
X176633656Y-97213359D01*
X177803275Y-96043740D01*
X178162485Y-96043740D01*
X179332104Y-97213359D01*
X179627192Y-97081423D01*
X179798039Y-96740695D01*
X179899130Y-96373183D01*
X179926581Y-95993011D01*
X179879337Y-95614789D01*
X179759213Y-95253050D01*
X179627192Y-95006057D01*
X179332104Y-94874121D01*
X178162485Y-96043740D01*
X177803275Y-96043740D01*
X176633656Y-94874121D01*
X176338568Y-95006057D01*
X176167721Y-95346785D01*
X176066630Y-95714297D01*
X176039179Y-96094469D01*
X159095034Y-96094469D01*
X158970618Y-96042934D01*
X158770659Y-96003160D01*
X158692946Y-96003160D01*
X158560968Y-95932615D01*
X158417707Y-95889158D01*
X158306054Y-95878161D01*
X158306043Y-95878161D01*
X158268721Y-95874485D01*
X158231399Y-95878161D01*
X157621559Y-95878161D01*
X157584236Y-95874485D01*
X157546913Y-95878161D01*
X157546904Y-95878161D01*
X157435251Y-95889158D01*
X157291990Y-95932615D01*
X157159961Y-96003187D01*
X157159959Y-96003188D01*
X157159960Y-96003188D01*
X157073233Y-96074362D01*
X157073229Y-96074366D01*
X157044236Y-96098160D01*
X157020442Y-96127153D01*
X156001262Y-97146335D01*
X155972259Y-97170137D01*
X155924310Y-97228564D01*
X155877286Y-97285862D01*
X155846367Y-97343707D01*
X155806714Y-97417892D01*
X155763257Y-97561153D01*
X155752260Y-97672806D01*
X155752260Y-97672816D01*
X155748584Y-97710138D01*
X155752260Y-97747461D01*
X155752261Y-101737028D01*
X155708323Y-101780966D01*
X155595055Y-101950484D01*
X155517034Y-102138842D01*
X155477260Y-102338801D01*
X152829522Y-102338801D01*
X152941285Y-102171536D01*
X153019306Y-101983178D01*
X153059080Y-101783219D01*
X153059080Y-101579341D01*
X153019306Y-101379382D01*
X152941285Y-101191024D01*
X152828017Y-101021506D01*
X152683854Y-100877343D01*
X152514336Y-100764075D01*
X152325978Y-100686054D01*
X152126019Y-100646280D01*
X152063882Y-100646280D01*
X147629804Y-96212203D01*
X147606001Y-96183199D01*
X147490276Y-96088226D01*
X147358247Y-96017654D01*
X147214986Y-95974197D01*
X147103333Y-95963200D01*
X147103322Y-95963200D01*
X147066000Y-95959524D01*
X147028678Y-95963200D01*
X145234791Y-95963200D01*
X145190854Y-95919263D01*
X145021336Y-95805995D01*
X144832978Y-95727974D01*
X144633019Y-95688200D01*
X144429141Y-95688200D01*
X144343660Y-95705203D01*
X144343660Y-94694516D01*
X176813261Y-94694516D01*
X177982880Y-95864135D01*
X179152499Y-94694516D01*
X179020563Y-94399428D01*
X178679835Y-94228581D01*
X178312323Y-94127490D01*
X177932151Y-94100039D01*
X177553929Y-94147283D01*
X177192190Y-94267407D01*
X176945197Y-94399428D01*
X176813261Y-94694516D01*
X144343660Y-94694516D01*
X144343660Y-90395901D01*
X145162548Y-89577013D01*
X176995933Y-89577013D01*
X177422112Y-90123013D01*
X178179595Y-90538124D01*
X179003507Y-90797480D01*
X179862186Y-90891117D01*
X180722634Y-90815434D01*
X181551783Y-90573340D01*
X182317770Y-90174140D01*
X182394288Y-90123013D01*
X182820467Y-89577013D01*
X179908200Y-86664746D01*
X176995933Y-89577013D01*
X145162548Y-89577013D01*
X148300434Y-86439127D01*
X175502224Y-86439127D01*
X175577907Y-87299575D01*
X175820001Y-88128724D01*
X176219201Y-88894711D01*
X176270328Y-88971229D01*
X176816328Y-89397408D01*
X179728595Y-86485141D01*
X176816328Y-83572874D01*
X176270328Y-83999053D01*
X175855217Y-84756536D01*
X175595861Y-85580448D01*
X175502224Y-86439127D01*
X148300434Y-86439127D01*
X151055502Y-83684060D01*
X151117639Y-83684060D01*
X151317598Y-83644286D01*
X151505956Y-83566265D01*
X151675474Y-83452997D01*
X151819637Y-83308834D01*
X151932905Y-83139316D01*
X152010926Y-82950958D01*
X152050700Y-82750999D01*
X152050700Y-82547121D01*
X152010926Y-82347162D01*
X151947484Y-82194000D01*
X178959674Y-82194000D01*
X178264617Y-82396942D01*
X177498630Y-82796142D01*
X177422112Y-82847269D01*
X176995933Y-83393269D01*
X179908200Y-86305536D01*
X182820467Y-83393269D01*
X182394288Y-82847269D01*
X181636805Y-82432158D01*
X180880234Y-82194000D01*
X183998001Y-82194000D01*
X183998001Y-84847044D01*
X183996399Y-84841558D01*
X183597199Y-84075571D01*
X183546072Y-83999053D01*
X183000072Y-83572874D01*
X180087805Y-86485141D01*
X183000072Y-89397408D01*
X183546072Y-88971229D01*
X183961183Y-88213746D01*
X183998001Y-88096785D01*
X183998000Y-109176738D01*
X183876338Y-108760057D01*
X183477138Y-107994070D01*
X183426011Y-107917552D01*
X182880011Y-107491373D01*
X179967744Y-110403640D01*
X182880011Y-113315907D01*
X183426011Y-112889728D01*
X183841122Y-112132245D01*
X183998000Y-111633881D01*
X183998000Y-114910000D01*
X109626000Y-114910000D01*
X109626000Y-113495512D01*
X110722934Y-113495512D01*
X111149113Y-114041512D01*
X111906596Y-114456623D01*
X112730508Y-114715979D01*
X113589187Y-114809616D01*
X114449635Y-114733933D01*
X115278784Y-114491839D01*
X116044771Y-114092639D01*
X116121289Y-114041512D01*
X116547468Y-113495512D01*
X176875872Y-113495512D01*
X177302051Y-114041512D01*
X178059534Y-114456623D01*
X178883446Y-114715979D01*
X179742125Y-114809616D01*
X180602573Y-114733933D01*
X181431722Y-114491839D01*
X182197709Y-114092639D01*
X182274227Y-114041512D01*
X182700406Y-113495512D01*
X179788139Y-110583245D01*
X176875872Y-113495512D01*
X116547468Y-113495512D01*
X113635201Y-110583245D01*
X110722934Y-113495512D01*
X109626000Y-113495512D01*
X109626000Y-112198805D01*
X109946202Y-112813210D01*
X109997329Y-112889728D01*
X110543329Y-113315907D01*
X113455596Y-110403640D01*
X113814806Y-110403640D01*
X116727073Y-113315907D01*
X117273073Y-112889728D01*
X117688184Y-112132245D01*
X117947540Y-111308333D01*
X118041177Y-110449654D01*
X118033083Y-110357626D01*
X175382163Y-110357626D01*
X175457846Y-111218074D01*
X175699940Y-112047223D01*
X176099140Y-112813210D01*
X176150267Y-112889728D01*
X176696267Y-113315907D01*
X179608534Y-110403640D01*
X176696267Y-107491373D01*
X176150267Y-107917552D01*
X175735156Y-108675035D01*
X175475800Y-109498947D01*
X175382163Y-110357626D01*
X118033083Y-110357626D01*
X117965494Y-109589206D01*
X117723400Y-108760057D01*
X117324200Y-107994070D01*
X117273073Y-107917552D01*
X116727073Y-107491373D01*
X113814806Y-110403640D01*
X113455596Y-110403640D01*
X110543329Y-107491373D01*
X109997329Y-107917552D01*
X109626000Y-108595143D01*
X109626000Y-107311768D01*
X110722934Y-107311768D01*
X113635201Y-110224035D01*
X116547468Y-107311768D01*
X116299920Y-106994621D01*
X123320860Y-106994621D01*
X123320860Y-107198499D01*
X123360634Y-107398458D01*
X123438655Y-107586816D01*
X123551923Y-107756334D01*
X123696086Y-107900497D01*
X123865604Y-108013765D01*
X124053962Y-108091786D01*
X124253921Y-108131560D01*
X124457799Y-108131560D01*
X124657758Y-108091786D01*
X124846116Y-108013765D01*
X125015634Y-107900497D01*
X125159797Y-107756334D01*
X125273065Y-107586816D01*
X125351086Y-107398458D01*
X125390860Y-107198499D01*
X125390860Y-106994621D01*
X125378735Y-106933661D01*
X137661700Y-106933661D01*
X137661700Y-107137539D01*
X137701474Y-107337498D01*
X137779495Y-107525856D01*
X137892763Y-107695374D01*
X138036926Y-107839537D01*
X138206444Y-107952805D01*
X138394802Y-108030826D01*
X138594761Y-108070600D01*
X138798639Y-108070600D01*
X138998598Y-108030826D01*
X139186956Y-107952805D01*
X139356474Y-107839537D01*
X139500637Y-107695374D01*
X139613905Y-107525856D01*
X139691926Y-107337498D01*
X139731700Y-107137539D01*
X139731700Y-106933661D01*
X139691926Y-106733702D01*
X139613905Y-106545344D01*
X139530360Y-106420310D01*
X139530360Y-103771831D01*
X139574297Y-103727894D01*
X139687565Y-103558376D01*
X139765586Y-103370018D01*
X139805360Y-103170059D01*
X139805360Y-102966181D01*
X139765586Y-102766222D01*
X139687565Y-102577864D01*
X139574297Y-102408346D01*
X139430134Y-102264183D01*
X139260616Y-102150915D01*
X139072258Y-102072894D01*
X138872299Y-102033120D01*
X138668421Y-102033120D01*
X138468462Y-102072894D01*
X138280104Y-102150915D01*
X138110586Y-102264183D01*
X137966423Y-102408346D01*
X137853155Y-102577864D01*
X137775134Y-102766222D01*
X137735360Y-102966181D01*
X137735360Y-103170059D01*
X137775134Y-103370018D01*
X137853155Y-103558376D01*
X137966423Y-103727894D01*
X138010360Y-103771831D01*
X138010361Y-106258228D01*
X137892763Y-106375826D01*
X137779495Y-106545344D01*
X137701474Y-106733702D01*
X137661700Y-106933661D01*
X125378735Y-106933661D01*
X125351086Y-106794662D01*
X125273065Y-106606304D01*
X125159797Y-106436786D01*
X125115860Y-106392849D01*
X125115860Y-101711601D01*
X128109142Y-98718320D01*
X128171279Y-98718320D01*
X128371238Y-98678546D01*
X128559596Y-98600525D01*
X128729114Y-98487257D01*
X128873277Y-98343094D01*
X128986545Y-98173576D01*
X129064566Y-97985218D01*
X129090678Y-97853940D01*
X131018488Y-97853940D01*
X131021560Y-99818190D01*
X131180310Y-99976940D01*
X132081654Y-99976940D01*
X132078403Y-100036702D01*
X132076624Y-100038481D01*
X132077465Y-100053940D01*
X132076624Y-100069399D01*
X132078403Y-100071178D01*
X132087093Y-100230940D01*
X131180310Y-100230940D01*
X131021560Y-100389690D01*
X131018488Y-102353940D01*
X131030748Y-102478422D01*
X131067058Y-102598120D01*
X131126023Y-102708434D01*
X131205375Y-102805125D01*
X131302066Y-102884477D01*
X131412380Y-102943442D01*
X131532078Y-102979752D01*
X131656560Y-102992012D01*
X132845810Y-102988940D01*
X133004560Y-102830190D01*
X133004560Y-102353846D01*
X133097019Y-102358876D01*
X133131560Y-102324335D01*
X133166101Y-102358876D01*
X133258560Y-102353846D01*
X133258560Y-102830190D01*
X133417310Y-102988940D01*
X134606560Y-102992012D01*
X134731042Y-102979752D01*
X134850740Y-102943442D01*
X134961054Y-102884477D01*
X135057745Y-102805125D01*
X135137097Y-102708434D01*
X135196062Y-102598120D01*
X135232372Y-102478422D01*
X135244632Y-102353940D01*
X135241560Y-100389690D01*
X135082810Y-100230940D01*
X134176027Y-100230940D01*
X134184717Y-100071178D01*
X134186496Y-100069399D01*
X134185655Y-100053940D01*
X134186496Y-100038481D01*
X134184717Y-100036702D01*
X134181466Y-99976940D01*
X135082810Y-99976940D01*
X135241560Y-99818190D01*
X135244632Y-97853940D01*
X135232372Y-97729458D01*
X135196062Y-97609760D01*
X135137097Y-97499446D01*
X135057745Y-97402755D01*
X134961054Y-97323403D01*
X134850740Y-97264438D01*
X134731042Y-97228128D01*
X134606560Y-97215868D01*
X133417310Y-97218940D01*
X133258560Y-97377690D01*
X133258560Y-97854034D01*
X133166101Y-97849004D01*
X133131560Y-97883545D01*
X133097019Y-97849004D01*
X133004560Y-97854034D01*
X133004560Y-97377690D01*
X132845810Y-97218940D01*
X131656560Y-97215868D01*
X131532078Y-97228128D01*
X131412380Y-97264438D01*
X131302066Y-97323403D01*
X131205375Y-97402755D01*
X131126023Y-97499446D01*
X131067058Y-97609760D01*
X131030748Y-97729458D01*
X131018488Y-97853940D01*
X129090678Y-97853940D01*
X129104340Y-97785259D01*
X129104340Y-97581381D01*
X129064566Y-97381422D01*
X128986545Y-97193064D01*
X128873277Y-97023546D01*
X128729114Y-96879383D01*
X128559596Y-96766115D01*
X128371238Y-96688094D01*
X128171279Y-96648320D01*
X127967401Y-96648320D01*
X127767442Y-96688094D01*
X127579084Y-96766115D01*
X127409566Y-96879383D01*
X127265403Y-97023546D01*
X127152135Y-97193064D01*
X127074114Y-97381422D01*
X127034340Y-97581381D01*
X127034340Y-97643518D01*
X123844863Y-100832996D01*
X123815859Y-100856799D01*
X123760731Y-100923974D01*
X123720886Y-100972524D01*
X123666361Y-101074532D01*
X123650314Y-101104554D01*
X123606857Y-101247815D01*
X123595860Y-101359468D01*
X123595860Y-101359478D01*
X123592184Y-101396800D01*
X123595860Y-101434123D01*
X123595861Y-106392848D01*
X123551923Y-106436786D01*
X123438655Y-106606304D01*
X123360634Y-106794662D01*
X123320860Y-106994621D01*
X116299920Y-106994621D01*
X116121289Y-106765768D01*
X115363806Y-106350657D01*
X114539894Y-106091301D01*
X113681215Y-105997664D01*
X112820767Y-106073347D01*
X111991618Y-106315441D01*
X111225631Y-106714641D01*
X111149113Y-106765768D01*
X110722934Y-107311768D01*
X109626000Y-107311768D01*
X109626000Y-101728764D01*
X114334341Y-101728764D01*
X114466277Y-102023852D01*
X114807005Y-102194699D01*
X115174517Y-102295790D01*
X115554689Y-102323241D01*
X115932911Y-102275997D01*
X116294650Y-102155873D01*
X116541643Y-102023852D01*
X116673579Y-101728764D01*
X115503960Y-100559145D01*
X114334341Y-101728764D01*
X109626000Y-101728764D01*
X109626000Y-100430269D01*
X113560259Y-100430269D01*
X113607503Y-100808491D01*
X113727627Y-101170230D01*
X113859648Y-101417223D01*
X114154736Y-101549159D01*
X115324355Y-100379540D01*
X115683565Y-100379540D01*
X116853184Y-101549159D01*
X117148272Y-101417223D01*
X117319119Y-101076495D01*
X117420210Y-100708983D01*
X117447661Y-100328811D01*
X117400417Y-99950589D01*
X117280293Y-99588850D01*
X117148272Y-99341857D01*
X116853184Y-99209921D01*
X115683565Y-100379540D01*
X115324355Y-100379540D01*
X114154736Y-99209921D01*
X113859648Y-99341857D01*
X113688801Y-99682585D01*
X113587710Y-100050097D01*
X113560259Y-100430269D01*
X109626000Y-100430269D01*
X109626000Y-99030316D01*
X114334341Y-99030316D01*
X115503960Y-100199935D01*
X116673579Y-99030316D01*
X116541643Y-98735228D01*
X116200915Y-98564381D01*
X115833403Y-98463290D01*
X115453231Y-98435839D01*
X115075009Y-98483083D01*
X114713270Y-98603207D01*
X114466277Y-98735228D01*
X114334341Y-99030316D01*
X109626000Y-99030316D01*
X109626000Y-94079540D01*
X113565888Y-94079540D01*
X113565888Y-96679540D01*
X113578148Y-96804022D01*
X113614458Y-96923720D01*
X113673423Y-97034034D01*
X113752775Y-97130725D01*
X113849466Y-97210077D01*
X113959780Y-97269042D01*
X114079478Y-97305352D01*
X114203960Y-97317612D01*
X116803960Y-97317612D01*
X116928442Y-97305352D01*
X117048140Y-97269042D01*
X117158454Y-97210077D01*
X117255145Y-97130725D01*
X117334497Y-97034034D01*
X117393462Y-96923720D01*
X117429772Y-96804022D01*
X117442032Y-96679540D01*
X117442032Y-94079540D01*
X117429772Y-93955058D01*
X117393462Y-93835360D01*
X117334497Y-93725046D01*
X117255145Y-93628355D01*
X117158454Y-93549003D01*
X117048140Y-93490038D01*
X116928442Y-93453728D01*
X116803960Y-93441468D01*
X114203960Y-93441468D01*
X114079478Y-93453728D01*
X113959780Y-93490038D01*
X113849466Y-93549003D01*
X113752775Y-93628355D01*
X113673423Y-93725046D01*
X113614458Y-93835360D01*
X113578148Y-93955058D01*
X113565888Y-94079540D01*
X109626000Y-94079540D01*
X109626000Y-91156004D01*
X129372401Y-91156004D01*
X129504337Y-91451092D01*
X129845065Y-91621939D01*
X130212577Y-91723030D01*
X130592749Y-91750481D01*
X130970971Y-91703237D01*
X131332710Y-91583113D01*
X131579703Y-91451092D01*
X131711639Y-91156004D01*
X130542020Y-89986385D01*
X129372401Y-91156004D01*
X109626000Y-91156004D01*
X109626000Y-89577013D01*
X110447933Y-89577013D01*
X110874112Y-90123013D01*
X111631595Y-90538124D01*
X112455507Y-90797480D01*
X113314186Y-90891117D01*
X114174634Y-90815434D01*
X115003783Y-90573340D01*
X115769770Y-90174140D01*
X115846288Y-90123013D01*
X116053526Y-89857509D01*
X128598319Y-89857509D01*
X128645563Y-90235731D01*
X128765687Y-90597470D01*
X128897708Y-90844463D01*
X129192796Y-90976399D01*
X130362415Y-89806780D01*
X130721625Y-89806780D01*
X131891244Y-90976399D01*
X132186332Y-90844463D01*
X132357179Y-90503735D01*
X132458270Y-90136223D01*
X132485721Y-89756051D01*
X132438477Y-89377829D01*
X132318353Y-89016090D01*
X132186332Y-88769097D01*
X131891244Y-88637161D01*
X130721625Y-89806780D01*
X130362415Y-89806780D01*
X129192796Y-88637161D01*
X128897708Y-88769097D01*
X128726861Y-89109825D01*
X128625770Y-89477337D01*
X128598319Y-89857509D01*
X116053526Y-89857509D01*
X116272467Y-89577013D01*
X113360200Y-86664746D01*
X110447933Y-89577013D01*
X109626000Y-89577013D01*
X109626000Y-88807979D01*
X109671201Y-88894711D01*
X109722328Y-88971229D01*
X110268328Y-89397408D01*
X113180595Y-86485141D01*
X113539805Y-86485141D01*
X116452072Y-89397408D01*
X116998072Y-88971229D01*
X117279571Y-88457556D01*
X129372401Y-88457556D01*
X130542020Y-89627175D01*
X131662415Y-88506780D01*
X133603948Y-88506780D01*
X133603948Y-91106780D01*
X133616208Y-91231262D01*
X133652518Y-91350960D01*
X133711483Y-91461274D01*
X133790835Y-91557965D01*
X133887526Y-91637317D01*
X133997840Y-91696282D01*
X134117538Y-91732592D01*
X134242020Y-91744852D01*
X136842020Y-91744852D01*
X136966502Y-91732592D01*
X137086200Y-91696282D01*
X137196514Y-91637317D01*
X137293205Y-91557965D01*
X137372557Y-91461274D01*
X137431522Y-91350960D01*
X137467832Y-91231262D01*
X137480092Y-91106780D01*
X137480092Y-88506780D01*
X137467832Y-88382298D01*
X137431522Y-88262600D01*
X137372557Y-88152286D01*
X137293205Y-88055595D01*
X137196514Y-87976243D01*
X137086200Y-87917278D01*
X136966502Y-87880968D01*
X136842020Y-87868708D01*
X134242020Y-87868708D01*
X134117538Y-87880968D01*
X133997840Y-87917278D01*
X133887526Y-87976243D01*
X133790835Y-88055595D01*
X133711483Y-88152286D01*
X133652518Y-88262600D01*
X133616208Y-88382298D01*
X133603948Y-88506780D01*
X131662415Y-88506780D01*
X131711639Y-88457556D01*
X131579703Y-88162468D01*
X131238975Y-87991621D01*
X130871463Y-87890530D01*
X130491291Y-87863079D01*
X130113069Y-87910323D01*
X129751330Y-88030447D01*
X129504337Y-88162468D01*
X129372401Y-88457556D01*
X117279571Y-88457556D01*
X117413183Y-88213746D01*
X117672539Y-87389834D01*
X117766176Y-86531155D01*
X117690493Y-85670707D01*
X117448399Y-84841558D01*
X117049199Y-84075571D01*
X116998072Y-83999053D01*
X116452072Y-83572874D01*
X113539805Y-86485141D01*
X113180595Y-86485141D01*
X110268328Y-83572874D01*
X109722328Y-83999053D01*
X109626000Y-84174830D01*
X109626000Y-82194000D01*
X112411674Y-82194000D01*
X111716617Y-82396942D01*
G37*
G04 #@! TD.AperFunction*
D17*
X133166101Y-99858876D02*
X133258560Y-99853846D01*
X133258560Y-99976940D01*
X133281654Y-99976940D01*
X133278403Y-100036702D01*
X133276624Y-100038481D01*
X133277465Y-100053940D01*
X133276624Y-100069399D01*
X133278403Y-100071178D01*
X133287093Y-100230940D01*
X133258560Y-100230940D01*
X133258560Y-100254034D01*
X133166101Y-100249004D01*
X133131560Y-100283545D01*
X133097019Y-100249004D01*
X133004560Y-100254034D01*
X133004560Y-100230940D01*
X132976027Y-100230940D01*
X132984717Y-100071178D01*
X132986496Y-100069399D01*
X132985655Y-100053940D01*
X132986496Y-100038481D01*
X132984717Y-100036702D01*
X132981466Y-99976940D01*
X133004560Y-99976940D01*
X133004560Y-99853846D01*
X133097019Y-99858876D01*
X133131560Y-99824335D01*
X133166101Y-99858876D01*
G04 #@! TA.AperFunction,Conductor*
D18*
G36*
X133166101Y-99858876D02*
G01*
X133258560Y-99853846D01*
X133258560Y-99976940D01*
X133281654Y-99976940D01*
X133278403Y-100036702D01*
X133276624Y-100038481D01*
X133277465Y-100053940D01*
X133276624Y-100069399D01*
X133278403Y-100071178D01*
X133287093Y-100230940D01*
X133258560Y-100230940D01*
X133258560Y-100254034D01*
X133166101Y-100249004D01*
X133131560Y-100283545D01*
X133097019Y-100249004D01*
X133004560Y-100254034D01*
X133004560Y-100230940D01*
X132976027Y-100230940D01*
X132984717Y-100071178D01*
X132986496Y-100069399D01*
X132985655Y-100053940D01*
X132986496Y-100038481D01*
X132984717Y-100036702D01*
X132981466Y-99976940D01*
X133004560Y-99976940D01*
X133004560Y-99853846D01*
X133097019Y-99858876D01*
X133131560Y-99824335D01*
X133166101Y-99858876D01*
G37*
G04 #@! TD.AperFunction*
M02*
