G04 #@! TF.GenerationSoftware,KiCad,Pcbnew,(5.1.12)-1*
G04 #@! TF.CreationDate,2022-10-20T21:35:18-07:00*
G04 #@! TF.ProjectId,Fuente_de_poder,4675656e-7465-45f6-9465-5f706f646572,rev?*
G04 #@! TF.SameCoordinates,Original*
G04 #@! TF.FileFunction,Legend,Top*
G04 #@! TF.FilePolarity,Positive*
%FSLAX46Y46*%
G04 Gerber Fmt 4.6, Leading zero omitted, Abs format (unit mm)*
G04 Created by KiCad (PCBNEW (5.1.12)-1) date 2022-10-20 21:35:18*
%MOMM*%
%LPD*%
G01*
G04 APERTURE LIST*
%ADD10C,0.150000*%
%ADD11C,0.120000*%
%ADD12C,0.127000*%
%ADD13C,0.200000*%
%ADD14C,0.203200*%
%ADD15C,0.250000*%
%ADD16C,0.095250*%
%ADD17C,0.254000*%
%ADD18C,2.600000*%
%ADD19R,2.600000X2.600000*%
%ADD20R,2.400000X2.900000*%
%ADD21R,1.100000X1.100000*%
%ADD22C,7.500000*%
%ADD23R,2.400000X1.500000*%
%ADD24R,1.500000X2.400000*%
%ADD25R,1.000000X1.400000*%
%ADD26R,1.550000X0.600000*%
%ADD27R,2.600000X3.100000*%
%ADD28R,2.550000X2.550000*%
%ADD29R,0.300000X0.850000*%
%ADD30R,0.850000X0.300000*%
G04 APERTURE END LIST*
D10*
X119706285Y-113482380D02*
X119230095Y-113482380D01*
X119230095Y-112482380D01*
X120468190Y-112815714D02*
X120468190Y-113482380D01*
X120039619Y-112815714D02*
X120039619Y-113339523D01*
X120087238Y-113434761D01*
X120182476Y-113482380D01*
X120325333Y-113482380D01*
X120420571Y-113434761D01*
X120468190Y-113387142D01*
X120944380Y-113482380D02*
X120944380Y-112815714D01*
X120944380Y-112482380D02*
X120896761Y-112530000D01*
X120944380Y-112577619D01*
X120992000Y-112530000D01*
X120944380Y-112482380D01*
X120944380Y-112577619D01*
X121372952Y-113434761D02*
X121468190Y-113482380D01*
X121658666Y-113482380D01*
X121753904Y-113434761D01*
X121801523Y-113339523D01*
X121801523Y-113291904D01*
X121753904Y-113196666D01*
X121658666Y-113149047D01*
X121515809Y-113149047D01*
X121420571Y-113101428D01*
X121372952Y-113006190D01*
X121372952Y-112958571D01*
X121420571Y-112863333D01*
X121515809Y-112815714D01*
X121658666Y-112815714D01*
X121753904Y-112863333D01*
X122944380Y-113196666D02*
X123420571Y-113196666D01*
X122849142Y-113482380D02*
X123182476Y-112482380D01*
X123515809Y-113482380D01*
X124277714Y-113482380D02*
X124277714Y-112482380D01*
X124277714Y-113434761D02*
X124182476Y-113482380D01*
X123992000Y-113482380D01*
X123896761Y-113434761D01*
X123849142Y-113387142D01*
X123801523Y-113291904D01*
X123801523Y-113006190D01*
X123849142Y-112910952D01*
X123896761Y-112863333D01*
X123992000Y-112815714D01*
X124182476Y-112815714D01*
X124277714Y-112863333D01*
X124753904Y-113482380D02*
X124753904Y-112815714D01*
X124753904Y-113006190D02*
X124801523Y-112910952D01*
X124849142Y-112863333D01*
X124944380Y-112815714D01*
X125039619Y-112815714D01*
X125372952Y-113482380D02*
X125372952Y-112815714D01*
X125372952Y-112482380D02*
X125325333Y-112530000D01*
X125372952Y-112577619D01*
X125420571Y-112530000D01*
X125372952Y-112482380D01*
X125372952Y-112577619D01*
X126277714Y-113482380D02*
X126277714Y-112958571D01*
X126230095Y-112863333D01*
X126134857Y-112815714D01*
X125944380Y-112815714D01*
X125849142Y-112863333D01*
X126277714Y-113434761D02*
X126182476Y-113482380D01*
X125944380Y-113482380D01*
X125849142Y-113434761D01*
X125801523Y-113339523D01*
X125801523Y-113244285D01*
X125849142Y-113149047D01*
X125944380Y-113101428D01*
X126182476Y-113101428D01*
X126277714Y-113053809D01*
X126753904Y-112815714D02*
X126753904Y-113482380D01*
X126753904Y-112910952D02*
X126801523Y-112863333D01*
X126896761Y-112815714D01*
X127039619Y-112815714D01*
X127134857Y-112863333D01*
X127182476Y-112958571D01*
X127182476Y-113482380D01*
X128992000Y-113387142D02*
X128944380Y-113434761D01*
X128801523Y-113482380D01*
X128706285Y-113482380D01*
X128563428Y-113434761D01*
X128468190Y-113339523D01*
X128420571Y-113244285D01*
X128372952Y-113053809D01*
X128372952Y-112910952D01*
X128420571Y-112720476D01*
X128468190Y-112625238D01*
X128563428Y-112530000D01*
X128706285Y-112482380D01*
X128801523Y-112482380D01*
X128944380Y-112530000D01*
X128992000Y-112577619D01*
X129849142Y-113482380D02*
X129849142Y-112958571D01*
X129801523Y-112863333D01*
X129706285Y-112815714D01*
X129515809Y-112815714D01*
X129420571Y-112863333D01*
X129849142Y-113434761D02*
X129753904Y-113482380D01*
X129515809Y-113482380D01*
X129420571Y-113434761D01*
X129372952Y-113339523D01*
X129372952Y-113244285D01*
X129420571Y-113149047D01*
X129515809Y-113101428D01*
X129753904Y-113101428D01*
X129849142Y-113053809D01*
X130325333Y-113482380D02*
X130325333Y-112482380D01*
X130325333Y-112863333D02*
X130420571Y-112815714D01*
X130611047Y-112815714D01*
X130706285Y-112863333D01*
X130753904Y-112910952D01*
X130801523Y-113006190D01*
X130801523Y-113291904D01*
X130753904Y-113387142D01*
X130706285Y-113434761D01*
X130611047Y-113482380D01*
X130420571Y-113482380D01*
X130325333Y-113434761D01*
X131230095Y-113482380D02*
X131230095Y-112815714D01*
X131230095Y-113006190D02*
X131277714Y-112910952D01*
X131325333Y-112863333D01*
X131420571Y-112815714D01*
X131515809Y-112815714D01*
X132230095Y-113434761D02*
X132134857Y-113482380D01*
X131944380Y-113482380D01*
X131849142Y-113434761D01*
X131801523Y-113339523D01*
X131801523Y-112958571D01*
X131849142Y-112863333D01*
X131944380Y-112815714D01*
X132134857Y-112815714D01*
X132230095Y-112863333D01*
X132277714Y-112958571D01*
X132277714Y-113053809D01*
X131801523Y-113149047D01*
X132706285Y-113482380D02*
X132706285Y-112815714D01*
X132706285Y-113006190D02*
X132753904Y-112910952D01*
X132801523Y-112863333D01*
X132896761Y-112815714D01*
X132992000Y-112815714D01*
X133753904Y-113482380D02*
X133753904Y-112958571D01*
X133706285Y-112863333D01*
X133611047Y-112815714D01*
X133420571Y-112815714D01*
X133325333Y-112863333D01*
X133753904Y-113434761D02*
X133658666Y-113482380D01*
X133420571Y-113482380D01*
X133325333Y-113434761D01*
X133277714Y-113339523D01*
X133277714Y-113244285D01*
X133325333Y-113149047D01*
X133420571Y-113101428D01*
X133658666Y-113101428D01*
X133753904Y-113053809D01*
X119126571Y-110942380D02*
X119126571Y-109942380D01*
X119364666Y-109942380D01*
X119507523Y-109990000D01*
X119602761Y-110085238D01*
X119650380Y-110180476D01*
X119698000Y-110370952D01*
X119698000Y-110513809D01*
X119650380Y-110704285D01*
X119602761Y-110799523D01*
X119507523Y-110894761D01*
X119364666Y-110942380D01*
X119126571Y-110942380D01*
X120507523Y-110894761D02*
X120412285Y-110942380D01*
X120221809Y-110942380D01*
X120126571Y-110894761D01*
X120078952Y-110799523D01*
X120078952Y-110418571D01*
X120126571Y-110323333D01*
X120221809Y-110275714D01*
X120412285Y-110275714D01*
X120507523Y-110323333D01*
X120555142Y-110418571D01*
X120555142Y-110513809D01*
X120078952Y-110609047D01*
X120936095Y-110894761D02*
X121031333Y-110942380D01*
X121221809Y-110942380D01*
X121317047Y-110894761D01*
X121364666Y-110799523D01*
X121364666Y-110751904D01*
X121317047Y-110656666D01*
X121221809Y-110609047D01*
X121078952Y-110609047D01*
X120983714Y-110561428D01*
X120936095Y-110466190D01*
X120936095Y-110418571D01*
X120983714Y-110323333D01*
X121078952Y-110275714D01*
X121221809Y-110275714D01*
X121317047Y-110323333D01*
X121793238Y-110942380D02*
X121793238Y-110275714D01*
X121793238Y-109942380D02*
X121745619Y-109990000D01*
X121793238Y-110037619D01*
X121840857Y-109990000D01*
X121793238Y-109942380D01*
X121793238Y-110037619D01*
X122698000Y-110275714D02*
X122698000Y-111085238D01*
X122650380Y-111180476D01*
X122602761Y-111228095D01*
X122507523Y-111275714D01*
X122364666Y-111275714D01*
X122269428Y-111228095D01*
X122698000Y-110894761D02*
X122602761Y-110942380D01*
X122412285Y-110942380D01*
X122317047Y-110894761D01*
X122269428Y-110847142D01*
X122221809Y-110751904D01*
X122221809Y-110466190D01*
X122269428Y-110370952D01*
X122317047Y-110323333D01*
X122412285Y-110275714D01*
X122602761Y-110275714D01*
X122698000Y-110323333D01*
X123174190Y-110275714D02*
X123174190Y-110942380D01*
X123174190Y-110370952D02*
X123221809Y-110323333D01*
X123317047Y-110275714D01*
X123459904Y-110275714D01*
X123555142Y-110323333D01*
X123602761Y-110418571D01*
X123602761Y-110942380D01*
X124459904Y-110894761D02*
X124364666Y-110942380D01*
X124174190Y-110942380D01*
X124078952Y-110894761D01*
X124031333Y-110799523D01*
X124031333Y-110418571D01*
X124078952Y-110323333D01*
X124174190Y-110275714D01*
X124364666Y-110275714D01*
X124459904Y-110323333D01*
X124507523Y-110418571D01*
X124507523Y-110513809D01*
X124031333Y-110609047D01*
X125364666Y-110942380D02*
X125364666Y-109942380D01*
X125364666Y-110894761D02*
X125269428Y-110942380D01*
X125078952Y-110942380D01*
X124983714Y-110894761D01*
X124936095Y-110847142D01*
X124888476Y-110751904D01*
X124888476Y-110466190D01*
X124936095Y-110370952D01*
X124983714Y-110323333D01*
X125078952Y-110275714D01*
X125269428Y-110275714D01*
X125364666Y-110323333D01*
X126602761Y-110942380D02*
X126602761Y-109942380D01*
X126602761Y-110323333D02*
X126698000Y-110275714D01*
X126888476Y-110275714D01*
X126983714Y-110323333D01*
X127031333Y-110370952D01*
X127078952Y-110466190D01*
X127078952Y-110751904D01*
X127031333Y-110847142D01*
X126983714Y-110894761D01*
X126888476Y-110942380D01*
X126698000Y-110942380D01*
X126602761Y-110894761D01*
X127412285Y-110275714D02*
X127650380Y-110942380D01*
X127888476Y-110275714D02*
X127650380Y-110942380D01*
X127555142Y-111180476D01*
X127507523Y-111228095D01*
X127412285Y-111275714D01*
X128269428Y-110847142D02*
X128317047Y-110894761D01*
X128269428Y-110942380D01*
X128221809Y-110894761D01*
X128269428Y-110847142D01*
X128269428Y-110942380D01*
X128269428Y-110323333D02*
X128317047Y-110370952D01*
X128269428Y-110418571D01*
X128221809Y-110370952D01*
X128269428Y-110323333D01*
X128269428Y-110418571D01*
D11*
X149698120Y-107734100D02*
G75*
G03*
X149698120Y-107734100I-2180000J0D01*
G01*
X154698120Y-107734100D02*
G75*
G03*
X154698120Y-107734100I-2180000J0D01*
G01*
X144958120Y-112334100D02*
X155078120Y-112334100D01*
X144958120Y-111234100D02*
X155078120Y-111234100D01*
X144958120Y-103674100D02*
X155078120Y-103674100D01*
X144958120Y-112794100D02*
X155078120Y-112794100D01*
X144958120Y-103674100D02*
X144958120Y-112794100D01*
X155078120Y-103674100D02*
X155078120Y-112794100D01*
X149172120Y-106346100D02*
X149065120Y-106453100D01*
X146236120Y-109281100D02*
X146130120Y-109388100D01*
X148906120Y-106080100D02*
X148799120Y-106187100D01*
X145970120Y-109015100D02*
X145864120Y-109122100D01*
X154172120Y-106346100D02*
X153777120Y-106742100D01*
X151511120Y-109008100D02*
X151131120Y-109388100D01*
X153906120Y-106080100D02*
X153526120Y-106460100D01*
X151260120Y-108726100D02*
X150865120Y-109122100D01*
X144718120Y-112394100D02*
X144718120Y-113034100D01*
X144718120Y-113034100D02*
X145118120Y-113034100D01*
X165248000Y-97265225D02*
X165248000Y-97496895D01*
X165968000Y-97265225D02*
X165968000Y-97496895D01*
D12*
X138206460Y-97791380D02*
X145506460Y-97791380D01*
X138206460Y-102091380D02*
X145506460Y-102091380D01*
D13*
X137206460Y-99941380D02*
G75*
G03*
X137206460Y-99941380I-100000J0D01*
G01*
D11*
X154020468Y-94345080D02*
X155442972Y-94345080D01*
X154020468Y-96165080D02*
X155442972Y-96165080D01*
X150332092Y-97451500D02*
X148909588Y-97451500D01*
X150332092Y-99271500D02*
X148909588Y-99271500D01*
X121590780Y-97534440D02*
X121590780Y-99234440D01*
X121590780Y-103054440D02*
X121590780Y-101354440D01*
X126046343Y-103054440D02*
X121590780Y-103054440D01*
X126046343Y-97534440D02*
X121590780Y-97534440D01*
X127110780Y-98598877D02*
X127110780Y-99234440D01*
X127110780Y-101990003D02*
X127110780Y-101354440D01*
X127110780Y-101990003D02*
X126046343Y-103054440D01*
X127110780Y-98598877D02*
X126046343Y-97534440D01*
X127975780Y-101979440D02*
X127350780Y-101979440D01*
X127663280Y-102291940D02*
X127663280Y-101666940D01*
X131136173Y-104667780D02*
X131428707Y-104667780D01*
X131136173Y-103647780D02*
X131428707Y-103647780D01*
X131398227Y-106605800D02*
X131105693Y-106605800D01*
X131398227Y-105585800D02*
X131105693Y-105585800D01*
X158368188Y-88787300D02*
X158890692Y-88787300D01*
X158368188Y-90257300D02*
X158890692Y-90257300D01*
X166990813Y-95706660D02*
X167283347Y-95706660D01*
X166990813Y-94686660D02*
X167283347Y-94686660D01*
X168455392Y-106142620D02*
X167032888Y-106142620D01*
X168455392Y-103422620D02*
X167032888Y-103422620D01*
X155123980Y-87553852D02*
X155123980Y-86131348D01*
X152403980Y-87553852D02*
X152403980Y-86131348D01*
X167280892Y-88527740D02*
X170112388Y-88527740D01*
X167280892Y-93747740D02*
X170112388Y-93747740D01*
X151793300Y-88475060D02*
X151793300Y-86475060D01*
X151793300Y-86475060D02*
X147943300Y-86475060D01*
X151793300Y-88475060D02*
X147943300Y-88475060D01*
X136915800Y-104016300D02*
X136915800Y-106016300D01*
X136915800Y-106016300D02*
X140765800Y-106016300D01*
X136915800Y-104016300D02*
X140765800Y-104016300D01*
X165274900Y-100635560D02*
X169124900Y-100635560D01*
X165274900Y-102635560D02*
X169124900Y-102635560D01*
X165274900Y-100635560D02*
X165274900Y-102635560D01*
X141485740Y-85611460D02*
X141485740Y-88471460D01*
X141485740Y-88471460D02*
X143405740Y-88471460D01*
X143405740Y-88471460D02*
X143405740Y-85611460D01*
X141977620Y-108008540D02*
X139117620Y-108008540D01*
X139117620Y-108008540D02*
X139117620Y-109928540D01*
X139117620Y-109928540D02*
X141977620Y-109928540D01*
X172821480Y-100732040D02*
X172821480Y-97872040D01*
X170901480Y-100732040D02*
X172821480Y-100732040D01*
X170901480Y-97872040D02*
X170901480Y-100732040D01*
X122493672Y-96092080D02*
X121971168Y-96092080D01*
X122493672Y-94672080D02*
X121971168Y-94672080D01*
X110203960Y-92579540D02*
X110203960Y-92979540D01*
X110843960Y-92579540D02*
X110203960Y-92579540D01*
X114511960Y-99121540D02*
X114115960Y-98726540D01*
X117157960Y-101767540D02*
X116777960Y-101387540D01*
X114229960Y-99372540D02*
X113849960Y-98992540D01*
X116891960Y-102033540D02*
X116495960Y-101638540D01*
X114222960Y-93831540D02*
X114115960Y-93725540D01*
X117157960Y-96767540D02*
X117050960Y-96660540D01*
X113956960Y-94097540D02*
X113849960Y-93991540D01*
X116891960Y-97033540D02*
X116784960Y-96926540D01*
X119563960Y-102939540D02*
X110443960Y-102939540D01*
X119563960Y-92819540D02*
X110443960Y-92819540D01*
X110443960Y-92819540D02*
X110443960Y-102939540D01*
X119563960Y-92819540D02*
X119563960Y-102939540D01*
X112003960Y-92819540D02*
X112003960Y-102939540D01*
X110903960Y-92819540D02*
X110903960Y-102939540D01*
X117683960Y-100379540D02*
G75*
G03*
X117683960Y-100379540I-2180000J0D01*
G01*
X117683960Y-95379540D02*
G75*
G03*
X117683960Y-95379540I-2180000J0D01*
G01*
X138342020Y-84506780D02*
X137942020Y-84506780D01*
X138342020Y-85146780D02*
X138342020Y-84506780D01*
X131800020Y-88814780D02*
X132195020Y-88418780D01*
X129154020Y-91460780D02*
X129534020Y-91080780D01*
X131549020Y-88532780D02*
X131929020Y-88152780D01*
X128888020Y-91194780D02*
X129283020Y-90798780D01*
X137090020Y-88525780D02*
X137196020Y-88418780D01*
X134154020Y-91460780D02*
X134261020Y-91353780D01*
X136824020Y-88259780D02*
X136930020Y-88152780D01*
X133888020Y-91194780D02*
X133995020Y-91087780D01*
X127982020Y-93866780D02*
X127982020Y-84746780D01*
X138102020Y-93866780D02*
X138102020Y-84746780D01*
X138102020Y-84746780D02*
X127982020Y-84746780D01*
X138102020Y-93866780D02*
X127982020Y-93866780D01*
X138102020Y-86306780D02*
X127982020Y-86306780D01*
X138102020Y-85206780D02*
X127982020Y-85206780D01*
X132722020Y-89806780D02*
G75*
G03*
X132722020Y-89806780I-2180000J0D01*
G01*
X137722020Y-89806780D02*
G75*
G03*
X137722020Y-89806780I-2180000J0D01*
G01*
X183282880Y-103843740D02*
X183282880Y-103443740D01*
X182642880Y-103843740D02*
X183282880Y-103843740D01*
X178974880Y-97301740D02*
X179370880Y-97696740D01*
X176328880Y-94655740D02*
X176708880Y-95035740D01*
X179256880Y-97050740D02*
X179636880Y-97430740D01*
X176594880Y-94389740D02*
X176990880Y-94784740D01*
X179263880Y-102591740D02*
X179370880Y-102697740D01*
X176328880Y-99655740D02*
X176435880Y-99762740D01*
X179529880Y-102325740D02*
X179636880Y-102431740D01*
X176594880Y-99389740D02*
X176701880Y-99496740D01*
X173922880Y-93483740D02*
X183042880Y-93483740D01*
X173922880Y-103603740D02*
X183042880Y-103603740D01*
X183042880Y-103603740D02*
X183042880Y-93483740D01*
X173922880Y-103603740D02*
X173922880Y-93483740D01*
X181482880Y-103603740D02*
X181482880Y-93483740D01*
X182582880Y-103603740D02*
X182582880Y-93483740D01*
X180162880Y-96043740D02*
G75*
G03*
X180162880Y-96043740I-2180000J0D01*
G01*
X180162880Y-101043740D02*
G75*
G03*
X180162880Y-101043740I-2180000J0D01*
G01*
X145189340Y-89376980D02*
X146889340Y-89376980D01*
X145189340Y-95976980D02*
X145189340Y-89376980D01*
X146889340Y-95976980D02*
X145189340Y-95976980D01*
X151589340Y-95976980D02*
X149889340Y-95976980D01*
X151589340Y-89376980D02*
X151589340Y-95976980D01*
X149889340Y-89376980D02*
X151589340Y-89376980D01*
X164450300Y-104466520D02*
X164450300Y-106166520D01*
X164450300Y-106166520D02*
X157850300Y-106166520D01*
X157850300Y-106166520D02*
X157850300Y-104466520D01*
X157850300Y-101466520D02*
X157850300Y-99766520D01*
X157850300Y-99766520D02*
X164450300Y-99766520D01*
X164450300Y-99766520D02*
X164450300Y-101466520D01*
X136137720Y-104878348D02*
X136137720Y-105400852D01*
X134717720Y-104878348D02*
X134717720Y-105400852D01*
D14*
X154097660Y-101681280D02*
X153438860Y-101681280D01*
X153438860Y-101681280D02*
X153438860Y-100868480D01*
X156283660Y-101681280D02*
X155624860Y-101681280D01*
X156283660Y-100868480D02*
X156283660Y-101681280D01*
X124546360Y-94714060D02*
X124546360Y-93901260D01*
X124546360Y-93901260D02*
X125205160Y-93901260D01*
X127391160Y-93901260D02*
X127391160Y-94714060D01*
X126732360Y-93901260D02*
X127391160Y-93901260D01*
D11*
X155058376Y-97131200D02*
X155512504Y-97131200D01*
X155058376Y-98601200D02*
X155512504Y-98601200D01*
X126630164Y-105764000D02*
X126176036Y-105764000D01*
X126630164Y-104294000D02*
X126176036Y-104294000D01*
X122545844Y-104296540D02*
X122091716Y-104296540D01*
X122545844Y-105766540D02*
X122091716Y-105766540D01*
X168840480Y-97857576D02*
X168840480Y-98311704D01*
X170310480Y-97857576D02*
X170310480Y-98311704D01*
X168095600Y-97860116D02*
X168095600Y-98314244D01*
X166625600Y-97860116D02*
X166625600Y-98314244D01*
X158399236Y-91093620D02*
X158853364Y-91093620D01*
X158399236Y-92563620D02*
X158853364Y-92563620D01*
X158903404Y-86480980D02*
X158449276Y-86480980D01*
X158903404Y-87950980D02*
X158449276Y-87950980D01*
X167976284Y-108446240D02*
X167522156Y-108446240D01*
X167976284Y-106976240D02*
X167522156Y-106976240D01*
X135633803Y-96614879D02*
X135179675Y-96614879D01*
X135633803Y-95144879D02*
X135179675Y-95144879D01*
X130883803Y-95144879D02*
X130429675Y-95144879D01*
X130883803Y-96614879D02*
X130429675Y-96614879D01*
X150239464Y-83798740D02*
X149785336Y-83798740D01*
X150239464Y-85268740D02*
X149785336Y-85268740D01*
X143236620Y-90972396D02*
X143236620Y-91426524D01*
X141766620Y-90972396D02*
X141766620Y-91426524D01*
X136604744Y-108215760D02*
X136150616Y-108215760D01*
X136604744Y-109685760D02*
X136150616Y-109685760D01*
X171207760Y-103549716D02*
X171207760Y-104003844D01*
X172677760Y-103549716D02*
X172677760Y-104003844D01*
D10*
X135206560Y-102678940D02*
X135206560Y-102628940D01*
X131056560Y-102678940D02*
X131056560Y-102533940D01*
X131056560Y-97528940D02*
X131056560Y-97673940D01*
X135206560Y-97528940D02*
X135206560Y-97673940D01*
X135206560Y-102678940D02*
X131056560Y-102678940D01*
X135206560Y-97528940D02*
X131056560Y-97528940D01*
X135206560Y-102628940D02*
X136606560Y-102628940D01*
D15*
X159710560Y-93971360D02*
G75*
G03*
X159710560Y-93971360I-125000J0D01*
G01*
D11*
X162413048Y-91794000D02*
X162935552Y-91794000D01*
X162413048Y-90324000D02*
X162935552Y-90324000D01*
X154042327Y-93118400D02*
X153749793Y-93118400D01*
X154042327Y-92098400D02*
X153749793Y-92098400D01*
D16*
X150114000Y-101937457D02*
X150114000Y-102209600D01*
X150095857Y-102264028D01*
X150059571Y-102300314D01*
X150005142Y-102318457D01*
X149968857Y-102318457D01*
X150277285Y-101973742D02*
X150295428Y-101955600D01*
X150331714Y-101937457D01*
X150422428Y-101937457D01*
X150458714Y-101955600D01*
X150476857Y-101973742D01*
X150495000Y-102010028D01*
X150495000Y-102046314D01*
X150476857Y-102100742D01*
X150259142Y-102318457D01*
X150495000Y-102318457D01*
X165506400Y-99579611D02*
X165488257Y-99597754D01*
X165433828Y-99615897D01*
X165397542Y-99615897D01*
X165343114Y-99597754D01*
X165306828Y-99561468D01*
X165288685Y-99525182D01*
X165270542Y-99452611D01*
X165270542Y-99398182D01*
X165288685Y-99325611D01*
X165306828Y-99289325D01*
X165343114Y-99253040D01*
X165397542Y-99234897D01*
X165433828Y-99234897D01*
X165488257Y-99253040D01*
X165506400Y-99271182D01*
X165724114Y-99398182D02*
X165687828Y-99380040D01*
X165669685Y-99361897D01*
X165651542Y-99325611D01*
X165651542Y-99307468D01*
X165669685Y-99271182D01*
X165687828Y-99253040D01*
X165724114Y-99234897D01*
X165796685Y-99234897D01*
X165832971Y-99253040D01*
X165851114Y-99271182D01*
X165869257Y-99307468D01*
X165869257Y-99325611D01*
X165851114Y-99361897D01*
X165832971Y-99380040D01*
X165796685Y-99398182D01*
X165724114Y-99398182D01*
X165687828Y-99416325D01*
X165669685Y-99434468D01*
X165651542Y-99470754D01*
X165651542Y-99543325D01*
X165669685Y-99579611D01*
X165687828Y-99597754D01*
X165724114Y-99615897D01*
X165796685Y-99615897D01*
X165832971Y-99597754D01*
X165851114Y-99579611D01*
X165869257Y-99543325D01*
X165869257Y-99470754D01*
X165851114Y-99434468D01*
X165832971Y-99416325D01*
X165796685Y-99398182D01*
X141626771Y-99660891D02*
X141608628Y-99679034D01*
X141554200Y-99697177D01*
X141517914Y-99697177D01*
X141463485Y-99679034D01*
X141427200Y-99642748D01*
X141409057Y-99606462D01*
X141390914Y-99533891D01*
X141390914Y-99479462D01*
X141409057Y-99406891D01*
X141427200Y-99370605D01*
X141463485Y-99334320D01*
X141517914Y-99316177D01*
X141554200Y-99316177D01*
X141608628Y-99334320D01*
X141626771Y-99352462D01*
X141989628Y-99697177D02*
X141771914Y-99697177D01*
X141880771Y-99697177D02*
X141880771Y-99316177D01*
X141844485Y-99370605D01*
X141808200Y-99406891D01*
X141771914Y-99425034D01*
X142225485Y-99316177D02*
X142261771Y-99316177D01*
X142298057Y-99334320D01*
X142316200Y-99352462D01*
X142334342Y-99388748D01*
X142352485Y-99461320D01*
X142352485Y-99552034D01*
X142334342Y-99624605D01*
X142316200Y-99660891D01*
X142298057Y-99679034D01*
X142261771Y-99697177D01*
X142225485Y-99697177D01*
X142189200Y-99679034D01*
X142171057Y-99660891D01*
X142152914Y-99624605D01*
X142134771Y-99552034D01*
X142134771Y-99461320D01*
X142152914Y-99388748D01*
X142171057Y-99352462D01*
X142189200Y-99334320D01*
X142225485Y-99316177D01*
X154663140Y-94004311D02*
X154644997Y-94022454D01*
X154590568Y-94040597D01*
X154554282Y-94040597D01*
X154499854Y-94022454D01*
X154463568Y-93986168D01*
X154445425Y-93949882D01*
X154427282Y-93877311D01*
X154427282Y-93822882D01*
X154445425Y-93750311D01*
X154463568Y-93714025D01*
X154499854Y-93677740D01*
X154554282Y-93659597D01*
X154590568Y-93659597D01*
X154644997Y-93677740D01*
X154663140Y-93695882D01*
X155025997Y-94040597D02*
X154808282Y-94040597D01*
X154917140Y-94040597D02*
X154917140Y-93659597D01*
X154880854Y-93714025D01*
X154844568Y-93750311D01*
X154808282Y-93768454D01*
X148597620Y-100107931D02*
X148579477Y-100126074D01*
X148525048Y-100144217D01*
X148488762Y-100144217D01*
X148434334Y-100126074D01*
X148398048Y-100089788D01*
X148379905Y-100053502D01*
X148361762Y-99980931D01*
X148361762Y-99926502D01*
X148379905Y-99853931D01*
X148398048Y-99817645D01*
X148434334Y-99781360D01*
X148488762Y-99763217D01*
X148525048Y-99763217D01*
X148579477Y-99781360D01*
X148597620Y-99799502D01*
X148742762Y-99799502D02*
X148760905Y-99781360D01*
X148797191Y-99763217D01*
X148887905Y-99763217D01*
X148924191Y-99781360D01*
X148942334Y-99799502D01*
X148960477Y-99835788D01*
X148960477Y-99872074D01*
X148942334Y-99926502D01*
X148724620Y-100144217D01*
X148960477Y-100144217D01*
X122791220Y-97199631D02*
X122773077Y-97217774D01*
X122718648Y-97235917D01*
X122682362Y-97235917D01*
X122627934Y-97217774D01*
X122591648Y-97181488D01*
X122573505Y-97145202D01*
X122555362Y-97072631D01*
X122555362Y-97018202D01*
X122573505Y-96945631D01*
X122591648Y-96909345D01*
X122627934Y-96873060D01*
X122682362Y-96854917D01*
X122718648Y-96854917D01*
X122773077Y-96873060D01*
X122791220Y-96891202D01*
X122918220Y-96854917D02*
X123154077Y-96854917D01*
X123027077Y-97000060D01*
X123081505Y-97000060D01*
X123117791Y-97018202D01*
X123135934Y-97036345D01*
X123154077Y-97072631D01*
X123154077Y-97163345D01*
X123135934Y-97199631D01*
X123117791Y-97217774D01*
X123081505Y-97235917D01*
X122972648Y-97235917D01*
X122936362Y-97217774D01*
X122918220Y-97199631D01*
X129029460Y-104400531D02*
X129011317Y-104418674D01*
X128956888Y-104436817D01*
X128920602Y-104436817D01*
X128866174Y-104418674D01*
X128829888Y-104382388D01*
X128811745Y-104346102D01*
X128793602Y-104273531D01*
X128793602Y-104219102D01*
X128811745Y-104146531D01*
X128829888Y-104110245D01*
X128866174Y-104073960D01*
X128920602Y-104055817D01*
X128956888Y-104055817D01*
X129011317Y-104073960D01*
X129029460Y-104092102D01*
X129374174Y-104055817D02*
X129192745Y-104055817D01*
X129174602Y-104237245D01*
X129192745Y-104219102D01*
X129229031Y-104200960D01*
X129319745Y-104200960D01*
X129356031Y-104219102D01*
X129374174Y-104237245D01*
X129392317Y-104273531D01*
X129392317Y-104364245D01*
X129374174Y-104400531D01*
X129356031Y-104418674D01*
X129319745Y-104436817D01*
X129229031Y-104436817D01*
X129192745Y-104418674D01*
X129174602Y-104400531D01*
X129042160Y-106333471D02*
X129024017Y-106351614D01*
X128969588Y-106369757D01*
X128933302Y-106369757D01*
X128878874Y-106351614D01*
X128842588Y-106315328D01*
X128824445Y-106279042D01*
X128806302Y-106206471D01*
X128806302Y-106152042D01*
X128824445Y-106079471D01*
X128842588Y-106043185D01*
X128878874Y-106006900D01*
X128933302Y-105988757D01*
X128969588Y-105988757D01*
X129024017Y-106006900D01*
X129042160Y-106025042D01*
X129169160Y-105988757D02*
X129423160Y-105988757D01*
X129259874Y-106369757D01*
X156231680Y-89132591D02*
X156213537Y-89150734D01*
X156159108Y-89168877D01*
X156122822Y-89168877D01*
X156068394Y-89150734D01*
X156032108Y-89114448D01*
X156013965Y-89078162D01*
X155995822Y-89005591D01*
X155995822Y-88951162D01*
X156013965Y-88878591D01*
X156032108Y-88842305D01*
X156068394Y-88806020D01*
X156122822Y-88787877D01*
X156159108Y-88787877D01*
X156213537Y-88806020D01*
X156231680Y-88824162D01*
X156413108Y-89168877D02*
X156485680Y-89168877D01*
X156521965Y-89150734D01*
X156540108Y-89132591D01*
X156576394Y-89078162D01*
X156594537Y-89005591D01*
X156594537Y-88860448D01*
X156576394Y-88824162D01*
X156558251Y-88806020D01*
X156521965Y-88787877D01*
X156449394Y-88787877D01*
X156413108Y-88806020D01*
X156394965Y-88824162D01*
X156376822Y-88860448D01*
X156376822Y-88951162D01*
X156394965Y-88987448D01*
X156413108Y-89005591D01*
X156449394Y-89023734D01*
X156521965Y-89023734D01*
X156558251Y-89005591D01*
X156576394Y-88987448D01*
X156594537Y-88951162D01*
X169246731Y-94842511D02*
X169228588Y-94860654D01*
X169174160Y-94878797D01*
X169137874Y-94878797D01*
X169083445Y-94860654D01*
X169047160Y-94824368D01*
X169029017Y-94788082D01*
X169010874Y-94715511D01*
X169010874Y-94661082D01*
X169029017Y-94588511D01*
X169047160Y-94552225D01*
X169083445Y-94515940D01*
X169137874Y-94497797D01*
X169174160Y-94497797D01*
X169228588Y-94515940D01*
X169246731Y-94534082D01*
X169609588Y-94878797D02*
X169391874Y-94878797D01*
X169500731Y-94878797D02*
X169500731Y-94497797D01*
X169464445Y-94552225D01*
X169428160Y-94588511D01*
X169391874Y-94606654D01*
X169972445Y-94878797D02*
X169754731Y-94878797D01*
X169863588Y-94878797D02*
X169863588Y-94497797D01*
X169827302Y-94552225D01*
X169791017Y-94588511D01*
X169754731Y-94606654D01*
X170074771Y-106925291D02*
X170056628Y-106943434D01*
X170002200Y-106961577D01*
X169965914Y-106961577D01*
X169911485Y-106943434D01*
X169875200Y-106907148D01*
X169857057Y-106870862D01*
X169838914Y-106798291D01*
X169838914Y-106743862D01*
X169857057Y-106671291D01*
X169875200Y-106635005D01*
X169911485Y-106598720D01*
X169965914Y-106580577D01*
X170002200Y-106580577D01*
X170056628Y-106598720D01*
X170074771Y-106616862D01*
X170437628Y-106961577D02*
X170219914Y-106961577D01*
X170328771Y-106961577D02*
X170328771Y-106580577D01*
X170292485Y-106635005D01*
X170256200Y-106671291D01*
X170219914Y-106689434D01*
X170582771Y-106616862D02*
X170600914Y-106598720D01*
X170637200Y-106580577D01*
X170727914Y-106580577D01*
X170764200Y-106598720D01*
X170782342Y-106616862D01*
X170800485Y-106653148D01*
X170800485Y-106689434D01*
X170782342Y-106743862D01*
X170564628Y-106961577D01*
X170800485Y-106961577D01*
X152548771Y-84065291D02*
X152530628Y-84083434D01*
X152476200Y-84101577D01*
X152439914Y-84101577D01*
X152385485Y-84083434D01*
X152349200Y-84047148D01*
X152331057Y-84010862D01*
X152312914Y-83938291D01*
X152312914Y-83883862D01*
X152331057Y-83811291D01*
X152349200Y-83775005D01*
X152385485Y-83738720D01*
X152439914Y-83720577D01*
X152476200Y-83720577D01*
X152530628Y-83738720D01*
X152548771Y-83756862D01*
X152911628Y-84101577D02*
X152693914Y-84101577D01*
X152802771Y-84101577D02*
X152802771Y-83720577D01*
X152766485Y-83775005D01*
X152730200Y-83811291D01*
X152693914Y-83829434D01*
X153038628Y-83720577D02*
X153274485Y-83720577D01*
X153147485Y-83865720D01*
X153201914Y-83865720D01*
X153238200Y-83883862D01*
X153256342Y-83902005D01*
X153274485Y-83938291D01*
X153274485Y-84029005D01*
X153256342Y-84065291D01*
X153238200Y-84083434D01*
X153201914Y-84101577D01*
X153093057Y-84101577D01*
X153056771Y-84083434D01*
X153038628Y-84065291D01*
X167560171Y-87766071D02*
X167542028Y-87784214D01*
X167487600Y-87802357D01*
X167451314Y-87802357D01*
X167396885Y-87784214D01*
X167360600Y-87747928D01*
X167342457Y-87711642D01*
X167324314Y-87639071D01*
X167324314Y-87584642D01*
X167342457Y-87512071D01*
X167360600Y-87475785D01*
X167396885Y-87439500D01*
X167451314Y-87421357D01*
X167487600Y-87421357D01*
X167542028Y-87439500D01*
X167560171Y-87457642D01*
X167923028Y-87802357D02*
X167705314Y-87802357D01*
X167814171Y-87802357D02*
X167814171Y-87421357D01*
X167777885Y-87475785D01*
X167741600Y-87512071D01*
X167705314Y-87530214D01*
X168249600Y-87548357D02*
X168249600Y-87802357D01*
X168158885Y-87403214D02*
X168068171Y-87675357D01*
X168304028Y-87675357D01*
X148293545Y-85996417D02*
X148293545Y-85615417D01*
X148384260Y-85615417D01*
X148438688Y-85633560D01*
X148474974Y-85669845D01*
X148493117Y-85706131D01*
X148511260Y-85778702D01*
X148511260Y-85833131D01*
X148493117Y-85905702D01*
X148474974Y-85941988D01*
X148438688Y-85978274D01*
X148384260Y-85996417D01*
X148293545Y-85996417D01*
X148874117Y-85996417D02*
X148656402Y-85996417D01*
X148765260Y-85996417D02*
X148765260Y-85615417D01*
X148728974Y-85669845D01*
X148692688Y-85706131D01*
X148656402Y-85724274D01*
X137686505Y-103702757D02*
X137686505Y-103321757D01*
X137777220Y-103321757D01*
X137831648Y-103339900D01*
X137867934Y-103376185D01*
X137886077Y-103412471D01*
X137904220Y-103485042D01*
X137904220Y-103539471D01*
X137886077Y-103612042D01*
X137867934Y-103648328D01*
X137831648Y-103684614D01*
X137777220Y-103702757D01*
X137686505Y-103702757D01*
X138049362Y-103358042D02*
X138067505Y-103339900D01*
X138103791Y-103321757D01*
X138194505Y-103321757D01*
X138230791Y-103339900D01*
X138248934Y-103358042D01*
X138267077Y-103394328D01*
X138267077Y-103430614D01*
X138248934Y-103485042D01*
X138031220Y-103702757D01*
X138267077Y-103702757D01*
X165537605Y-100301697D02*
X165537605Y-99920697D01*
X165628320Y-99920697D01*
X165682748Y-99938840D01*
X165719034Y-99975125D01*
X165737177Y-100011411D01*
X165755320Y-100083982D01*
X165755320Y-100138411D01*
X165737177Y-100210982D01*
X165719034Y-100247268D01*
X165682748Y-100283554D01*
X165628320Y-100301697D01*
X165537605Y-100301697D01*
X165882320Y-99920697D02*
X166118177Y-99920697D01*
X165991177Y-100065840D01*
X166045605Y-100065840D01*
X166081891Y-100083982D01*
X166100034Y-100102125D01*
X166118177Y-100138411D01*
X166118177Y-100229125D01*
X166100034Y-100265411D01*
X166081891Y-100283554D01*
X166045605Y-100301697D01*
X165936748Y-100301697D01*
X165900462Y-100283554D01*
X165882320Y-100265411D01*
X141770825Y-84581637D02*
X141770825Y-84200637D01*
X141861540Y-84200637D01*
X141915968Y-84218780D01*
X141952254Y-84255065D01*
X141970397Y-84291351D01*
X141988540Y-84363922D01*
X141988540Y-84418351D01*
X141970397Y-84490922D01*
X141952254Y-84527208D01*
X141915968Y-84563494D01*
X141861540Y-84581637D01*
X141770825Y-84581637D01*
X142315111Y-84327637D02*
X142315111Y-84581637D01*
X142224397Y-84182494D02*
X142133682Y-84454637D01*
X142369540Y-84454637D01*
X139774385Y-107830257D02*
X139774385Y-107449257D01*
X139865100Y-107449257D01*
X139919528Y-107467400D01*
X139955814Y-107503685D01*
X139973957Y-107539971D01*
X139992100Y-107612542D01*
X139992100Y-107666971D01*
X139973957Y-107739542D01*
X139955814Y-107775828D01*
X139919528Y-107812114D01*
X139865100Y-107830257D01*
X139774385Y-107830257D01*
X140336814Y-107449257D02*
X140155385Y-107449257D01*
X140137242Y-107630685D01*
X140155385Y-107612542D01*
X140191671Y-107594400D01*
X140282385Y-107594400D01*
X140318671Y-107612542D01*
X140336814Y-107630685D01*
X140354957Y-107666971D01*
X140354957Y-107757685D01*
X140336814Y-107793971D01*
X140318671Y-107812114D01*
X140282385Y-107830257D01*
X140191671Y-107830257D01*
X140155385Y-107812114D01*
X140137242Y-107793971D01*
X171587885Y-96222457D02*
X171587885Y-95841457D01*
X171678600Y-95841457D01*
X171733028Y-95859600D01*
X171769314Y-95895885D01*
X171787457Y-95932171D01*
X171805600Y-96004742D01*
X171805600Y-96059171D01*
X171787457Y-96131742D01*
X171769314Y-96168028D01*
X171733028Y-96204314D01*
X171678600Y-96222457D01*
X171587885Y-96222457D01*
X172132171Y-95841457D02*
X172059600Y-95841457D01*
X172023314Y-95859600D01*
X172005171Y-95877742D01*
X171968885Y-95932171D01*
X171950742Y-96004742D01*
X171950742Y-96149885D01*
X171968885Y-96186171D01*
X171987028Y-96204314D01*
X172023314Y-96222457D01*
X172095885Y-96222457D01*
X172132171Y-96204314D01*
X172150314Y-96186171D01*
X172168457Y-96149885D01*
X172168457Y-96059171D01*
X172150314Y-96022885D01*
X172132171Y-96004742D01*
X172095885Y-95986600D01*
X172023314Y-95986600D01*
X171987028Y-96004742D01*
X171968885Y-96022885D01*
X171950742Y-96059171D01*
X121099580Y-94018825D02*
X120972580Y-94018825D01*
X120972580Y-94218397D02*
X120972580Y-93837397D01*
X121154008Y-93837397D01*
X121498722Y-94218397D02*
X121281008Y-94218397D01*
X121389865Y-94218397D02*
X121389865Y-93837397D01*
X121353580Y-93891825D01*
X121317294Y-93928111D01*
X121281008Y-93946254D01*
X113069914Y-81907498D02*
X113069914Y-81526498D01*
X113069914Y-81707926D02*
X113287628Y-81707926D01*
X113287628Y-81907498D02*
X113287628Y-81526498D01*
X113668628Y-81907498D02*
X113450914Y-81907498D01*
X113559771Y-81907498D02*
X113559771Y-81526498D01*
X113523485Y-81580926D01*
X113487200Y-81617212D01*
X113450914Y-81635355D01*
X113377935Y-106120837D02*
X113377935Y-105739837D01*
X113377935Y-105921265D02*
X113595649Y-105921265D01*
X113595649Y-106120837D02*
X113595649Y-105739837D01*
X113758935Y-105776122D02*
X113777078Y-105757980D01*
X113813363Y-105739837D01*
X113904078Y-105739837D01*
X113940363Y-105757980D01*
X113958506Y-105776122D01*
X113976649Y-105812408D01*
X113976649Y-105848694D01*
X113958506Y-105903122D01*
X113740792Y-106120837D01*
X113976649Y-106120837D01*
X179514952Y-106257997D02*
X179514952Y-105876997D01*
X179514952Y-106058425D02*
X179732666Y-106058425D01*
X179732666Y-106257997D02*
X179732666Y-105876997D01*
X179877809Y-105876997D02*
X180113666Y-105876997D01*
X179986666Y-106022140D01*
X180041095Y-106022140D01*
X180077380Y-106040282D01*
X180095523Y-106058425D01*
X180113666Y-106094711D01*
X180113666Y-106185425D01*
X180095523Y-106221711D01*
X180077380Y-106239854D01*
X180041095Y-106257997D01*
X179932238Y-106257997D01*
X179895952Y-106239854D01*
X179877809Y-106221711D01*
X179617914Y-82214357D02*
X179617914Y-81833357D01*
X179617914Y-82014785D02*
X179835628Y-82014785D01*
X179835628Y-82214357D02*
X179835628Y-81833357D01*
X180180342Y-81960357D02*
X180180342Y-82214357D01*
X180089628Y-81815214D02*
X179998914Y-82087357D01*
X180234771Y-82087357D01*
X109382560Y-97736297D02*
X109382560Y-98008440D01*
X109364417Y-98062868D01*
X109328131Y-98099154D01*
X109273702Y-98117297D01*
X109237417Y-98117297D01*
X109763560Y-98117297D02*
X109545845Y-98117297D01*
X109654702Y-98117297D02*
X109654702Y-97736297D01*
X109618417Y-97790725D01*
X109582131Y-97827011D01*
X109545845Y-97845154D01*
X130108960Y-83639297D02*
X130108960Y-83911440D01*
X130090817Y-83965868D01*
X130054531Y-84002154D01*
X130000102Y-84020297D01*
X129963817Y-84020297D01*
X130254102Y-83639297D02*
X130489960Y-83639297D01*
X130362960Y-83784440D01*
X130417388Y-83784440D01*
X130453674Y-83802582D01*
X130471817Y-83820725D01*
X130489960Y-83857011D01*
X130489960Y-83947725D01*
X130471817Y-83984011D01*
X130453674Y-84002154D01*
X130417388Y-84020297D01*
X130308531Y-84020297D01*
X130272245Y-84002154D01*
X130254102Y-83984011D01*
X184241440Y-98241757D02*
X184241440Y-98513900D01*
X184223297Y-98568328D01*
X184187011Y-98604614D01*
X184132582Y-98622757D01*
X184096297Y-98622757D01*
X184586154Y-98368757D02*
X184586154Y-98622757D01*
X184495440Y-98223614D02*
X184404725Y-98495757D01*
X184640582Y-98495757D01*
X145577560Y-88673577D02*
X145396131Y-88673577D01*
X145396131Y-88292577D01*
X145904131Y-88673577D02*
X145686417Y-88673577D01*
X145795274Y-88673577D02*
X145795274Y-88292577D01*
X145758988Y-88347005D01*
X145722702Y-88383291D01*
X145686417Y-88401434D01*
X161076640Y-107197797D02*
X160895211Y-107197797D01*
X160895211Y-106816797D01*
X161185497Y-106853082D02*
X161203640Y-106834940D01*
X161239925Y-106816797D01*
X161330640Y-106816797D01*
X161366925Y-106834940D01*
X161385068Y-106853082D01*
X161403211Y-106889368D01*
X161403211Y-106925654D01*
X161385068Y-106980082D01*
X161167354Y-107197797D01*
X161403211Y-107197797D01*
X134731760Y-107649917D02*
X134550331Y-107649917D01*
X134550331Y-107268917D01*
X134822474Y-107268917D02*
X135058331Y-107268917D01*
X134931331Y-107414060D01*
X134985760Y-107414060D01*
X135022045Y-107432202D01*
X135040188Y-107450345D01*
X135058331Y-107486631D01*
X135058331Y-107577345D01*
X135040188Y-107613631D01*
X135022045Y-107631774D01*
X134985760Y-107649917D01*
X134876902Y-107649917D01*
X134840617Y-107631774D01*
X134822474Y-107613631D01*
X152696454Y-100693582D02*
X152660168Y-100675440D01*
X152623882Y-100639154D01*
X152569454Y-100584725D01*
X152533168Y-100566582D01*
X152496882Y-100566582D01*
X152515025Y-100657297D02*
X152478740Y-100639154D01*
X152442454Y-100602868D01*
X152424311Y-100530297D01*
X152424311Y-100403297D01*
X152442454Y-100330725D01*
X152478740Y-100294440D01*
X152515025Y-100276297D01*
X152587597Y-100276297D01*
X152623882Y-100294440D01*
X152660168Y-100330725D01*
X152678311Y-100403297D01*
X152678311Y-100530297D01*
X152660168Y-100602868D01*
X152623882Y-100639154D01*
X152587597Y-100657297D01*
X152515025Y-100657297D01*
X153041168Y-100657297D02*
X152823454Y-100657297D01*
X152932311Y-100657297D02*
X152932311Y-100276297D01*
X152896025Y-100330725D01*
X152859740Y-100367011D01*
X152823454Y-100385154D01*
X125924854Y-92316662D02*
X125888568Y-92298520D01*
X125852282Y-92262234D01*
X125797854Y-92207805D01*
X125761568Y-92189662D01*
X125725282Y-92189662D01*
X125743425Y-92280377D02*
X125707140Y-92262234D01*
X125670854Y-92225948D01*
X125652711Y-92153377D01*
X125652711Y-92026377D01*
X125670854Y-91953805D01*
X125707140Y-91917520D01*
X125743425Y-91899377D01*
X125815997Y-91899377D01*
X125852282Y-91917520D01*
X125888568Y-91953805D01*
X125906711Y-92026377D01*
X125906711Y-92153377D01*
X125888568Y-92225948D01*
X125852282Y-92262234D01*
X125815997Y-92280377D01*
X125743425Y-92280377D01*
X126051854Y-91935662D02*
X126069997Y-91917520D01*
X126106282Y-91899377D01*
X126196997Y-91899377D01*
X126233282Y-91917520D01*
X126251425Y-91935662D01*
X126269568Y-91971948D01*
X126269568Y-92008234D01*
X126251425Y-92062662D01*
X126033711Y-92280377D01*
X126269568Y-92280377D01*
X152874980Y-97624537D02*
X152747980Y-97443108D01*
X152657265Y-97624537D02*
X152657265Y-97243537D01*
X152802408Y-97243537D01*
X152838694Y-97261680D01*
X152856837Y-97279822D01*
X152874980Y-97316108D01*
X152874980Y-97370537D01*
X152856837Y-97406822D01*
X152838694Y-97424965D01*
X152802408Y-97443108D01*
X152657265Y-97443108D01*
X153237837Y-97624537D02*
X153020122Y-97624537D01*
X153128980Y-97624537D02*
X153128980Y-97243537D01*
X153092694Y-97297965D01*
X153056408Y-97334251D01*
X153020122Y-97352394D01*
X125684280Y-106826957D02*
X125557280Y-106645528D01*
X125466565Y-106826957D02*
X125466565Y-106445957D01*
X125611708Y-106445957D01*
X125647994Y-106464100D01*
X125666137Y-106482242D01*
X125684280Y-106518528D01*
X125684280Y-106572957D01*
X125666137Y-106609242D01*
X125647994Y-106627385D01*
X125611708Y-106645528D01*
X125466565Y-106645528D01*
X125829422Y-106482242D02*
X125847565Y-106464100D01*
X125883851Y-106445957D01*
X125974565Y-106445957D01*
X126010851Y-106464100D01*
X126028994Y-106482242D01*
X126047137Y-106518528D01*
X126047137Y-106554814D01*
X126028994Y-106609242D01*
X125811280Y-106826957D01*
X126047137Y-106826957D01*
X121368820Y-106745677D02*
X121241820Y-106564248D01*
X121151105Y-106745677D02*
X121151105Y-106364677D01*
X121296248Y-106364677D01*
X121332534Y-106382820D01*
X121350677Y-106400962D01*
X121368820Y-106437248D01*
X121368820Y-106491677D01*
X121350677Y-106527962D01*
X121332534Y-106546105D01*
X121296248Y-106564248D01*
X121151105Y-106564248D01*
X121495820Y-106364677D02*
X121731677Y-106364677D01*
X121604677Y-106509820D01*
X121659105Y-106509820D01*
X121695391Y-106527962D01*
X121713534Y-106546105D01*
X121731677Y-106582391D01*
X121731677Y-106673105D01*
X121713534Y-106709391D01*
X121695391Y-106727534D01*
X121659105Y-106745677D01*
X121550248Y-106745677D01*
X121513962Y-106727534D01*
X121495820Y-106709391D01*
X169158920Y-96120857D02*
X169031920Y-95939428D01*
X168941205Y-96120857D02*
X168941205Y-95739857D01*
X169086348Y-95739857D01*
X169122634Y-95758000D01*
X169140777Y-95776142D01*
X169158920Y-95812428D01*
X169158920Y-95866857D01*
X169140777Y-95903142D01*
X169122634Y-95921285D01*
X169086348Y-95939428D01*
X168941205Y-95939428D01*
X169485491Y-95866857D02*
X169485491Y-96120857D01*
X169394777Y-95721714D02*
X169304062Y-95993857D01*
X169539920Y-95993857D01*
X167248840Y-100415997D02*
X167121840Y-100234568D01*
X167031125Y-100415997D02*
X167031125Y-100034997D01*
X167176268Y-100034997D01*
X167212554Y-100053140D01*
X167230697Y-100071282D01*
X167248840Y-100107568D01*
X167248840Y-100161997D01*
X167230697Y-100198282D01*
X167212554Y-100216425D01*
X167176268Y-100234568D01*
X167031125Y-100234568D01*
X167593554Y-100034997D02*
X167412125Y-100034997D01*
X167393982Y-100216425D01*
X167412125Y-100198282D01*
X167448411Y-100180140D01*
X167539125Y-100180140D01*
X167575411Y-100198282D01*
X167593554Y-100216425D01*
X167611697Y-100252711D01*
X167611697Y-100343425D01*
X167593554Y-100379711D01*
X167575411Y-100397854D01*
X167539125Y-100415997D01*
X167448411Y-100415997D01*
X167412125Y-100397854D01*
X167393982Y-100379711D01*
X157652720Y-93298917D02*
X157525720Y-93117488D01*
X157435005Y-93298917D02*
X157435005Y-92917917D01*
X157580148Y-92917917D01*
X157616434Y-92936060D01*
X157634577Y-92954202D01*
X157652720Y-92990488D01*
X157652720Y-93044917D01*
X157634577Y-93081202D01*
X157616434Y-93099345D01*
X157580148Y-93117488D01*
X157435005Y-93117488D01*
X157979291Y-92917917D02*
X157906720Y-92917917D01*
X157870434Y-92936060D01*
X157852291Y-92954202D01*
X157816005Y-93008631D01*
X157797862Y-93081202D01*
X157797862Y-93226345D01*
X157816005Y-93262631D01*
X157834148Y-93280774D01*
X157870434Y-93298917D01*
X157943005Y-93298917D01*
X157979291Y-93280774D01*
X157997434Y-93262631D01*
X158015577Y-93226345D01*
X158015577Y-93135631D01*
X157997434Y-93099345D01*
X157979291Y-93081202D01*
X157943005Y-93063060D01*
X157870434Y-93063060D01*
X157834148Y-93081202D01*
X157816005Y-93099345D01*
X157797862Y-93135631D01*
X156301440Y-87047977D02*
X156174440Y-86866548D01*
X156083725Y-87047977D02*
X156083725Y-86666977D01*
X156228868Y-86666977D01*
X156265154Y-86685120D01*
X156283297Y-86703262D01*
X156301440Y-86739548D01*
X156301440Y-86793977D01*
X156283297Y-86830262D01*
X156265154Y-86848405D01*
X156228868Y-86866548D01*
X156083725Y-86866548D01*
X156428440Y-86666977D02*
X156682440Y-86666977D01*
X156519154Y-87047977D01*
X167236140Y-109280597D02*
X167109140Y-109099168D01*
X167018425Y-109280597D02*
X167018425Y-108899597D01*
X167163568Y-108899597D01*
X167199854Y-108917740D01*
X167217997Y-108935882D01*
X167236140Y-108972168D01*
X167236140Y-109026597D01*
X167217997Y-109062882D01*
X167199854Y-109081025D01*
X167163568Y-109099168D01*
X167018425Y-109099168D01*
X167453854Y-109062882D02*
X167417568Y-109044740D01*
X167399425Y-109026597D01*
X167381282Y-108990311D01*
X167381282Y-108972168D01*
X167399425Y-108935882D01*
X167417568Y-108917740D01*
X167453854Y-108899597D01*
X167526425Y-108899597D01*
X167562711Y-108917740D01*
X167580854Y-108935882D01*
X167598997Y-108972168D01*
X167598997Y-108990311D01*
X167580854Y-109026597D01*
X167562711Y-109044740D01*
X167526425Y-109062882D01*
X167453854Y-109062882D01*
X167417568Y-109081025D01*
X167399425Y-109099168D01*
X167381282Y-109135454D01*
X167381282Y-109208025D01*
X167399425Y-109244311D01*
X167417568Y-109262454D01*
X167453854Y-109280597D01*
X167526425Y-109280597D01*
X167562711Y-109262454D01*
X167580854Y-109244311D01*
X167598997Y-109208025D01*
X167598997Y-109135454D01*
X167580854Y-109099168D01*
X167562711Y-109081025D01*
X167526425Y-109062882D01*
X134543800Y-94772117D02*
X134416800Y-94590688D01*
X134326085Y-94772117D02*
X134326085Y-94391117D01*
X134471228Y-94391117D01*
X134507514Y-94409260D01*
X134525657Y-94427402D01*
X134543800Y-94463688D01*
X134543800Y-94518117D01*
X134525657Y-94554402D01*
X134507514Y-94572545D01*
X134471228Y-94590688D01*
X134326085Y-94590688D01*
X134725228Y-94772117D02*
X134797800Y-94772117D01*
X134834085Y-94753974D01*
X134852228Y-94735831D01*
X134888514Y-94681402D01*
X134906657Y-94608831D01*
X134906657Y-94463688D01*
X134888514Y-94427402D01*
X134870371Y-94409260D01*
X134834085Y-94391117D01*
X134761514Y-94391117D01*
X134725228Y-94409260D01*
X134707085Y-94427402D01*
X134688942Y-94463688D01*
X134688942Y-94554402D01*
X134707085Y-94590688D01*
X134725228Y-94608831D01*
X134761514Y-94626974D01*
X134834085Y-94626974D01*
X134870371Y-94608831D01*
X134888514Y-94590688D01*
X134906657Y-94554402D01*
X129612571Y-94693377D02*
X129485571Y-94511948D01*
X129394857Y-94693377D02*
X129394857Y-94312377D01*
X129540000Y-94312377D01*
X129576285Y-94330520D01*
X129594428Y-94348662D01*
X129612571Y-94384948D01*
X129612571Y-94439377D01*
X129594428Y-94475662D01*
X129576285Y-94493805D01*
X129540000Y-94511948D01*
X129394857Y-94511948D01*
X129975428Y-94693377D02*
X129757714Y-94693377D01*
X129866571Y-94693377D02*
X129866571Y-94312377D01*
X129830285Y-94366805D01*
X129794000Y-94403091D01*
X129757714Y-94421234D01*
X130211285Y-94312377D02*
X130247571Y-94312377D01*
X130283857Y-94330520D01*
X130302000Y-94348662D01*
X130320142Y-94384948D01*
X130338285Y-94457520D01*
X130338285Y-94548234D01*
X130320142Y-94620805D01*
X130302000Y-94657091D01*
X130283857Y-94675234D01*
X130247571Y-94693377D01*
X130211285Y-94693377D01*
X130175000Y-94675234D01*
X130156857Y-94657091D01*
X130138714Y-94620805D01*
X130120571Y-94548234D01*
X130120571Y-94457520D01*
X130138714Y-94384948D01*
X130156857Y-94348662D01*
X130175000Y-94330520D01*
X130211285Y-94312377D01*
X148936891Y-83387837D02*
X148809891Y-83206408D01*
X148719177Y-83387837D02*
X148719177Y-83006837D01*
X148864320Y-83006837D01*
X148900605Y-83024980D01*
X148918748Y-83043122D01*
X148936891Y-83079408D01*
X148936891Y-83133837D01*
X148918748Y-83170122D01*
X148900605Y-83188265D01*
X148864320Y-83206408D01*
X148719177Y-83206408D01*
X149299748Y-83387837D02*
X149082034Y-83387837D01*
X149190891Y-83387837D02*
X149190891Y-83006837D01*
X149154605Y-83061265D01*
X149118320Y-83097551D01*
X149082034Y-83115694D01*
X149662605Y-83387837D02*
X149444891Y-83387837D01*
X149553748Y-83387837D02*
X149553748Y-83006837D01*
X149517462Y-83061265D01*
X149481177Y-83097551D01*
X149444891Y-83115694D01*
X140537111Y-90870677D02*
X140410111Y-90689248D01*
X140319397Y-90870677D02*
X140319397Y-90489677D01*
X140464540Y-90489677D01*
X140500825Y-90507820D01*
X140518968Y-90525962D01*
X140537111Y-90562248D01*
X140537111Y-90616677D01*
X140518968Y-90652962D01*
X140500825Y-90671105D01*
X140464540Y-90689248D01*
X140319397Y-90689248D01*
X140899968Y-90870677D02*
X140682254Y-90870677D01*
X140791111Y-90870677D02*
X140791111Y-90489677D01*
X140754825Y-90544105D01*
X140718540Y-90580391D01*
X140682254Y-90598534D01*
X141045111Y-90525962D02*
X141063254Y-90507820D01*
X141099540Y-90489677D01*
X141190254Y-90489677D01*
X141226540Y-90507820D01*
X141244682Y-90525962D01*
X141262825Y-90562248D01*
X141262825Y-90598534D01*
X141244682Y-90652962D01*
X141026968Y-90870677D01*
X141262825Y-90870677D01*
X135279311Y-110555677D02*
X135152311Y-110374248D01*
X135061597Y-110555677D02*
X135061597Y-110174677D01*
X135206740Y-110174677D01*
X135243025Y-110192820D01*
X135261168Y-110210962D01*
X135279311Y-110247248D01*
X135279311Y-110301677D01*
X135261168Y-110337962D01*
X135243025Y-110356105D01*
X135206740Y-110374248D01*
X135061597Y-110374248D01*
X135642168Y-110555677D02*
X135424454Y-110555677D01*
X135533311Y-110555677D02*
X135533311Y-110174677D01*
X135497025Y-110229105D01*
X135460740Y-110265391D01*
X135424454Y-110283534D01*
X135769168Y-110174677D02*
X136005025Y-110174677D01*
X135878025Y-110319820D01*
X135932454Y-110319820D01*
X135968740Y-110337962D01*
X135986882Y-110356105D01*
X136005025Y-110392391D01*
X136005025Y-110483105D01*
X135986882Y-110519391D01*
X135968740Y-110537534D01*
X135932454Y-110555677D01*
X135823597Y-110555677D01*
X135787311Y-110537534D01*
X135769168Y-110519391D01*
X170102711Y-102519117D02*
X169975711Y-102337688D01*
X169884997Y-102519117D02*
X169884997Y-102138117D01*
X170030140Y-102138117D01*
X170066425Y-102156260D01*
X170084568Y-102174402D01*
X170102711Y-102210688D01*
X170102711Y-102265117D01*
X170084568Y-102301402D01*
X170066425Y-102319545D01*
X170030140Y-102337688D01*
X169884997Y-102337688D01*
X170465568Y-102519117D02*
X170247854Y-102519117D01*
X170356711Y-102519117D02*
X170356711Y-102138117D01*
X170320425Y-102192545D01*
X170284140Y-102228831D01*
X170247854Y-102246974D01*
X170792140Y-102265117D02*
X170792140Y-102519117D01*
X170701425Y-102119974D02*
X170610711Y-102392117D01*
X170846568Y-102392117D01*
X128541054Y-97779477D02*
X128541054Y-98087905D01*
X128559197Y-98124191D01*
X128577340Y-98142334D01*
X128613625Y-98160477D01*
X128686197Y-98160477D01*
X128722482Y-98142334D01*
X128740625Y-98124191D01*
X128758768Y-98087905D01*
X128758768Y-97779477D01*
X129139768Y-98160477D02*
X128922054Y-98160477D01*
X129030911Y-98160477D02*
X129030911Y-97779477D01*
X128994625Y-97833905D01*
X128958340Y-97870191D01*
X128922054Y-97888334D01*
D17*
X160720798Y-96545883D02*
X160720798Y-95275883D01*
X162051274Y-96424931D02*
X161990798Y-96485407D01*
X161809369Y-96545883D01*
X161688417Y-96545883D01*
X161506988Y-96485407D01*
X161386036Y-96364455D01*
X161325560Y-96243502D01*
X161265083Y-96001598D01*
X161265083Y-95820169D01*
X161325560Y-95578264D01*
X161386036Y-95457312D01*
X161506988Y-95336360D01*
X161688417Y-95275883D01*
X161809369Y-95275883D01*
X161990798Y-95336360D01*
X162051274Y-95396836D01*
X163260798Y-96545883D02*
X162535083Y-96545883D01*
X162897940Y-96545883D02*
X162897940Y-95275883D01*
X162776988Y-95457312D01*
X162656036Y-95578264D01*
X162535083Y-95638740D01*
D16*
X161632900Y-89871731D02*
X161614757Y-89889874D01*
X161560328Y-89908017D01*
X161524042Y-89908017D01*
X161469614Y-89889874D01*
X161433328Y-89853588D01*
X161415185Y-89817302D01*
X161397042Y-89744731D01*
X161397042Y-89690302D01*
X161415185Y-89617731D01*
X161433328Y-89581445D01*
X161469614Y-89545160D01*
X161524042Y-89527017D01*
X161560328Y-89527017D01*
X161614757Y-89545160D01*
X161632900Y-89563302D01*
X161959471Y-89527017D02*
X161886900Y-89527017D01*
X161850614Y-89545160D01*
X161832471Y-89563302D01*
X161796185Y-89617731D01*
X161778042Y-89690302D01*
X161778042Y-89835445D01*
X161796185Y-89871731D01*
X161814328Y-89889874D01*
X161850614Y-89908017D01*
X161923185Y-89908017D01*
X161959471Y-89889874D01*
X161977614Y-89871731D01*
X161995757Y-89835445D01*
X161995757Y-89744731D01*
X161977614Y-89708445D01*
X161959471Y-89690302D01*
X161923185Y-89672160D01*
X161850614Y-89672160D01*
X161814328Y-89690302D01*
X161796185Y-89708445D01*
X161778042Y-89744731D01*
D10*
X153729393Y-94395542D02*
X153681774Y-94443161D01*
X153538917Y-94490780D01*
X153443679Y-94490780D01*
X153300821Y-94443161D01*
X153205583Y-94347923D01*
X153157964Y-94252685D01*
X153110345Y-94062209D01*
X153110345Y-93919352D01*
X153157964Y-93728876D01*
X153205583Y-93633638D01*
X153300821Y-93538400D01*
X153443679Y-93490780D01*
X153538917Y-93490780D01*
X153681774Y-93538400D01*
X153729393Y-93586019D01*
X154586536Y-93824114D02*
X154586536Y-94490780D01*
X154348440Y-93443161D02*
X154110345Y-94157447D01*
X154729393Y-94157447D01*
%LPC*%
D18*
X152518120Y-107734100D03*
D19*
X147518120Y-107734100D03*
G36*
G01*
X165453000Y-96446060D02*
X165763000Y-96446060D01*
G75*
G02*
X165918000Y-96601060I0J-155000D01*
G01*
X165918000Y-97026060D01*
G75*
G02*
X165763000Y-97181060I-155000J0D01*
G01*
X165453000Y-97181060D01*
G75*
G02*
X165298000Y-97026060I0J155000D01*
G01*
X165298000Y-96601060D01*
G75*
G02*
X165453000Y-96446060I155000J0D01*
G01*
G37*
G36*
G01*
X165453000Y-97581060D02*
X165763000Y-97581060D01*
G75*
G02*
X165918000Y-97736060I0J-155000D01*
G01*
X165918000Y-98161060D01*
G75*
G02*
X165763000Y-98316060I-155000J0D01*
G01*
X165453000Y-98316060D01*
G75*
G02*
X165298000Y-98161060I0J155000D01*
G01*
X165298000Y-97736060D01*
G75*
G02*
X165453000Y-97581060I155000J0D01*
G01*
G37*
D20*
X144906460Y-99941380D03*
X138806460Y-99941380D03*
G36*
G01*
X155631720Y-95905081D02*
X155631720Y-94605079D01*
G75*
G02*
X155881719Y-94355080I249999J0D01*
G01*
X156706721Y-94355080D01*
G75*
G02*
X156956720Y-94605079I0J-249999D01*
G01*
X156956720Y-95905081D01*
G75*
G02*
X156706721Y-96155080I-249999J0D01*
G01*
X155881719Y-96155080D01*
G75*
G02*
X155631720Y-95905081I0J249999D01*
G01*
G37*
G36*
G01*
X152506720Y-95905081D02*
X152506720Y-94605079D01*
G75*
G02*
X152756719Y-94355080I249999J0D01*
G01*
X153581721Y-94355080D01*
G75*
G02*
X153831720Y-94605079I0J-249999D01*
G01*
X153831720Y-95905081D01*
G75*
G02*
X153581721Y-96155080I-249999J0D01*
G01*
X152756719Y-96155080D01*
G75*
G02*
X152506720Y-95905081I0J249999D01*
G01*
G37*
G36*
G01*
X151845840Y-97711499D02*
X151845840Y-99011501D01*
G75*
G02*
X151595841Y-99261500I-249999J0D01*
G01*
X150770839Y-99261500D01*
G75*
G02*
X150520840Y-99011501I0J249999D01*
G01*
X150520840Y-97711499D01*
G75*
G02*
X150770839Y-97461500I249999J0D01*
G01*
X151595841Y-97461500D01*
G75*
G02*
X151845840Y-97711499I0J-249999D01*
G01*
G37*
G36*
G01*
X148720840Y-97711499D02*
X148720840Y-99011501D01*
G75*
G02*
X148470841Y-99261500I-249999J0D01*
G01*
X147645839Y-99261500D01*
G75*
G02*
X147395840Y-99011501I0J249999D01*
G01*
X147395840Y-97711499D01*
G75*
G02*
X147645839Y-97461500I249999J0D01*
G01*
X148470841Y-97461500D01*
G75*
G02*
X148720840Y-97711499I0J-249999D01*
G01*
G37*
G36*
G01*
X123650780Y-99744440D02*
X123650780Y-100844440D01*
G75*
G02*
X123400780Y-101094440I-250000J0D01*
G01*
X120900780Y-101094440D01*
G75*
G02*
X120650780Y-100844440I0J250000D01*
G01*
X120650780Y-99744440D01*
G75*
G02*
X120900780Y-99494440I250000J0D01*
G01*
X123400780Y-99494440D01*
G75*
G02*
X123650780Y-99744440I0J-250000D01*
G01*
G37*
G36*
G01*
X128050780Y-99744440D02*
X128050780Y-100844440D01*
G75*
G02*
X127800780Y-101094440I-250000J0D01*
G01*
X125300780Y-101094440D01*
G75*
G02*
X125050780Y-100844440I0J250000D01*
G01*
X125050780Y-99744440D01*
G75*
G02*
X125300780Y-99494440I250000J0D01*
G01*
X127800780Y-99494440D01*
G75*
G02*
X128050780Y-99744440I0J-250000D01*
G01*
G37*
G36*
G01*
X129882440Y-104395280D02*
X129882440Y-103920280D01*
G75*
G02*
X130119940Y-103682780I237500J0D01*
G01*
X130719940Y-103682780D01*
G75*
G02*
X130957440Y-103920280I0J-237500D01*
G01*
X130957440Y-104395280D01*
G75*
G02*
X130719940Y-104632780I-237500J0D01*
G01*
X130119940Y-104632780D01*
G75*
G02*
X129882440Y-104395280I0J237500D01*
G01*
G37*
G36*
G01*
X131607440Y-104395280D02*
X131607440Y-103920280D01*
G75*
G02*
X131844940Y-103682780I237500J0D01*
G01*
X132444940Y-103682780D01*
G75*
G02*
X132682440Y-103920280I0J-237500D01*
G01*
X132682440Y-104395280D01*
G75*
G02*
X132444940Y-104632780I-237500J0D01*
G01*
X131844940Y-104632780D01*
G75*
G02*
X131607440Y-104395280I0J237500D01*
G01*
G37*
G36*
G01*
X130926960Y-105858300D02*
X130926960Y-106333300D01*
G75*
G02*
X130689460Y-106570800I-237500J0D01*
G01*
X130089460Y-106570800D01*
G75*
G02*
X129851960Y-106333300I0J237500D01*
G01*
X129851960Y-105858300D01*
G75*
G02*
X130089460Y-105620800I237500J0D01*
G01*
X130689460Y-105620800D01*
G75*
G02*
X130926960Y-105858300I0J-237500D01*
G01*
G37*
G36*
G01*
X132651960Y-105858300D02*
X132651960Y-106333300D01*
G75*
G02*
X132414460Y-106570800I-237500J0D01*
G01*
X131814460Y-106570800D01*
G75*
G02*
X131576960Y-106333300I0J237500D01*
G01*
X131576960Y-105858300D01*
G75*
G02*
X131814460Y-105620800I237500J0D01*
G01*
X132414460Y-105620800D01*
G75*
G02*
X132651960Y-105858300I0J-237500D01*
G01*
G37*
G36*
G01*
X159079440Y-89997300D02*
X159079440Y-89047300D01*
G75*
G02*
X159329440Y-88797300I250000J0D01*
G01*
X160004440Y-88797300D01*
G75*
G02*
X160254440Y-89047300I0J-250000D01*
G01*
X160254440Y-89997300D01*
G75*
G02*
X160004440Y-90247300I-250000J0D01*
G01*
X159329440Y-90247300D01*
G75*
G02*
X159079440Y-89997300I0J250000D01*
G01*
G37*
G36*
G01*
X157004440Y-89997300D02*
X157004440Y-89047300D01*
G75*
G02*
X157254440Y-88797300I250000J0D01*
G01*
X157929440Y-88797300D01*
G75*
G02*
X158179440Y-89047300I0J-250000D01*
G01*
X158179440Y-89997300D01*
G75*
G02*
X157929440Y-90247300I-250000J0D01*
G01*
X157254440Y-90247300D01*
G75*
G02*
X157004440Y-89997300I0J250000D01*
G01*
G37*
G36*
G01*
X165737080Y-95434160D02*
X165737080Y-94959160D01*
G75*
G02*
X165974580Y-94721660I237500J0D01*
G01*
X166574580Y-94721660D01*
G75*
G02*
X166812080Y-94959160I0J-237500D01*
G01*
X166812080Y-95434160D01*
G75*
G02*
X166574580Y-95671660I-237500J0D01*
G01*
X165974580Y-95671660D01*
G75*
G02*
X165737080Y-95434160I0J237500D01*
G01*
G37*
G36*
G01*
X167462080Y-95434160D02*
X167462080Y-94959160D01*
G75*
G02*
X167699580Y-94721660I237500J0D01*
G01*
X168299580Y-94721660D01*
G75*
G02*
X168537080Y-94959160I0J-237500D01*
G01*
X168537080Y-95434160D01*
G75*
G02*
X168299580Y-95671660I-237500J0D01*
G01*
X167699580Y-95671660D01*
G75*
G02*
X167462080Y-95434160I0J237500D01*
G01*
G37*
G36*
G01*
X166844140Y-103682619D02*
X166844140Y-105882621D01*
G75*
G02*
X166594141Y-106132620I-249999J0D01*
G01*
X165769139Y-106132620D01*
G75*
G02*
X165519140Y-105882621I0J249999D01*
G01*
X165519140Y-103682619D01*
G75*
G02*
X165769139Y-103432620I249999J0D01*
G01*
X166594141Y-103432620D01*
G75*
G02*
X166844140Y-103682619I0J-249999D01*
G01*
G37*
G36*
G01*
X169969140Y-103682619D02*
X169969140Y-105882621D01*
G75*
G02*
X169719141Y-106132620I-249999J0D01*
G01*
X168894139Y-106132620D01*
G75*
G02*
X168644140Y-105882621I0J249999D01*
G01*
X168644140Y-103682619D01*
G75*
G02*
X168894139Y-103432620I249999J0D01*
G01*
X169719141Y-103432620D01*
G75*
G02*
X169969140Y-103682619I0J-249999D01*
G01*
G37*
G36*
G01*
X154863981Y-89067600D02*
X152663979Y-89067600D01*
G75*
G02*
X152413980Y-88817601I0J249999D01*
G01*
X152413980Y-87992599D01*
G75*
G02*
X152663979Y-87742600I249999J0D01*
G01*
X154863981Y-87742600D01*
G75*
G02*
X155113980Y-87992599I0J-249999D01*
G01*
X155113980Y-88817601D01*
G75*
G02*
X154863981Y-89067600I-249999J0D01*
G01*
G37*
G36*
G01*
X154863981Y-85942600D02*
X152663979Y-85942600D01*
G75*
G02*
X152413980Y-85692601I0J249999D01*
G01*
X152413980Y-84867599D01*
G75*
G02*
X152663979Y-84617600I249999J0D01*
G01*
X154863981Y-84617600D01*
G75*
G02*
X155113980Y-84867599I0J-249999D01*
G01*
X155113980Y-85692601D01*
G75*
G02*
X154863981Y-85942600I-249999J0D01*
G01*
G37*
G36*
G01*
X170346640Y-93587742D02*
X170346640Y-88687738D01*
G75*
G02*
X170596638Y-88437740I249998J0D01*
G01*
X172071642Y-88437740D01*
G75*
G02*
X172321640Y-88687738I0J-249998D01*
G01*
X172321640Y-93587742D01*
G75*
G02*
X172071642Y-93837740I-249998J0D01*
G01*
X170596638Y-93837740D01*
G75*
G02*
X170346640Y-93587742I0J249998D01*
G01*
G37*
G36*
G01*
X165071640Y-93587742D02*
X165071640Y-88687738D01*
G75*
G02*
X165321638Y-88437740I249998J0D01*
G01*
X166796642Y-88437740D01*
G75*
G02*
X167046640Y-88687738I0J-249998D01*
G01*
X167046640Y-93587742D01*
G75*
G02*
X166796642Y-93837740I-249998J0D01*
G01*
X165321638Y-93837740D01*
G75*
G02*
X165071640Y-93587742I0J249998D01*
G01*
G37*
D21*
X148193300Y-87475060D03*
X150993300Y-87475060D03*
X140515800Y-105016300D03*
X137715800Y-105016300D03*
X166074900Y-101635560D03*
X168874900Y-101635560D03*
G36*
G01*
X142895741Y-86161460D02*
X141995739Y-86161460D01*
G75*
G02*
X141745740Y-85911461I0J249999D01*
G01*
X141745740Y-85261459D01*
G75*
G02*
X141995739Y-85011460I249999J0D01*
G01*
X142895741Y-85011460D01*
G75*
G02*
X143145740Y-85261459I0J-249999D01*
G01*
X143145740Y-85911461D01*
G75*
G02*
X142895741Y-86161460I-249999J0D01*
G01*
G37*
G36*
G01*
X142895741Y-88211460D02*
X141995739Y-88211460D01*
G75*
G02*
X141745740Y-87961461I0J249999D01*
G01*
X141745740Y-87311459D01*
G75*
G02*
X141995739Y-87061460I249999J0D01*
G01*
X142895741Y-87061460D01*
G75*
G02*
X143145740Y-87311459I0J-249999D01*
G01*
X143145740Y-87961461D01*
G75*
G02*
X142895741Y-88211460I-249999J0D01*
G01*
G37*
G36*
G01*
X141427620Y-109418541D02*
X141427620Y-108518539D01*
G75*
G02*
X141677619Y-108268540I249999J0D01*
G01*
X142327621Y-108268540D01*
G75*
G02*
X142577620Y-108518539I0J-249999D01*
G01*
X142577620Y-109418541D01*
G75*
G02*
X142327621Y-109668540I-249999J0D01*
G01*
X141677619Y-109668540D01*
G75*
G02*
X141427620Y-109418541I0J249999D01*
G01*
G37*
G36*
G01*
X139377620Y-109418541D02*
X139377620Y-108518539D01*
G75*
G02*
X139627619Y-108268540I249999J0D01*
G01*
X140277621Y-108268540D01*
G75*
G02*
X140527620Y-108518539I0J-249999D01*
G01*
X140527620Y-109418541D01*
G75*
G02*
X140277621Y-109668540I-249999J0D01*
G01*
X139627619Y-109668540D01*
G75*
G02*
X139377620Y-109418541I0J249999D01*
G01*
G37*
G36*
G01*
X172311481Y-100472040D02*
X171411479Y-100472040D01*
G75*
G02*
X171161480Y-100222041I0J249999D01*
G01*
X171161480Y-99572039D01*
G75*
G02*
X171411479Y-99322040I249999J0D01*
G01*
X172311481Y-99322040D01*
G75*
G02*
X172561480Y-99572039I0J-249999D01*
G01*
X172561480Y-100222041D01*
G75*
G02*
X172311481Y-100472040I-249999J0D01*
G01*
G37*
G36*
G01*
X172311481Y-98422040D02*
X171411479Y-98422040D01*
G75*
G02*
X171161480Y-98172041I0J249999D01*
G01*
X171161480Y-97522039D01*
G75*
G02*
X171411479Y-97272040I249999J0D01*
G01*
X172311481Y-97272040D01*
G75*
G02*
X172561480Y-97522039I0J-249999D01*
G01*
X172561480Y-98172041D01*
G75*
G02*
X172311481Y-98422040I-249999J0D01*
G01*
G37*
G36*
G01*
X121782420Y-94932079D02*
X121782420Y-95832081D01*
G75*
G02*
X121532421Y-96082080I-249999J0D01*
G01*
X120882419Y-96082080D01*
G75*
G02*
X120632420Y-95832081I0J249999D01*
G01*
X120632420Y-94932079D01*
G75*
G02*
X120882419Y-94682080I249999J0D01*
G01*
X121532421Y-94682080D01*
G75*
G02*
X121782420Y-94932079I0J-249999D01*
G01*
G37*
G36*
G01*
X123832420Y-94932079D02*
X123832420Y-95832081D01*
G75*
G02*
X123582421Y-96082080I-249999J0D01*
G01*
X122932419Y-96082080D01*
G75*
G02*
X122682420Y-95832081I0J249999D01*
G01*
X122682420Y-94932079D01*
G75*
G02*
X122932419Y-94682080I249999J0D01*
G01*
X123582421Y-94682080D01*
G75*
G02*
X123832420Y-94932079I0J-249999D01*
G01*
G37*
D22*
X113360200Y-86485141D03*
X113635201Y-110403640D03*
X179788139Y-110403640D03*
X179908200Y-86485141D03*
D19*
X115503960Y-95379540D03*
D18*
X115503960Y-100379540D03*
D19*
X135542020Y-89806780D03*
D18*
X130542020Y-89806780D03*
D19*
X177982880Y-101043740D03*
D18*
X177982880Y-96043740D03*
D23*
X148389340Y-95426980D03*
X148389340Y-89926980D03*
D24*
X163900300Y-102966520D03*
X158400300Y-102966520D03*
G36*
G01*
X134977719Y-105589600D02*
X135877721Y-105589600D01*
G75*
G02*
X136127720Y-105839599I0J-249999D01*
G01*
X136127720Y-106489601D01*
G75*
G02*
X135877721Y-106739600I-249999J0D01*
G01*
X134977719Y-106739600D01*
G75*
G02*
X134727720Y-106489601I0J249999D01*
G01*
X134727720Y-105839599D01*
G75*
G02*
X134977719Y-105589600I249999J0D01*
G01*
G37*
G36*
G01*
X134977719Y-103539600D02*
X135877721Y-103539600D01*
G75*
G02*
X136127720Y-103789599I0J-249999D01*
G01*
X136127720Y-104439601D01*
G75*
G02*
X135877721Y-104689600I-249999J0D01*
G01*
X134977719Y-104689600D01*
G75*
G02*
X134727720Y-104439601I0J249999D01*
G01*
X134727720Y-103789599D01*
G75*
G02*
X134977719Y-103539600I249999J0D01*
G01*
G37*
D25*
X154861260Y-102120880D03*
X153911260Y-99920880D03*
X155811260Y-99920880D03*
X125018760Y-95661660D03*
X126918760Y-95661660D03*
X125968760Y-93461660D03*
G36*
G01*
X155685440Y-98316201D02*
X155685440Y-97416199D01*
G75*
G02*
X155935439Y-97166200I249999J0D01*
G01*
X156635441Y-97166200D01*
G75*
G02*
X156885440Y-97416199I0J-249999D01*
G01*
X156885440Y-98316201D01*
G75*
G02*
X156635441Y-98566200I-249999J0D01*
G01*
X155935439Y-98566200D01*
G75*
G02*
X155685440Y-98316201I0J249999D01*
G01*
G37*
G36*
G01*
X153685440Y-98316201D02*
X153685440Y-97416199D01*
G75*
G02*
X153935439Y-97166200I249999J0D01*
G01*
X154635441Y-97166200D01*
G75*
G02*
X154885440Y-97416199I0J-249999D01*
G01*
X154885440Y-98316201D01*
G75*
G02*
X154635441Y-98566200I-249999J0D01*
G01*
X153935439Y-98566200D01*
G75*
G02*
X153685440Y-98316201I0J249999D01*
G01*
G37*
G36*
G01*
X126003100Y-104578999D02*
X126003100Y-105479001D01*
G75*
G02*
X125753101Y-105729000I-249999J0D01*
G01*
X125053099Y-105729000D01*
G75*
G02*
X124803100Y-105479001I0J249999D01*
G01*
X124803100Y-104578999D01*
G75*
G02*
X125053099Y-104329000I249999J0D01*
G01*
X125753101Y-104329000D01*
G75*
G02*
X126003100Y-104578999I0J-249999D01*
G01*
G37*
G36*
G01*
X128003100Y-104578999D02*
X128003100Y-105479001D01*
G75*
G02*
X127753101Y-105729000I-249999J0D01*
G01*
X127053099Y-105729000D01*
G75*
G02*
X126803100Y-105479001I0J249999D01*
G01*
X126803100Y-104578999D01*
G75*
G02*
X127053099Y-104329000I249999J0D01*
G01*
X127753101Y-104329000D01*
G75*
G02*
X128003100Y-104578999I0J-249999D01*
G01*
G37*
G36*
G01*
X123918780Y-104581539D02*
X123918780Y-105481541D01*
G75*
G02*
X123668781Y-105731540I-249999J0D01*
G01*
X122968779Y-105731540D01*
G75*
G02*
X122718780Y-105481541I0J249999D01*
G01*
X122718780Y-104581539D01*
G75*
G02*
X122968779Y-104331540I249999J0D01*
G01*
X123668781Y-104331540D01*
G75*
G02*
X123918780Y-104581539I0J-249999D01*
G01*
G37*
G36*
G01*
X121918780Y-104581539D02*
X121918780Y-105481541D01*
G75*
G02*
X121668781Y-105731540I-249999J0D01*
G01*
X120968779Y-105731540D01*
G75*
G02*
X120718780Y-105481541I0J249999D01*
G01*
X120718780Y-104581539D01*
G75*
G02*
X120968779Y-104331540I249999J0D01*
G01*
X121668781Y-104331540D01*
G75*
G02*
X121918780Y-104581539I0J-249999D01*
G01*
G37*
G36*
G01*
X169125479Y-96484640D02*
X170025481Y-96484640D01*
G75*
G02*
X170275480Y-96734639I0J-249999D01*
G01*
X170275480Y-97434641D01*
G75*
G02*
X170025481Y-97684640I-249999J0D01*
G01*
X169125479Y-97684640D01*
G75*
G02*
X168875480Y-97434641I0J249999D01*
G01*
X168875480Y-96734639D01*
G75*
G02*
X169125479Y-96484640I249999J0D01*
G01*
G37*
G36*
G01*
X169125479Y-98484640D02*
X170025481Y-98484640D01*
G75*
G02*
X170275480Y-98734639I0J-249999D01*
G01*
X170275480Y-99434641D01*
G75*
G02*
X170025481Y-99684640I-249999J0D01*
G01*
X169125479Y-99684640D01*
G75*
G02*
X168875480Y-99434641I0J249999D01*
G01*
X168875480Y-98734639D01*
G75*
G02*
X169125479Y-98484640I249999J0D01*
G01*
G37*
G36*
G01*
X166910599Y-98487180D02*
X167810601Y-98487180D01*
G75*
G02*
X168060600Y-98737179I0J-249999D01*
G01*
X168060600Y-99437181D01*
G75*
G02*
X167810601Y-99687180I-249999J0D01*
G01*
X166910599Y-99687180D01*
G75*
G02*
X166660600Y-99437181I0J249999D01*
G01*
X166660600Y-98737179D01*
G75*
G02*
X166910599Y-98487180I249999J0D01*
G01*
G37*
G36*
G01*
X166910599Y-96487180D02*
X167810601Y-96487180D01*
G75*
G02*
X168060600Y-96737179I0J-249999D01*
G01*
X168060600Y-97437181D01*
G75*
G02*
X167810601Y-97687180I-249999J0D01*
G01*
X166910599Y-97687180D01*
G75*
G02*
X166660600Y-97437181I0J249999D01*
G01*
X166660600Y-96737179D01*
G75*
G02*
X166910599Y-96487180I249999J0D01*
G01*
G37*
G36*
G01*
X159026300Y-92278621D02*
X159026300Y-91378619D01*
G75*
G02*
X159276299Y-91128620I249999J0D01*
G01*
X159976301Y-91128620D01*
G75*
G02*
X160226300Y-91378619I0J-249999D01*
G01*
X160226300Y-92278621D01*
G75*
G02*
X159976301Y-92528620I-249999J0D01*
G01*
X159276299Y-92528620D01*
G75*
G02*
X159026300Y-92278621I0J249999D01*
G01*
G37*
G36*
G01*
X157026300Y-92278621D02*
X157026300Y-91378619D01*
G75*
G02*
X157276299Y-91128620I249999J0D01*
G01*
X157976301Y-91128620D01*
G75*
G02*
X158226300Y-91378619I0J-249999D01*
G01*
X158226300Y-92278621D01*
G75*
G02*
X157976301Y-92528620I-249999J0D01*
G01*
X157276299Y-92528620D01*
G75*
G02*
X157026300Y-92278621I0J249999D01*
G01*
G37*
G36*
G01*
X160276340Y-86765979D02*
X160276340Y-87665981D01*
G75*
G02*
X160026341Y-87915980I-249999J0D01*
G01*
X159326339Y-87915980D01*
G75*
G02*
X159076340Y-87665981I0J249999D01*
G01*
X159076340Y-86765979D01*
G75*
G02*
X159326339Y-86515980I249999J0D01*
G01*
X160026341Y-86515980D01*
G75*
G02*
X160276340Y-86765979I0J-249999D01*
G01*
G37*
G36*
G01*
X158276340Y-86765979D02*
X158276340Y-87665981D01*
G75*
G02*
X158026341Y-87915980I-249999J0D01*
G01*
X157326339Y-87915980D01*
G75*
G02*
X157076340Y-87665981I0J249999D01*
G01*
X157076340Y-86765979D01*
G75*
G02*
X157326339Y-86515980I249999J0D01*
G01*
X158026341Y-86515980D01*
G75*
G02*
X158276340Y-86765979I0J-249999D01*
G01*
G37*
G36*
G01*
X167349220Y-107261239D02*
X167349220Y-108161241D01*
G75*
G02*
X167099221Y-108411240I-249999J0D01*
G01*
X166399219Y-108411240D01*
G75*
G02*
X166149220Y-108161241I0J249999D01*
G01*
X166149220Y-107261239D01*
G75*
G02*
X166399219Y-107011240I249999J0D01*
G01*
X167099221Y-107011240D01*
G75*
G02*
X167349220Y-107261239I0J-249999D01*
G01*
G37*
G36*
G01*
X169349220Y-107261239D02*
X169349220Y-108161241D01*
G75*
G02*
X169099221Y-108411240I-249999J0D01*
G01*
X168399219Y-108411240D01*
G75*
G02*
X168149220Y-108161241I0J249999D01*
G01*
X168149220Y-107261239D01*
G75*
G02*
X168399219Y-107011240I249999J0D01*
G01*
X169099221Y-107011240D01*
G75*
G02*
X169349220Y-107261239I0J-249999D01*
G01*
G37*
G36*
G01*
X135006739Y-95429878D02*
X135006739Y-96329880D01*
G75*
G02*
X134756740Y-96579879I-249999J0D01*
G01*
X134056738Y-96579879D01*
G75*
G02*
X133806739Y-96329880I0J249999D01*
G01*
X133806739Y-95429878D01*
G75*
G02*
X134056738Y-95179879I249999J0D01*
G01*
X134756740Y-95179879D01*
G75*
G02*
X135006739Y-95429878I0J-249999D01*
G01*
G37*
G36*
G01*
X137006739Y-95429878D02*
X137006739Y-96329880D01*
G75*
G02*
X136756740Y-96579879I-249999J0D01*
G01*
X136056738Y-96579879D01*
G75*
G02*
X135806739Y-96329880I0J249999D01*
G01*
X135806739Y-95429878D01*
G75*
G02*
X136056738Y-95179879I249999J0D01*
G01*
X136756740Y-95179879D01*
G75*
G02*
X137006739Y-95429878I0J-249999D01*
G01*
G37*
G36*
G01*
X132256739Y-95429878D02*
X132256739Y-96329880D01*
G75*
G02*
X132006740Y-96579879I-249999J0D01*
G01*
X131306738Y-96579879D01*
G75*
G02*
X131056739Y-96329880I0J249999D01*
G01*
X131056739Y-95429878D01*
G75*
G02*
X131306738Y-95179879I249999J0D01*
G01*
X132006740Y-95179879D01*
G75*
G02*
X132256739Y-95429878I0J-249999D01*
G01*
G37*
G36*
G01*
X130256739Y-95429878D02*
X130256739Y-96329880D01*
G75*
G02*
X130006740Y-96579879I-249999J0D01*
G01*
X129306738Y-96579879D01*
G75*
G02*
X129056739Y-96329880I0J249999D01*
G01*
X129056739Y-95429878D01*
G75*
G02*
X129306738Y-95179879I249999J0D01*
G01*
X130006740Y-95179879D01*
G75*
G02*
X130256739Y-95429878I0J-249999D01*
G01*
G37*
G36*
G01*
X151612400Y-84083739D02*
X151612400Y-84983741D01*
G75*
G02*
X151362401Y-85233740I-249999J0D01*
G01*
X150662399Y-85233740D01*
G75*
G02*
X150412400Y-84983741I0J249999D01*
G01*
X150412400Y-84083739D01*
G75*
G02*
X150662399Y-83833740I249999J0D01*
G01*
X151362401Y-83833740D01*
G75*
G02*
X151612400Y-84083739I0J-249999D01*
G01*
G37*
G36*
G01*
X149612400Y-84083739D02*
X149612400Y-84983741D01*
G75*
G02*
X149362401Y-85233740I-249999J0D01*
G01*
X148662399Y-85233740D01*
G75*
G02*
X148412400Y-84983741I0J249999D01*
G01*
X148412400Y-84083739D01*
G75*
G02*
X148662399Y-83833740I249999J0D01*
G01*
X149362401Y-83833740D01*
G75*
G02*
X149612400Y-84083739I0J-249999D01*
G01*
G37*
G36*
G01*
X142051619Y-91599460D02*
X142951621Y-91599460D01*
G75*
G02*
X143201620Y-91849459I0J-249999D01*
G01*
X143201620Y-92549461D01*
G75*
G02*
X142951621Y-92799460I-249999J0D01*
G01*
X142051619Y-92799460D01*
G75*
G02*
X141801620Y-92549461I0J249999D01*
G01*
X141801620Y-91849459D01*
G75*
G02*
X142051619Y-91599460I249999J0D01*
G01*
G37*
G36*
G01*
X142051619Y-89599460D02*
X142951621Y-89599460D01*
G75*
G02*
X143201620Y-89849459I0J-249999D01*
G01*
X143201620Y-90549461D01*
G75*
G02*
X142951621Y-90799460I-249999J0D01*
G01*
X142051619Y-90799460D01*
G75*
G02*
X141801620Y-90549461I0J249999D01*
G01*
X141801620Y-89849459D01*
G75*
G02*
X142051619Y-89599460I249999J0D01*
G01*
G37*
G36*
G01*
X137977680Y-108500759D02*
X137977680Y-109400761D01*
G75*
G02*
X137727681Y-109650760I-249999J0D01*
G01*
X137027679Y-109650760D01*
G75*
G02*
X136777680Y-109400761I0J249999D01*
G01*
X136777680Y-108500759D01*
G75*
G02*
X137027679Y-108250760I249999J0D01*
G01*
X137727681Y-108250760D01*
G75*
G02*
X137977680Y-108500759I0J-249999D01*
G01*
G37*
G36*
G01*
X135977680Y-108500759D02*
X135977680Y-109400761D01*
G75*
G02*
X135727681Y-109650760I-249999J0D01*
G01*
X135027679Y-109650760D01*
G75*
G02*
X134777680Y-109400761I0J249999D01*
G01*
X134777680Y-108500759D01*
G75*
G02*
X135027679Y-108250760I249999J0D01*
G01*
X135727681Y-108250760D01*
G75*
G02*
X135977680Y-108500759I0J-249999D01*
G01*
G37*
G36*
G01*
X171492759Y-102176780D02*
X172392761Y-102176780D01*
G75*
G02*
X172642760Y-102426779I0J-249999D01*
G01*
X172642760Y-103126781D01*
G75*
G02*
X172392761Y-103376780I-249999J0D01*
G01*
X171492759Y-103376780D01*
G75*
G02*
X171242760Y-103126781I0J249999D01*
G01*
X171242760Y-102426779D01*
G75*
G02*
X171492759Y-102176780I249999J0D01*
G01*
G37*
G36*
G01*
X171492759Y-104176780D02*
X172392761Y-104176780D01*
G75*
G02*
X172642760Y-104426779I0J-249999D01*
G01*
X172642760Y-105126781D01*
G75*
G02*
X172392761Y-105376780I-249999J0D01*
G01*
X171492759Y-105376780D01*
G75*
G02*
X171242760Y-105126781I0J249999D01*
G01*
X171242760Y-104426779D01*
G75*
G02*
X171492759Y-104176780I249999J0D01*
G01*
G37*
D26*
X130431560Y-102008940D03*
X130431560Y-100738940D03*
X130431560Y-99468940D03*
X130431560Y-98198940D03*
X135831560Y-98198940D03*
X135831560Y-99468940D03*
X135831560Y-100738940D03*
X135831560Y-102008940D03*
D27*
X133131560Y-100103940D03*
D28*
X161960560Y-95971360D03*
D29*
X160710560Y-94021360D03*
X161210560Y-94021360D03*
X161710560Y-94021360D03*
X162210560Y-94021360D03*
X162710560Y-94021360D03*
X163210560Y-94021360D03*
D30*
X163910560Y-94721360D03*
X163910560Y-95221360D03*
X163910560Y-95721360D03*
X163910560Y-96221360D03*
X163910560Y-96721360D03*
X163910560Y-97221360D03*
D29*
X163210560Y-97921360D03*
X162710560Y-97921360D03*
X162210560Y-97921360D03*
X161710560Y-97921360D03*
X161210560Y-97921360D03*
X160710560Y-97921360D03*
D30*
X160010560Y-97221360D03*
X160010560Y-96721360D03*
X160010560Y-96221360D03*
X160010560Y-95721360D03*
X160010560Y-95221360D03*
X160010560Y-94721360D03*
G36*
G01*
X163124300Y-91534000D02*
X163124300Y-90584000D01*
G75*
G02*
X163374300Y-90334000I250000J0D01*
G01*
X164049300Y-90334000D01*
G75*
G02*
X164299300Y-90584000I0J-250000D01*
G01*
X164299300Y-91534000D01*
G75*
G02*
X164049300Y-91784000I-250000J0D01*
G01*
X163374300Y-91784000D01*
G75*
G02*
X163124300Y-91534000I0J250000D01*
G01*
G37*
G36*
G01*
X161049300Y-91534000D02*
X161049300Y-90584000D01*
G75*
G02*
X161299300Y-90334000I250000J0D01*
G01*
X161974300Y-90334000D01*
G75*
G02*
X162224300Y-90584000I0J-250000D01*
G01*
X162224300Y-91534000D01*
G75*
G02*
X161974300Y-91784000I-250000J0D01*
G01*
X161299300Y-91784000D01*
G75*
G02*
X161049300Y-91534000I0J250000D01*
G01*
G37*
G36*
G01*
X155296060Y-92370900D02*
X155296060Y-92845900D01*
G75*
G02*
X155058560Y-93083400I-237500J0D01*
G01*
X154458560Y-93083400D01*
G75*
G02*
X154221060Y-92845900I0J237500D01*
G01*
X154221060Y-92370900D01*
G75*
G02*
X154458560Y-92133400I237500J0D01*
G01*
X155058560Y-92133400D01*
G75*
G02*
X155296060Y-92370900I0J-237500D01*
G01*
G37*
G36*
G01*
X153571060Y-92370900D02*
X153571060Y-92845900D01*
G75*
G02*
X153333560Y-93083400I-237500J0D01*
G01*
X152733560Y-93083400D01*
G75*
G02*
X152496060Y-92845900I0J237500D01*
G01*
X152496060Y-92370900D01*
G75*
G02*
X152733560Y-92133400I237500J0D01*
G01*
X153333560Y-92133400D01*
G75*
G02*
X153571060Y-92370900I0J-237500D01*
G01*
G37*
M02*
